<!-- width="451.78571" height="567.27576" -->
<svg xmlns:inkscape="http://www.inkscape.org/namespaces/inkscape" xmlns:sodipodi="http://sodipodi.sourceforge.net/DTD/sodipodi-0.dtd" xmlns="http://www.w3.org/2000/svg" xmlns:svg="http://www.w3.org/2000/svg" version="1.1" id="svg324" width="32" heigth="32" viewBox="0 0 451.78571 567.27576" sodipodi:docname="920495def4f679d79c3736a831939402.svg">
  <defs id="defs328"/>
  <sodipodi:namedview id="namedview326" pagecolor="#ffffff" bordercolor="#666666" borderopacity="1.0" inkscape:pageshadow="2" inkscape:pageopacity="0.0" inkscape:pagecheckerboard="0"/>
  <path d="m 60.365277,0.02181725 c 1.494984,-0.002309 2.989967,-0.0054884 4.484947,-0.0094545 4.077121,-0.00829657 8.154148,-0.00424628 12.23127,0.0019724 4.409064,0.0045447 8.818112,-0.0024692 13.227173,-0.00795984 8.625136,-0.0088742 17.250233,-0.006980799 25.875373,-0.0011747 7.01239,0.0045243 14.02477,0.0051261 21.03716,0.0029524 0.99959,-3.0646e-4 1.99918,-6.1293e-4 3.02907,-9.2868e-4 2.0309,-6.3948e-4 4.06181,-0.0012879 6.09272,-0.0019452 19.02559,-0.005697499 38.05117,8.4552e-4 57.07676,0.01160073 16.31038,0.008935 32.62074,0.0073828 48.93113,-0.0018375 18.95941,-0.01071285 37.91881,-0.0149114594 56.87823,-0.00877547 2.02326,6.3707e-4 4.04653,0.0012658 6.06979,0.0018861 0.99538,3.0856e-4 1.99076,6.1711e-4 3.01631,9.3501e-4 7.00065,0.0017239 14.00129,-0.0011816 21.00194,-0.0058941 8.53619,-0.0056201 17.07233,-0.004068599 25.60851,0.0065615 4.35186,0.0052415 8.70367,0.00733946 13.05553,7.0169e-4 3.9897,-0.0059932 7.97929,-0.0026292 11.96898,0.0079551 1.43726,0.0022198 2.87453,0.0011299 4.31179,-0.0037516 11.40106,-0.03572874 22.71288,-0.06709159 32.5606,6.26112395 0.58845,0.3557812 1.17691,0.7115625 1.7832,1.078125 2.59447,1.5784741 5.12751,3.2373534 7.6543,4.9218744 0,0.66 0,1.32 0,2 0.99,0.33 1.98,0.66 3,1 10.68366,13.423071 12.45346,27.625745 12.38768,44.331635 0.004,1.736923 0.01,3.473844 0.0163,5.21076 0.0144,4.745976 0.0102,9.491779 0.003,14.237765 -0.005,5.128955 0.008,10.257874 0.018,15.386817 0.0172,10.037539 0.018,20.075009 0.0128,30.112559 -0.004,8.16083 -0.003,16.32165 0.003,24.48248 7.5e-4,1.16276 0.002,2.32552 0.002,3.52351 0.002,2.36236 0.003,4.72472 0.005,7.08708 0.0137,22.13929 0.008,44.27855 -0.003,66.41784 -0.01,20.23974 0.003,40.47939 0.0269,60.71912 0.0244,20.79947 0.034,41.59889 0.0274,62.39837 -0.003,11.67041 -10e-4,23.34075 0.0162,35.01115 0.0147,9.93455 0.0153,19.86899 -0.002,29.80354 -0.009,5.06506 -0.0107,10.1299 0.005,15.19495 0.0139,4.64372 0.009,9.28705 -0.0102,13.93075 -0.004,1.67282 -8.7e-4,3.34568 0.01,5.01848 0.0776,13.34458 -1.14968,26.11016 -9.51656,37.1332 -1.08282,1.485 -1.08282,1.485 -2.1875,3 -0.59813,0.66 -1.19625,1.32 -1.8125,2 -0.66,0 -1.32,0 -2,0 -0.66,1.32 -1.32,2.64 -2,4 -0.66,0 -1.32,0 -2,0 0,0.66 0,1.32 0,2 -1.63715,0.9731 -3.28532,1.92765 -4.9375,2.875 -0.91653,0.53367 -1.83305,1.06734 -2.77735,1.61718 -7.37054,3.38292 -14.80768,3.8083 -22.81933,3.82666 -1.53922,0.0151 -1.53922,0.0151 -3.10953,0.0305 -3.42606,0.031 -6.85202,0.0481 -10.27817,0.0647 -2.47292,0.0186 -4.94583,0.0378 -7.41873,0.0577 -5.33434,0.0408 -10.66867,0.0752 -16.00308,0.10442 -5.61453,0.0308 -11.22896,0.0686 -16.84339,0.11346 -31.97278,0.25523 -63.93966,0.35912 -95.91296,0.13739 -5.7229,-0.0395 -11.44581,-0.0728 -17.16876,-0.10196 -1.19996,-0.006 -1.19996,-0.006 -2.42416,-0.0126 -3.20762,-0.0166 -6.41524,-0.0332 -9.62287,-0.0491 -9.42985,-0.0473 -18.85865,-0.12135 -28.28791,-0.23801 -5.93894,-0.0716 -11.87768,-0.11479 -17.81702,-0.13645 -3.43612,-0.0137 -6.87076,-0.041 -10.30636,-0.10441 -3.74265,-0.0626 -7.48242,-0.0756 -11.22552,-0.0769 -1.08169,-0.0303 -2.16338,-0.0607 -3.27785,-0.0919 -8.52104,0.0802 -12.66903,3.31704 -18.76952,8.98425 -1.42257,1.08241 -2.85763,2.14891 -4.3125,3.1875 -2.3845,1.76078 -4.31992,3.44492 -6.4375,5.5625 -2.04795,2.04795 -3.59691,3.16911 -6.25,4.25 0,0.66 0,1.32 0,2 -1.63432,1.47769 -3.33476,2.88269 -5.0625,4.25 -3.3967,2.70948 -6.75063,5.428 -10,8.3125 -2.937498,2.4375 -2.937498,2.4375 -4.937498,2.4375 -0.33,0.99 -0.66,1.98 -1,3 -4.457142,4 -4.457142,4 -7,4 -0.66,1.32 -1.32,2.64 -2,4 -0.66,0 -1.32,0 -2,0 0,0.66 0,1.32 0,2 -1.668986,1.56668 -3.411967,3.05518 -5.1875,4.5 -0.962929,0.79406 -1.925859,1.58812 -2.917968,2.40625 -2.618848,1.89433 -4.850218,3.0697 -7.894531,4.09375 -1,-1 -1,-1 -1.120255,-3.39809 0.0022,-1.06367 0.0044,-2.12735 0.0067,-3.22325 1.14e-4,-1.80175 1.14e-4,-1.80175 2.29e-4,-3.63991 0.0052,-1.30726 0.01032,-2.61453 0.01564,-3.96141 0.0019,-1.34378 0.0033,-2.68757 0.0043,-4.03136 0.0038,-3.54281 0.01365,-7.08557 0.0247,-10.62837 0.01022,-3.61276 0.01479,-7.22554 0.01984,-10.83832 0.01074,-7.09311 0.02781,-14.1862 0.04883,-21.27929 -0.841528,-0.0361 -0.841528,-0.0361 -1.700058,-0.0729 -2.588463,-0.11346 -5.176605,-0.23311 -7.764786,-0.35283 -0.882161,-0.0378 -1.764323,-0.0755 -2.673217,-0.11438 -12.707001,-0.5998 -24.014347,-2.35835 -34.861939,-9.45984 0,-0.66 0,-1.32 0,-2 -0.589101,-0.0928 -1.178203,-0.18563 -1.785156,-0.28125 -6.160393,-1.99914 -10.2942822,-9.901 -13.1523442,-15.36328 -4.01646,-8.90414 -5.18560598,-18.01114 -5.19113398,-27.70666 -0.0018,-0.69757 -0.0035,-1.39514 -0.0053,-2.11385 -0.0046,-2.32492 -0.0022,-4.64978 2.34e-4,-6.97471 -0.0019,-1.6888 -0.0042,-3.37761 -0.0069,-5.06642 -0.0061,-4.63148 -0.006,-9.26294 -0.0048,-13.89442 2.04e-4,-4.99879 -0.0053,-9.99758 -0.01006,-14.99637 -0.0083,-9.79041 -0.01105,-19.58082 -0.01161,-29.37124 -4.76e-4,-7.95975 -0.0025,-15.91949 -0.0057,-23.87924 -0.0088,-22.57527 -0.01342,-45.15054 -0.01267,-67.72581 4e-5,-1.21673 7.9e-5,-2.43346 1.21e-4,-3.68706 4.1e-5,-1.21821 8.1e-5,-2.43643 1.24e-4,-3.69157 4.06e-4,-19.73948 -0.0092,-39.47895 -0.02326,-59.21844 -0.01437,-20.27613 -0.02127,-40.55225 -0.02041,-60.82838 3.32e-4,-11.38035 -0.0024,-22.76067 -0.01318,-34.14101 -0.0091,-9.69017 -0.01127,-19.38032 -0.0045,-29.070498 0.0033,-4.941311 0.0033,-9.882567 -0.0054,-14.823874 -0.0079,-4.529613 -0.0064,-9.059127 0.0023,-13.588738 0.0015,-1.632553 -2.66e-4,-3.265113 -0.0059,-4.897656 -0.04844,-15.147998 0.09624,-32.374485 10.25544518,-44.67953 0.66,0 1.32,0 2,0 0.06188,-0.5775 0.12375,-1.155 0.1875,-1.75 2.136799,-5.917289 10.800661,-9.9653216 16.25,-12.6249994 10.14591,-3.94863619 20.929684,-3.9154132 31.666302,-3.87894735 z" fill="#40a8ea" id="path2"/>
  <path d="m 132.4749,121.61173 c 0.76892,-0.006 1.53785,-0.0129 2.33008,-0.0195 1.18432,0.029 1.18432,0.029 2.39257,0.0586 0.78569,-0.0193 1.57137,-0.0387 2.38086,-0.0586 0.77022,0.006 1.54043,0.0129 2.33399,0.0195 0.69085,0.006 1.38171,0.0113 2.0935,0.0171 3.64179,1.04524 6.17464,2.50405 8.25415,5.64697 0.83896,4.10409 0.69781,8.12712 0.58594,12.30078 -0.008,1.19151 -0.017,2.38302 -0.0257,3.61064 -0.0335,3.80129 -0.10885,7.60044 -0.18521,11.40108 -0.0301,2.57875 -0.0575,5.15752 -0.082,7.73633 -0.061,6.31853 -0.17843,12.63247 -0.29297,18.95117 14.52,0 29.04,0 44,0 -0.0348,-4.0077 -0.0696,-8.01539 -0.10547,-12.14453 -0.0193,-3.19487 -0.0356,-6.38972 -0.0498,-9.58462 -0.0158,-3.37303 -0.037,-6.74584 -0.0711,-10.11875 -0.0363,-3.86977 -0.0534,-7.73922 -0.0666,-11.60913 -0.0155,-1.20945 -0.031,-2.4189 -0.0469,-3.66499 -2.2e-4,-1.12094 -4.5e-4,-2.24188 -6.8e-4,-3.39678 -0.01,-1.48226 -0.01,-1.48226 -0.0202,-2.99446 0.36076,-2.48674 0.36076,-2.48674 1.74424,-4.30505 2.1893,-1.6004 3.66667,-1.56925 6.36261,-1.58013 0.91975,-0.004 1.83949,-0.008 2.78711,-0.0117 0.95842,0.0116 1.91684,0.0232 2.9043,0.0352 1.43182,-0.0174 1.43182,-0.0174 2.89258,-0.0352 0.92103,0.004 1.84207,0.008 2.79101,0.0117 1.25962,0.005 1.25962,0.005 2.54468,0.0103 2.94679,0.49005 4.18755,1.31456 6.33423,3.38818 0.50336,2.49755 0.50336,2.49755 0.50793,5.5349 0.0113,1.15108 0.0226,2.30216 0.0342,3.48813 -0.008,1.26398 -0.0162,2.52796 -0.0245,3.83024 0.005,1.3437 0.0125,2.68739 0.0212,4.03107 0.0183,3.65095 0.0112,7.30144 -0.001,10.9524 -0.0101,3.81917 -7.3e-4,7.6383 0.006,11.45746 0.007,6.41511 -0.002,12.83003 -0.0214,19.24511 -0.0218,7.41699 -0.0147,14.83355 0.007,22.25053 0.0181,6.36614 0.0207,12.73215 0.0102,19.0983 -0.006,3.80301 -0.007,7.60581 0.006,11.4088 0.0116,3.57638 0.004,7.15219 -0.0196,10.72851 -0.008,1.93866 0.004,3.87737 0.0165,5.816 -0.0169,1.73085 -0.0169,1.73085 -0.0342,3.49667 -0.001,1.0027 -0.003,2.0054 -0.005,3.03849 -0.64062,3.33872 -1.88242,4.52798 -4.50336,6.62339 -3.11333,0.78381 -6.23627,0.60376 -9.4375,0.5625 -0.84627,0.0238 -1.69254,0.0477 -2.56445,0.0723 -1.2346,-0.003 -1.2346,-0.003 -2.49415,-0.006 -0.74435,7.2e-4 -1.4887,0.001 -2.25561,0.002 -3.74619,-1.05157 -5.00484,-2.42908 -7.24829,-5.63111 -0.75465,-4.09543 -0.72118,-8.14548 -0.70703,-12.30078 -0.0151,-1.19151 -0.0302,-2.38302 -0.0458,-3.61064 -0.0429,-3.80055 -0.0517,-7.60031 -0.0597,-11.40108 -0.0231,-2.57879 -0.0485,-5.15757 -0.0762,-7.73633 -0.0671,-6.31749 -0.088,-12.63276 -0.11133,-18.95117 -21.78,-0.495 -21.78,-0.495 -44,-1 0.0348,3.99609 0.0696,7.99219 0.10547,12.10937 0.0234,3.86556 0.0416,7.7311 0.0593,11.59669 0.0134,2.6889 0.0343,5.3776 0.0615,8.0664 0.0363,3.86237 0.0534,7.72441 0.0667,11.58692 0.0155,1.20428 0.031,2.40857 0.0469,3.64935 2.2e-4,1.12086 4.5e-4,2.24172 6.8e-4,3.39655 0.007,0.98595 0.0133,1.9719 0.0202,2.98773 -0.42103,3.04255 -1.24803,4.4078 -3.36076,6.60699 -2.20483,0.51758 -2.20483,0.51758 -4.74609,0.53125 -0.91975,0.005 -1.8395,0.0103 -2.78711,0.0156 -0.95842,-0.0155 -1.91684,-0.0309 -2.9043,-0.0469 -0.95455,0.0155 -1.9091,0.0309 -2.89258,0.0469 -1.38155,-0.008 -1.38155,-0.008 -2.79101,-0.0156 -0.83975,-0.005 -1.67949,-0.009 -2.54468,-0.0137 -3.18939,-0.7072 -4.28524,-2.00187 -6.33423,-4.51758 -0.50616,-2.58657 -0.50616,-2.58657 -0.51466,-5.57249 -0.0127,-1.13419 -0.0254,-2.26837 -0.0386,-3.43692 0.007,-1.24012 0.013,-2.48023 0.0198,-3.75792 -0.009,-1.30929 -0.0172,-2.61857 -0.0261,-3.96753 -0.0225,-3.58896 -0.0195,-7.17748 -0.0107,-10.76648 0.005,-2.99707 -0.002,-5.99405 -0.009,-8.99111 -0.017,-7.07103 -0.0134,-14.14185 0.003,-21.21287 0.0169,-7.29267 0.001,-14.58474 -0.0312,-21.87734 -0.0267,-6.26342 -0.034,-12.52666 -0.0255,-18.79013 0.005,-3.73993 0.003,-7.47949 -0.0178,-11.21937 -0.0218,-4.17075 -0.003,-8.34037 0.0198,-12.51111 -0.0175,-1.85714 -0.0175,-1.85714 -0.0354,-3.75179 0.10371,-9.30887 0.10371,-9.30887 3.07329,-12.41021 2.56352,-1.71444 3.77531,-2.37365 6.8082,-2.39845 z" fill="#fafdfd" id="path4"/>
  <path d="m 281.05303,167.1586 c 16.78453,-0.3648 27.64125,3.58013 40.30859,14.96875 1.89861,2.14863 2.53081,3.34689 2.89844,6.14843 0.66,0 1.32,0 2,0 4.56385,8.99949 5.73279,16.54007 5.6289,26.5586 8.4e-4,1.36093 0.003,2.72186 0.007,4.08278 0.003,2.82648 -0.0116,5.65216 -0.0393,8.4785 -0.0343,3.61372 -0.028,7.22603 -0.009,10.83983 0.0106,2.79941 0.002,5.5985 -0.0134,8.39789 -0.008,1.97693 -3.5e-4,3.95391 0.007,5.93084 -0.0158,1.20218 -0.0317,2.40436 -0.048,3.64296 -0.006,1.05413 -0.0124,2.10825 -0.0188,3.19432 -0.6497,3.62845 -1.89658,5.31272 -4.51466,7.87429 -2.94058,0.45702 -5.21058,0.6147 -8.125,0.5 -0.72832,0.003 -1.45664,0.005 -2.20703,0.008 -2.11328,-0.0391 -2.11328,-0.0391 -5.66797,-0.50781 -0.66,-0.99 -1.32,-1.98001 -2,-3.00001 -3.80148,0.3899 -6.68852,1.28787 -10.04687,3.01173 -5.28394,2.38747 -10.02607,2.64163 -15.76563,2.55078 -1.4514,-0.0143 -1.4514,-0.0143 -2.93213,-0.0288 -7.58788,-0.22044 -13.71055,-1.52167 -20.25537,-5.5337 -0.74121,-0.43441 -1.48242,-0.86882 -2.24609,-1.3164 -6.91303,-4.58691 -12.74967,-12.3002 -15.3125,-20.23047 -1.83676,-10.20784 -1.44444,-19.71368 4.55859,-28.45313 2.1875,-3.125 2.1875,-3.125 4,-5 0.66,0 1.32,0 2,0 0,-0.65999 0,-1.32 0,-2 10.35081,-8.45588 22.03624,-10.90046 35.14063,-10.42578 6.9006,0.7613 13.13951,3.21714 17.85937,8.42578 -0.45363,-1.58468 -0.91311,-3.16769 -1.375,-4.75 -0.25523,-0.88171 -0.51047,-1.76343 -0.77344,-2.67187 -0.78049,-2.36297 -1.57548,-4.44332 -2.85156,-6.57813 -2.29534,-1.13545 -2.29534,-1.13545 -5,-2 -0.9075,-0.5066 -1.815,-1.0132 -2.75,-1.53515 -7.68398,-3.46333 -17.19386,-2.08796 -24.99219,0.60156 -3.52365,1.45701 -6.87255,3.18052 -10.25781,4.93359 -0.66,0 -1.32,0 -2,0 0,-0.66 0,-1.32 0,-2 -0.66,0 -1.32,0 -2,0 -1.76172,-2.04687 -1.76172,-2.04687 -3.6875,-4.75 -0.96486,-1.32257 -0.96486,-1.32257 -1.94922,-2.67187 -1.36328,-2.57812 -1.36328,-2.57812 -1.24219,-4.78516 2.69264,-5.49317 12.38506,-7.78913 17.69531,-9.7541 5.43797,-1.77485 10.28896,-1.98053 15.97657,-2.15625 z" fill="#f9fdfc" id="path6"/>
  <path d="m 155.26006,315.27579 c 1.65,0 3.3,0 5,0 0.33,6.93 0.66,13.86 1,21 2.97,-2.475 2.97,-2.475 6,-5 3.65625,-0.62891 3.65625,-0.62891 7.5,-0.5625 1.26843,-0.001 2.53687,-0.003 3.84375,-0.004 5.72223,0.88645 10.00855,4.13705 13.65625,8.5664 2.90536,7.30552 3.59619,15.50483 0.9375,22.99218 -2.60441,4.77003 -5.47764,8.38701 -10.59375,10.45313 -5.3417,1.2642 -11.20924,1.76938 -16.41016,-0.24609 -2.8435,-1.77462 -3.8664,-2.99765 -4.93359,-6.19922 -0.66,0 -1.32,0 -2,0 0,1.98 0,3.96 0,6 -1.32,0 -2.64,0 -4,0 0,-18.81 0,-37.62 0,-57 z" fill="#3fa8ec" id="path8"/>
  <path d="m 230.94756,333.15079 c 3.3125,2.125 3.3125,2.125 5.3125,4.125 0,0.99 0,1.98 0,3 0.66,0 1.32,0 2,0 3.5535,5.70542 2.88661,13.92712 1.5,20.29687 -2.00814,5.15727 -5.64723,8.39263 -10.0625,11.51563 -6.69919,2.31426 -14.00021,2.24137 -20.4375,-0.8125 -4.29609,-2.82913 -7.47815,-6.03567 -9,-11 -0.80884,-7.3367 -1.24991,-14.92898 2.72265,-21.41797 6.79284,-8.41314 18.16438,-10.55322 27.96485,-5.70703 z" fill="#3ea7ed" id="path10"/>
  <path d="m 296.76006,216.40079 c 4.50194,3.37645 8.05721,7.36617 9.5,12.875 0.564,5.07605 0.69387,6.93878 -2.125,11.25 -5.01783,4.79966 -8.49512,7.22139 -15.44532,7.10156 -0.76054,-0.0335 -1.52109,-0.067 -2.30468,-0.10156 -0.78375,-0.018 -1.5675,-0.0361 -2.375,-0.0547 -1.9172,-0.0468 -3.83377,-0.11849 -5.75,-0.19531 0,-0.66 0,-1.32 0,-2 -0.72188,-0.0619 -1.44375,-0.12375 -2.1875,-0.1875 -4.74456,-1.37065 -7.1492,-4.81755 -9.8125,-8.8125 -0.64388,-6.4388 0.25084,-9.73092 4,-15 7.31522,-6.94009 17.04019,-7.91565 26.5,-4.875 z" fill="#3fa7ed" id="path12"/>
  <path d="m 338.26006,331.27579 c 5.01936,2.04276 8.16734,4.68793 11.0625,9.25 0.9375,3.75 0.9375,3.75 0.9375,13.75 -10.23,0 -20.46,0 -31,0 1.86402,6.52407 2.3031,7.90526 7,12 0.33,0.33 0.66,0.66 1,1 1.74657,0.12601 3.49892,0.17579 5.25,0.1875 0.9539,0.0142 1.90781,0.0284 2.89062,0.043 3.04905,-0.24576 5.14885,-0.8238 7.85938,-2.23047 0.66,-0.99 1.32,-1.98 2,-3 1.32,0 2.64,0 4,0 -0.33,1.98 -0.66,3.96 -1,6 -0.99,0.33 -1.98,0.66 -3,1 0,0.66 0,1.32 0,2 -6.1472,2.87101 -12.34779,2.84938 -19,2 -6.09766,-2.62396 -9.20312,-7.18249 -12,-13 -0.33,-0.66 -0.66,-1.32 -1,-2 -0.57628,-6.5829 -0.66923,-13.28563 3,-19 6.83188,-7.19513 12.02832,-9.2709 22,-8 z" fill="#e3f7fd" id="path14"/>
  <path d="m 108.51006,331.96329 c 1.10795,-0.0435 1.10795,-0.0435 2.23828,-0.0879 5.65639,-0.0649 8.91861,1.04696 13.51172,4.40039 3.19423,4.14092 3.35457,7.33419 3.29297,12.48828 -0.004,0.7032 -0.009,1.4064 -0.0129,2.1309 -0.0167,2.23151 -0.0543,4.46209 -0.0926,6.69332 -0.0151,1.51886 -0.0287,3.03775 -0.041,4.55664 -0.033,3.71058 -0.0847,7.42063 -0.14649,11.13086 -1.65,-0.33 -3.3,-0.66 -5,-1 0,-1.32 0,-2.64 0,-4 -0.59812,0.495 -1.19625,0.99 -1.8125,1.5 -2.1875,1.5 -2.1875,1.5 -5.1875,1.5 0,0.66 0,1.32 0,2 -14.04929,0.76056 -14.04929,0.76056 -19.999998,-4 -2.734297,-4.38608 -2.923257,-8.98916 -2,-14 2.329969,-3.66768 4.902731,-5.63425 8.999998,-7 2.65848,-0.12226 5.27924,-0.18512 7.9375,-0.1875 0.71608,-0.0122 1.43215,-0.0245 2.16992,-0.0371 3.79232,-0.0105 6.67858,0.10152 9.89259,2.22461 -0.25662,-1.44011 -0.53091,-2.87707 -0.8125,-4.3125 -0.15082,-0.80051 -0.30164,-1.60102 -0.45703,-2.42578 -0.82426,-2.55212 -1.63773,-3.61489 -3.73047,-5.26172 -3.22397,-1.07466 -5.67471,-1.16692 -9.0625,-1.1875 -1.06348,-0.0142 -2.12696,-0.0284 -3.22266,-0.043 -2.86346,-0.0508 -2.86346,-0.0508 -4.71484,2.23047 -1.320003,0 -2.640003,0 -4.000003,0 0.33,-1.98 0.66,-3.96 1,-6 3.765823,-1.25528 7.324443,-1.26218 11.250003,-1.3125 z" fill="#e1f7fe" id="path16"/>
  <path d="m 445.26006,31.275787 c 0.66,0 1.32,0 2,0 0,0.99 0,1.98 0,3 0.66,0 1.32,0 2,0 1.48417,5.324748 2.25108,9.952972 2.25727,15.520189 0.004,0.715842 0.007,1.431684 0.0106,2.169218 0.009,2.387148 0.004,4.774051 -4.7e-4,7.161209 0.004,1.73347 0.008,3.466938 0.0137,5.200404 0.0122,4.754978 0.012,9.509886 0.01,14.264877 -4e-4,5.131747 0.0106,10.263472 0.0201,15.395208 0.0166,10.051438 0.0221,20.102858 0.0232,30.154308 9.6e-4,8.17237 0.005,16.34473 0.0114,24.51709 0.0176,23.17892 0.0268,46.35782 0.0253,69.53675 -8e-5,1.24932 -1.6e-4,2.49865 -2.4e-4,3.78583 -8e-5,1.25085 -1.6e-4,2.5017 -2.5e-4,3.79046 -8.1e-4,20.26586 0.0183,40.53164 0.0465,60.79748 0.0287,20.81742 0.0425,41.63479 0.0408,62.45223 -6.6e-4,11.68389 0.005,23.3677 0.0264,35.05157 0.0182,9.94928 0.0225,19.89845 0.009,29.84775 -0.007,5.07314 -0.007,10.14605 0.0107,15.21917 0.0158,4.65128 0.0128,9.30216 -0.005,13.95343 -0.003,1.67564 5.3e-4,3.35131 0.0117,5.02691 0.0627,10.04849 -0.29167,19.83815 -4.51088,29.15592 -0.99,0.33 -1.98,0.66 -3,1 0.47628,-1.95904 0.95611,-3.91721 1.4375,-5.875 0.26683,-1.09055 0.53367,-2.18109 0.80859,-3.30469 0.75391,-2.82031 0.75391,-2.82031 1.75391,-4.82031 0.0984,-2.27306 0.12921,-4.54912 0.13143,-6.82431 0.002,-0.71349 0.004,-1.42699 0.006,-2.1621 0.006,-2.41519 0.004,-4.83033 0.003,-7.24552 0.003,-1.73939 0.006,-3.47878 0.009,-5.21817 0.008,-4.79905 0.01,-9.59808 0.0106,-14.39713 0.002,-5.16857 0.009,-10.33715 0.0161,-15.50572 0.0136,-11.31218 0.0196,-22.62435 0.024,-33.93653 0.003,-7.06129 0.007,-14.12259 0.0115,-21.18388 0.0122,-19.54328 0.0225,-39.08655 0.0259,-58.62984 2.2e-4,-1.25171 4.4e-4,-2.50342 6.6e-4,-3.79307 2.2e-4,-1.25475 4.4e-4,-2.5095 6.6e-4,-3.80228 4.5e-4,-2.5427 8.9e-4,-5.08541 0.001,-7.62811 2.3e-4,-1.26128 4.5e-4,-2.52255 6.8e-4,-3.82205 0.004,-20.43059 0.0214,-40.86114 0.0447,-61.29172 0.0237,-20.96636 0.0362,-41.93271 0.0374,-62.89909 9.1e-4,-11.7755 0.007,-23.55095 0.0248,-35.32644 0.0154,-10.02931 0.0205,-20.05856 0.0123,-30.087877 -0.004,-5.117122 -0.003,-10.234122 0.0111,-15.351228 0.0127,-4.68702 0.0115,-9.373825 -5.9e-4,-14.060844 -0.002,-1.693245 0.001,-3.386505 0.01,-5.079729 0.0417,-8.637503 -0.0676,-16.612512 -3.38031,-24.754365 z" fill="#4dafeb" id="path18"/>
  <path d="m 60.365277,0.02181725 c 1.494984,-0.002309 2.989967,-0.0054884 4.484947,-0.0094545 4.077121,-0.00829657 8.154148,-0.00424628 12.23127,0.0019724 4.409064,0.0045447 8.818112,-0.0024692 13.227173,-0.00795984 8.625136,-0.0088742 17.250233,-0.006980799 25.875373,-0.0011747 7.01239,0.0045243 14.02477,0.0051261 21.03716,0.0029524 0.99959,-3.0646e-4 1.99918,-6.1293e-4 3.02907,-9.2868e-4 2.0309,-6.3948e-4 4.06181,-0.0012879 6.09272,-0.0019452 19.02559,-0.005697499 38.05117,8.4552e-4 57.07676,0.01160073 16.31038,0.008935 32.62074,0.0073828 48.93113,-0.0018375 18.95941,-0.01071285 37.91881,-0.0149114594 56.87823,-0.00877547 2.02326,6.3707e-4 4.04653,0.0012658 6.06979,0.0018861 0.99538,3.0856e-4 1.99076,6.1711e-4 3.01631,9.3501e-4 7.00065,0.0017239 14.00129,-0.0011816 21.00194,-0.0058941 8.53619,-0.0056201 17.07233,-0.004068599 25.60851,0.0065615 4.35186,0.0052415 8.70367,0.00733946 13.05553,7.0169e-4 3.9897,-0.0059932 7.97929,-0.0026292 11.96898,0.0079551 1.43726,0.0022198 2.87453,0.0011299 4.31179,-0.0037516 11.42771,-0.03581226 22.7345,-0.04200173 32.6231,6.26112395 0.59683,0.3557812 1.19367,0.7115625 1.80859,1.078125 2.44053,1.4764381 4.54356,2.8990274 6.56641,4.9218744 -0.33,0.99 -0.66,1.98 -1,3 -0.72188,-0.61875 -1.44375,-1.2375 -2.1875,-1.875 -2.59632,-1.961663 -4.75922,-3.07816 -7.8125,-4.1249994 0,-0.66 0,-1.32 0,-2 -1.05595,-0.1998838 -1.05595,-0.1998838 -2.13323,-0.4038056 -1.90044,-0.3952297 -3.79118,-0.840662 -5.66778,-1.3369444 -8.51446,-2.2160523 -16.5433,-2.6830278 -25.30385,-2.6334718 -1.48276,-0.00275 -2.96552,-0.0068 -4.44828,-0.012044 -4.03877,-0.010505 -8.07732,-0.00251 -12.11608,0.00875 -4.36954,0.00889 -8.73904,3.84e-4 -13.10857,-0.00586 -8.54581,-0.00946 -17.09154,-0.00291 -25.63734,0.00926 -9.96251,0.013661 -19.92501,0.011978 -29.88753,0.00987 -17.78178,-0.00319 -35.56352,0.00846 -53.34529,0.028066 -17.23472,0.019002 -34.46938,0.026087 -51.70411,0.020508 -18.79023,-0.00606 -37.58044,-0.00587 -56.37068,0.00549 -2.00557,0.00121 -4.01115,0.00241 -6.01672,0.00362 -0.98665,6.036e-4 -1.97331,0.00121 -2.98986,0.00183 -6.93607,0.00387 -13.87213,0.00349 -20.80821,0.00159 -8.45855,-0.00213 -16.917051,0.00314 -25.375586,0.017613 -4.311487,0.00722 -8.622913,0.011343 -12.934405,0.00676 -3.953945,-0.0041 -7.907768,0.00117 -11.861695,0.013626 -1.423114,0.00291 -2.846241,0.00253 -4.269352,-0.00164 -16.820633,-0.1153106 -16.820633,-0.1153106 -32.52144,5.2042828 -0.938437,0.5040234 -1.876875,1.0080469 -2.84375,1.5273437 -2.569116,1.4847977 -5.11955,2.9956737 -7.65625,4.5351557 0,-0.99 0,-1.98 0,-3 C 29.960441,0.73716419 44.424172,-0.03232512 60.365277,0.02181725 Z" fill="#6dbde9" id="path20"/>
  <path d="m 155.26006,315.27579 c 1.65,0 3.3,0 5,0 0.33,6.93 0.66,13.86 1,21 2.97,-2.475 2.97,-2.475 6,-5 3.65625,-0.62891 3.65625,-0.62891 7.5,-0.5625 1.26843,-0.001 2.53687,-0.003 3.84375,-0.004 5.72223,0.88645 10.00855,4.13705 13.65625,8.5664 2.90536,7.30552 3.59619,15.50483 0.9375,22.99218 -2.60441,4.77003 -5.47764,8.38701 -10.59375,10.45313 -5.3417,1.2642 -11.20924,1.76938 -16.41016,-0.24609 -2.8435,-1.77462 -3.8664,-2.99765 -4.93359,-6.19922 -0.66,0 -1.32,0 -2,0 0,1.98 0,3.96 0,6 -1.32,0 -2.64,0 -4,0 0,-18.81 0,-37.62 0,-57 z m 9.9375,23.1875 c -4.71271,6.84102 -6.11851,11.43712 -4.9375,19.8125 1.83843,4.4869 3.96834,7.31222 8,10 5.62794,0.78166 11.26542,1.07272 16.125,-2.1875 2.79321,-2.18871 3.83139,-4.44009 4.875,-7.8125 0.63313,-5.88222 0.83268,-11.21128 -1.6875,-16.625 -3.13484,-3.21957 -5.75526,-5.12651 -10.25,-5.84375 -6.47778,-0.16369 -6.47778,-0.16369 -12.125,2.65625 z" fill="#daf3fd" id="path22"/>
  <path d="m 42.260057,317.27579 c 1.65,0 3.3,0 5,0 0,8.25 0,16.5 0,25 10.89,0 21.78,0 33,0 0,-8.25 0,-16.5 0,-25 1.65,0 3.3,0 5,0 0,18.48 0,36.96 0,56 -1.65,0 -3.3,0 -5,0 0,-8.91 0,-17.82 0,-27 -10.89,0 -21.78,0 -33,0 0,8.58 0,17.16 0,26 -1.65,0 -3.3,0 -5,0 0,-18.15 0,-36.3 0,-55 z" fill="#e2f9fe" id="path24"/>
  <path d="m 230.94756,333.15079 c 3.3125,2.125 3.3125,2.125 5.3125,4.125 0,0.99 0,1.98 0,3 0.66,0 1.32,0 2,0 3.5535,5.70542 2.88661,13.92712 1.5,20.29687 -2.00814,5.15727 -5.64723,8.39263 -10.0625,11.51563 -6.69919,2.31426 -14.00021,2.24137 -20.4375,-0.8125 -4.29609,-2.82913 -7.47815,-6.03567 -9,-11 -0.80884,-7.3367 -1.24991,-14.92898 2.72265,-21.41797 6.79284,-8.41314 18.16438,-10.55322 27.96485,-5.70703 z m -23.4375,8.0625 c -3.06289,5.05376 -3.08665,11.34807 -2.25,17.0625 2.34152,4.80876 5.93218,9.0694 11,11 2.72059,0.21866 5.26124,0.13926 8,0 0,-0.66 0,-1.32 0,-2 0.70125,-0.0206 1.4025,-0.0412 2.125,-0.0625 4.3481,-1.41786 6.70328,-3.94154 8.875,-7.9375 1.24587,-6.18916 0.15714,-12.54456 -3,-18 -2.91885,-3.59243 -4.31437,-4.76246 -8.88282,-5.40625 -6.59583,-0.19447 -11.23967,0.22043 -15.86718,5.34375 z" fill="#d8f3fd" id="path26"/>
  <path d="m 373.26006,331.27579 c 1.65,0 3.3,0 5,0 0.33,1.65 0.66,3.3 1,5 0.76312,-0.63938 1.52625,-1.27875 2.3125,-1.9375 5.06404,-3.88636 10.53086,-3.70547 16.6875,-3.0625 5.93444,2.96722 8.92013,6.80007 11,13 0.22705,3.13794 0.22705,3.13794 0.19531,6.61328 -0.006,1.24717 -0.0129,2.49433 -0.0195,3.7793 -0.0168,1.29357 -0.0335,2.58714 -0.0508,3.91992 -0.009,1.31291 -0.0181,2.62582 -0.0273,3.97851 -0.0235,3.23652 -0.0564,6.47266 -0.0977,9.70899 -1.98,0 -3.96,0 -6,0 -0.014,-1.27847 -0.014,-1.27847 -0.0283,-2.58277 -0.0442,-3.17807 -0.10583,-6.35519 -0.1792,-9.53271 -0.0281,-1.37227 -0.0494,-2.7447 -0.0635,-4.11719 -0.0215,-1.97872 -0.0703,-3.95708 -0.11963,-5.9353 -0.021,-1.18876 -0.0419,-2.37752 -0.0635,-3.6023 -0.64467,-3.81411 -1.86805,-5.48955 -4.54589,-8.22973 -2.76452,-1.38226 -5.04614,-1.09526 -8.125,-1.0625 -1.09571,0.009 -2.19141,0.018 -3.32031,0.0273 -0.84305,0.0116 -1.6861,0.0232 -2.55469,0.0352 0,0.66 0,1.32 0,2 -0.66,0 -1.32,0 -2,0 -0.30938,0.80437 -0.61875,1.60875 -0.9375,2.4375 -1.0625,2.5625 -1.0625,2.5625 -2.0625,3.5625 -0.15826,1.99782 -0.25119,4.00089 -0.31641,6.0039 -0.0419,1.21495 -0.0838,2.42989 -0.12695,3.68164 -0.0393,1.2794 -0.0786,2.55879 -0.11914,3.87696 -0.0432,1.28326 -0.0864,2.56652 -0.13086,3.88867 -0.10649,3.18283 -0.2085,6.36573 -0.30664,9.54883 -1.65,0 -3.3,0 -5,0 0,-13.53 0,-27.06 0,-41 z" fill="#ceeffd" id="path28"/>
  <path d="m 276.26006,332.27579 c 1.65,0 3.3,0 5,0 8.72551,23.78877 8.72551,23.78877 12,34 3.17386,-5.78096 5.13299,-11.4835 6.98828,-17.80469 1.1341,-3.58184 2.55115,-6.91262 4.17969,-10.29297 0.85166,-1.94724 1.37514,-3.83019 1.83203,-5.90234 1.98,0 3.96,0 6,0 -1.96925,6.91087 -4.27192,13.61644 -6.875,20.3125 -0.71235,1.84371 -1.42459,3.68746 -2.13672,5.53125 -0.34209,0.88301 -0.68417,1.76601 -1.03662,2.67578 -0.82233,2.14336 -1.62341,4.29209 -2.40869,6.44922 -5.52759,15.02099 -5.52759,15.02099 -11.54297,19.03125 -2.69922,0.19531 -2.69922,0.19531 -5.6875,0.125 -0.99387,-0.018 -1.98774,-0.0361 -3.01172,-0.0547 -1.13889,-0.0348 -1.13889,-0.0348 -2.30078,-0.0703 -0.33,-1.32 -0.66,-2.64 -1,-4 2.7439,-0.56492 5.39482,-1.03871 8.1875,-1.3125 2.82952,-0.4164 2.82952,-0.4164 4.25,-2.25 1.53273,-6.64184 -1.17725,-13.01488 -3.6875,-19.0625 -0.6329,-1.57757 -1.26439,-3.15571 -1.89453,-4.73438 -0.31276,-0.77795 -0.62552,-1.5559 -0.94776,-2.35742 -1.33857,-3.36695 -2.60264,-6.75448 -3.84521,-10.1582 -0.4009,-1.09055 -0.8018,-2.1811 -1.21485,-3.30469 -0.84765,-2.82031 -0.84765,-2.82031 -0.84765,-6.82031 z" fill="#dbf4fd" id="path30"/>
  <path d="m 418.26006,499.27579 c 0.66,0.99 1.32,1.98 2,3 -6.68753,2.00901 -12.84276,2.30497 -19.80127,2.31884 -1.16289,0.01 -2.32577,0.0201 -3.5239,0.0305 -3.85254,0.0309 -7.70502,0.0479 -11.55764,0.0648 -2.72901,0.0177 -5.458,0.0383 -8.18699,0.0587 -5.75161,0.0415 -11.50322,0.0759 -17.25491,0.10538 -7.90238,0.0404 -15.80463,0.0935 -23.70691,0.14928 -35.32297,0.24724 -70.64451,0.32656 -105.96838,0.2726 0,-0.66 0,-1.32 0,-2 -29.04,0 -58.08,0 -88,0 0,-0.33 0,-0.66 0,-1 0.54907,-0.001 1.09814,-0.003 1.66384,-0.004 32.58437,-0.0808 65.1687,-0.17175 97.753,-0.27594 3.91753,-0.0125 7.83506,-0.0249 11.75259,-0.0373 0.77987,-0.002 1.55974,-0.005 2.36324,-0.007 12.60673,-0.0397 25.21346,-0.0724 37.82021,-0.10265 12.94777,-0.0312 25.89551,-0.0698 38.84324,-0.11529 7.98135,-0.0278 15.96267,-0.0499 23.94405,-0.0645 6.13309,-0.0118 12.2661,-0.0341 18.39914,-0.0601 2.50648,-0.009 5.01296,-0.0148 7.51945,-0.0168 18.06172,0.0144 18.06172,0.0144 35.94124,-2.31579 z" fill="#47a4dd" id="path32"/>
  <path d="m 1.2600574,393.27579 c 0.33,0 0.66,0 1,0 0.7434358,8.5443 1.1721748,17.03467 1.28125,25.60937 0.037729,2.32292 0.075491,4.64584 0.1132813,6.96875 0.053971,3.61457 0.1062836,7.22915 0.1577148,10.84375 0.051473,3.52091 0.1087329,7.04169 0.1665039,10.5625 0.013575,1.0915 0.027151,2.18299 0.041138,3.30756 0.016717,0.99904 0.033435,1.99809 0.050659,3.0274 0.012528,0.88235 0.025056,1.76469 0.037964,2.67377 -0.067958,2.00474 -0.067958,2.00474 1.151489,3.0069 0.1546875,1.88718 0.1546875,1.88718 0.3125,3.8125 0.9922819,9.30079 3.605856,17.00115 10.2968746,23.66406 1.390625,1.52344 1.390625,1.52344 1.390625,3.52344 0.598125,0.10312 1.19625,0.20625 1.8125,0.3125 2.500083,0.78574 3.562851,1.65669 5.1875,3.6875 0,0.66 0,1.32 0,2 1.034473,0.18563 1.034473,0.18563 2.089844,0.375 3.230609,0.69382 6.32147,1.63181 9.472656,2.625 3.463464,1.08909 6.901977,2.17015 10.4375,3 0,0.66 0,1.32 0,2 -9.826056,-0.5949 -17.620832,-2.82988 -26,-8 0,-0.66 0,-1.32 0,-2 -0.589102,-0.0928 -1.178203,-0.18563 -1.785156,-0.28125 -6.160394,-1.99914 -10.2942819,-9.901 -13.1523436,-15.36328 -5.19724258,-11.52183 -5.18560758,-22.93991 -4.94140623,-35.35547 0.0243423,-1.44588 0.0481837,-2.89176 0.0715485,-4.33765 0.0624327,-3.78117 0.13161189,-7.56218 0.20225525,-11.3432 0.0710553,-3.86803 0.1356486,-7.73617 0.20080566,-11.60431 C 0.98424572,408.4189 1.119867,400.84731 1.2600574,393.27579 Z" fill="#4baae4" id="path34"/>
  <path d="m 1.2600574,244.27579 c 0.33,0 0.66,0 1,0 0.955138,10.83354 1.1632194,21.57432 1.1679688,32.4414 0.00323,1.77466 0.00659,3.54931 0.010086,5.32396 0.00596,3.71567 0.00784,7.43132 0.00725,11.14699 -8.03e-5,3.72564 0.00671,7.45115 0.020508,11.17676 0.09145,25.04154 -0.5386149,49.92236 -2.2058128,74.91089 -0.32999998,0 -0.65999998,0 -0.99999998,0 -0.023345,-17.15885 -0.040987,-34.31769 -0.051812,-51.47655 -0.00516,-7.96689 -0.012196,-15.93377 -0.023627,-23.90065 -0.00996,-6.94273 -0.016417,-13.88545 -0.018649,-20.82819 -0.00131,-3.67719 -0.00438,-7.35437 -0.011642,-11.03156 -0.00803,-4.10177 -0.00826,-8.20351 -0.0078,-12.30529 -0.00539,-1.83527 -0.00539,-1.83527 -0.010895,-3.70761 0.00137,-1.11479 0.00275,-2.22958 0.00417,-3.37816 -9.218e-4,-0.97065 -0.00184,-1.94129 -0.00279,-2.94136 0.123045,-2.43063 0.123045,-2.43063 1.12304498,-5.43063 z" fill="#49afee" id="path36"/>
  <path d="m 118.38506,352.94766 c 1.625,0.82812 1.625,0.82812 3.875,2.32812 -0.41077,5.23725 -1.18286,8.29192 -5,12 -3.141,1.08122 -6.19477,1.19552 -9.5,1.25 -0.93844,0.0258 -1.87688,0.0516 -2.84375,0.0781 -3.13204,-0.3869 -4.46141,-1.07739 -6.656253,-3.32812 -0.871935,-6.86649 -0.871935,-6.86649 1.875003,-10.43751 5.06287,-3.7227 12.31031,-3.76861 18.25,-1.89062 z" fill="#46aceb" id="path38"/>
  <path d="m 338.26006,336.27579 c 3.29174,2.43589 4.74768,4.62152 7,8 0,1.98 0,3.96 0,6 -8.91,0 -17.82,0 -27,0 1.12983,-6.77898 1.12983,-6.77898 3.4375,-9.8125 0.43183,-0.58395 0.86367,-1.16789 1.30859,-1.76953 3.61107,-4.08355 10.31281,-3.01829 15.25391,-2.41797 z" fill="#4aaded" id="path40"/>
  <path d="m 108.51006,331.96329 c 1.10795,-0.0435 1.10795,-0.0435 2.23828,-0.0879 5.63247,-0.0646 9.03655,0.885 13.51172,4.40039 3.26123,6.49574 2.21816,14.33895 2.125,21.4375 -0.009,1.30388 -0.0181,2.60777 -0.0273,3.95117 -0.0235,3.20397 -0.0563,6.40755 -0.0977,9.61133 -1.485,-0.495 -1.485,-0.495 -3,-1 -0.66,-4.95 -1.32,-9.9 -2,-15 -0.99,-0.33 -1.98,-0.66 -3,-1 -0.33,-0.66 -0.66,-1.32 -1,-2 -3.01434,-0.39299 -3.01434,-0.39299 -6.5,-0.5 -3.59375,-0.15625 -3.59375,-0.15625 -6.5,-0.5 -0.33,-0.66 -0.66,-1.32 -1,-2 2.60423,-0.027 5.20819,-0.0468 7.8125,-0.0625 0.73799,-0.008 1.47597,-0.0168 2.23633,-0.0254 3.25039,-0.0147 5.84522,0.0526 8.95117,1.08789 -0.25662,-1.44011 -0.53091,-2.87707 -0.8125,-4.3125 -0.15082,-0.80051 -0.30164,-1.60102 -0.45703,-2.42578 -0.82426,-2.55212 -1.63773,-3.61489 -3.73047,-5.26172 -3.22397,-1.07466 -5.67471,-1.16692 -9.0625,-1.1875 -1.06348,-0.0142 -2.12696,-0.0284 -3.22266,-0.043 -2.86346,-0.0508 -2.86346,-0.0508 -4.71484,2.23047 -1.320003,0 -2.640003,0 -4.000003,0 0.33,-1.98 0.66,-3.96 1,-6 3.765823,-1.25528 7.324443,-1.26218 11.250003,-1.3125 z" fill="#f0fbfc" id="path42"/>
  <path d="m 151.26006,206.27579 c 10.85906,-0.0309 10.85906,-0.0309 21.9375,-0.0625 2.288,-0.009 4.57601,-0.0182 6.93335,-0.0276 1.80216,-0.003 3.60433,-0.005 5.40649,-0.008 0.94492,-0.005 1.88985,-0.0102 2.8634,-0.0155 1.3398,-1.8e-4 1.3398,-1.8e-4 2.70667,-3.7e-4 0.77943,-0.002 1.55887,-0.004 2.36192,-0.007 1.79067,0.12026 1.79067,0.12026 2.79067,1.12026 0.0935,1.65738 0.11745,3.31874 0.11352,4.97876 -7e-5,1.06102 -1.5e-4,2.12205 -2.3e-4,3.21522 -0.005,1.15415 -0.0103,2.3083 -0.0156,3.49742 -0.001,1.17498 -0.003,2.34995 -0.004,3.56054 -0.006,3.77021 -0.0182,7.54036 -0.0309,11.31056 -0.005,2.54882 -0.01,5.09765 -0.0137,7.64648 -0.011,6.26369 -0.0278,12.52735 -0.0488,18.79102 -0.33,0 -0.66,0 -1,0 -1.17778,-5.56695 -1.12761,-10.98915 -1.09766,-16.64844 0.001,-1.01253 0.003,-2.02506 0.004,-3.06827 0.006,-3.21946 0.0181,-6.43885 0.0309,-9.65829 0.005,-2.1888 0.01,-4.37761 0.0137,-6.56641 0.0101,-5.35291 0.0297,-10.70567 0.0488,-16.05859 -13.53,0 -27.06,0 -41,0 0,17.49 0,34.98 0,53 -0.66,0 -1.32,0 -2,0 0,-18.15 0,-36.3 0,-55 z" fill="#73bbe8" id="path44"/>
  <path d="m 248.26006,315.27579 c 1.65,0 3.3,0 5,0 0,18.81 0,37.62 0,57 -1.65,0 -3.3,0 -5,0 0,-18.81 0,-37.62 0,-57 z" fill="#f5fefe" id="path46"/>
  <path d="m 108.26006,335.90079 c 1.01062,-0.008 2.02125,-0.0155 3.0625,-0.0234 4.29218,0.58218 6.91341,2.37435 9.9375,5.39844 0.41406,2.16406 0.41406,2.16406 0.625,4.625 0.0748,0.81726 0.14953,1.63453 0.22656,2.47656 0.0735,0.93973 0.0735,0.93973 0.14844,1.89844 -0.49629,-0.15985 -0.99258,-0.31969 -1.50391,-0.48438 -3.47105,-0.71702 -6.90465,-0.73989 -10.43359,-0.76562 -0.70319,-0.0206 -1.40637,-0.0412 -2.13086,-0.0625 -4.5502,-0.0341 -7.26145,0.63589 -10.931643,3.3125 -0.66,0.33 -1.32,0.66 -2,1 0.375,-2.4375 0.375,-2.4375 1,-5 0.66,-0.33 1.32,-0.66 2,-1 -0.33,-0.66 -0.66,-1.32 -1,-2 0.33,-0.99 0.66,-1.98 1,-3 0.66,0 1.32,0 2.000003,0 0,-0.66 0,-1.32 0,-2 -0.990003,-0.33 -1.980003,-0.66 -3.000003,-1 3.798703,-2.63954 6.385533,-3.41032 11.000003,-3.375 z" fill="#41a9ed" id="path48"/>
  <path d="m 349.26006,344.27579 c 0.33,0 0.66,0 1,0 0,3.3 0,6.6 0,10 -10.23,0 -20.46,0 -31,0 1.86402,6.52407 2.3031,7.90526 7,12 0.33,0.33 0.66,0.66 1,1 1.74657,0.12601 3.49892,0.17579 5.25,0.1875 1.43086,0.0213 1.43086,0.0213 2.89062,0.043 3.04905,-0.24576 5.14885,-0.8238 7.85938,-2.23047 0.66,-0.99 1.32,-1.98 2,-3 1.32,0 2.64,0 4,0 -0.33,1.98 -0.66,3.96 -1,6 -0.99,0.33 -1.98,0.66 -3,1 0,0.66 0,1.32 0,2 -6.1472,2.87101 -12.34779,2.84938 -19,2 -6.09766,-2.62396 -9.20312,-7.18249 -12,-13 -0.33,-0.66 -0.66,-1.32 -1,-2 -0.0703,-1.8738 -0.0843,-3.75001 -0.0625,-5.625 0.009,-1.00289 0.0181,-2.00578 0.0273,-3.03907 0.0116,-0.77085 0.0232,-1.54171 0.0352,-2.33593 0.33,0 0.66,0 1,0 0.0606,0.71027 0.12117,1.42054 0.18359,2.15234 0.0838,0.9191 0.16758,1.8382 0.25391,2.78516 0.0812,0.91652 0.16242,1.83304 0.24609,2.77734 0.0769,2.24675 0.0769,2.24675 1.31641,3.28516 0.66,-1.65 1.32,-3.3 2,-5 10.23,0 20.46,0 31,0 0,-2.97 0,-5.94 0,-9 z" fill="#daf4fd" id="path50"/>
  <path d="m 357.26006,332.27579 c 1.98,0 3.96,0 6,0 0,13.2 0,26.4 0,40 -1.98,0 -3.96,0 -6,0 0,-13.2 0,-26.4 0,-40 z" fill="#d6f2fc" id="path52"/>
  <path d="m 155.26006,316.27579 c 1.32,0 2.64,0 4,0 0.16768,3.93745 0.33397,7.87497 0.5,11.8125 0.0477,1.11955 0.0954,2.2391 0.14453,3.39258 0.0451,1.07314 0.0902,2.14628 0.13672,3.25195 0.0628,1.48464 0.0628,1.48464 0.12695,2.99927 0.14252,3.94914 -0.1098,6.05929 -1.9082,9.5437 0,0.66 0,1.32 0,2 0.33,0 0.66,0 1,0 0.99,5.28 1.98,10.56 3,16 -0.99,0 -1.98,0 -3,0 0,2.31 0,4.62 0,7 -1.32,0 -2.64,0 -4,0 0,-18.48 0,-36.96 0,-56 z" fill="#edfcfe" id="path54"/>
  <path d="m 263.26006,332.27579 c 1.65,0 3.3,0 5,0 0,13.2 0,26.4 0,40 -1.65,0 -3.3,0 -5,0 0,-13.2 0,-26.4 0,-40 z" fill="#e3f9fe" id="path56"/>
  <path d="m 327.26006,193.27579 c 3.10773,4.6616 4.25038,7.39259 4.29052,13.06616 0.0191,1.83727 0.0191,1.83727 0.0387,3.71165 0.002,1.31985 0.004,2.63969 0.007,3.99953 0.006,1.37236 0.0132,2.74472 0.0202,4.11708 0.012,2.87401 0.0157,5.7479 0.0145,8.62193 -2e-4,3.67661 0.0271,7.35243 0.0615,11.02885 0.0223,2.83366 0.0263,5.66714 0.0252,8.50088 0.003,2.01244 0.0251,4.02483 0.0471,6.03715 -0.006,1.228 -0.0123,2.456 -0.0187,3.72121 0.003,1.07826 0.006,2.15651 0.009,3.26744 -0.6208,3.67617 -1.84036,5.34433 -4.49447,7.92812 -2.94059,0.45702 -5.21058,0.6147 -8.125,0.5 -0.72832,0.003 -1.45664,0.005 -2.20703,0.008 -2.11329,-0.0391 -2.11329,-0.0391 -5.66797,-0.5078 -0.66,-0.99 -1.32,-1.98 -2,-3 -3.08366,-0.25022 -3.08366,-0.25022 -6,0 0,-0.66 0,-1.32 0,-2 3.465,-0.495 3.465,-0.495 7,-1 0,0.66 0,1.32 0,2 0.66,0 1.32,0 2,0 0,0.66 0,1.32 0,2 7.92,-0.495 7.92,-0.495 16,-1 0.0226,-8.22367 0.041,-16.44732 0.0518,-24.67101 0.005,-3.81907 0.0123,-7.63811 0.0236,-11.45717 0.0109,-3.68934 0.0168,-7.37867 0.0194,-11.06803 0.002,-1.40372 0.005,-2.80744 0.0109,-4.21114 0.007,-1.97432 0.008,-3.94865 0.008,-5.92297 0.002,-1.12141 0.004,-2.24282 0.007,-3.39821 -0.12799,-3.48166 -0.57059,-6.83321 -1.12026,-10.27147 z" fill="#c1e8fb" id="path58"/>
  <path d="m 80.260057,317.27579 c 1.65,0 3.3,0 5,0 0,18.48 0,36.96 0,56 -1.65,0 -3.3,0 -5,0 0,-8.91 0,-17.82 0,-27 0.33,0 0.66,0 1,0 0,7.92 0,15.84 0,24 0.66,0 1.32,0 2,0 0,-16.83 0,-33.66 0,-51 -0.66,0 -1.32,0 -2,0 0,7.59 0,15.18 0,23 -0.33,0 -0.66,0 -1,0 0,-8.25 0,-16.5 0,-25 z" fill="#cef2fe" id="path60"/>
  <path d="m 129.26006,121.27579 c 3.27076,-0.058 6.54138,-0.0936 9.8125,-0.125 0.92877,-0.0168 1.85754,-0.0335 2.81445,-0.0508 0.89268,-0.006 1.78535,-0.0129 2.70508,-0.0195 0.82218,-0.0105 1.64436,-0.0209 2.49145,-0.0317 2.17652,0.22705 2.17652,0.22705 5.17652,2.22705 1.00951,3.02854 1.12104,5.04005 1.11352,8.20581 -7e-5,1.06087 -1.5e-4,2.12174 -2.3e-4,3.21477 -0.005,1.14382 -0.0103,2.28765 -0.0156,3.46614 -0.001,1.17214 -0.003,2.34429 -0.004,3.55195 -0.006,3.74964 -0.0182,7.49921 -0.0309,11.24883 -0.005,2.53971 -0.01,5.07942 -0.0137,7.61914 -0.0102,6.23116 -0.0297,12.46219 -0.0488,18.69336 13.86,0 27.72,0 42,0 0,0.66 0,1.32 0,2 -14.19,0 -28.38,0 -43,0 -0.0142,-3.85172 -0.0284,-7.70344 -0.043,-11.67188 -0.0306,-3.72665 -0.0697,-7.45312 -0.10962,-11.17969 -0.0232,-2.59173 -0.0376,-5.18355 -0.043,-7.77539 -0.009,-3.72391 -0.0502,-7.44632 -0.0974,-11.16992 0.004,-1.16054 0.008,-2.32108 0.0119,-3.51678 0.0274,-6.22537 0.0274,-6.22537 -3.0002,-11.41095 -2.53,-1.18685 -4.16261,-1.8004 -6.92578,-1.88477 -1.12632,-0.0483 -1.12632,-0.0483 -2.27539,-0.0977 -0.76893,-0.0142 -1.53786,-0.0284 -2.33008,-0.043 -0.78826,-0.0297 -1.57653,-0.0593 -2.38867,-0.0898 -1.93241,-0.0703 -3.86562,-0.11752 -5.79883,-0.16015 0,-0.33 0,-0.66 0,-1 z" fill="#53a5d9" id="path62"/>
  <path d="m 319.26006,341.27579 c -0.33,2.97 -0.66,5.94 -1,9 9.24,-0.33 18.48,-0.66 28,-1 0.33,-1.65 0.66,-3.3 1,-5 0.66,0 1.32,0 2,0 0,2.97 0,5.94 0,9 -15.345,0.495 -15.345,0.495 -31,1 -0.33,1.65 -0.66,3.3 -1,5 -0.99,-0.66 -1.98,-1.32 -3,-2 -0.4336,-2.9336 -0.4336,-2.9336 -0.4375,-6.4375 -0.029,-1.73057 -0.029,-1.73057 -0.0586,-3.4961 0.4961,-3.0664 0.4961,-3.0664 2.46094,-4.97656 2.03516,-1.08984 2.03516,-1.08984 3.03516,-1.08984 z" fill="#f0fdfe" id="path64"/>
  <path d="m 81.260057,319.27579 c 0.66,0 1.32,0 2,0 0,16.83 0,33.66 0,51 -0.66,0 -1.32,0 -2,0 -0.495,-11.88 -0.495,-11.88 -1,-24 -14.85,-0.495 -14.85,-0.495 -30,-1 0.33,-0.66 0.66,-1.32 1,-2 9.57,-0.33 19.14,-0.66 29,-1 0.33,-7.59 0.66,-15.18 1,-23 z" fill="#f8fcfd" id="path66"/>
  <path d="m 2.2600574,342.27579 c 0.33,0 0.66,0 1,0 0,21.12 0,42.24 0,64 -0.33,0 -0.66,0 -1,0 -0.33,13.2 -0.66,26.4 -1,40 -0.32999998,0 -0.65999998,0 -0.99999998,0 -0.060973,-10.39579 -0.1018704,-20.79156 -0.125,-31.1875 -0.00171,-0.76411 -0.00342,-1.52821 -0.00519,-2.31547 -0.0466575,-23.55491 0.281423,-47.00147 2.13018998,-70.49703 z" fill="#43a2d8" id="path68"/>
  <path d="m 125.26006,124.27579 c 0.66,0.33 1.32,0.66 2,1 -0.99,1.485 -0.99,1.485 -2,3 -0.31188,2.51061 -0.31188,2.51061 -0.27848,5.37199 -0.0112,1.11479 -0.0223,2.22959 -0.0338,3.37816 -0.002,1.22351 -0.004,2.44702 -0.007,3.70761 -0.01,1.28791 -0.0201,2.57582 -0.0304,3.90276 -0.0273,3.53275 -0.0425,7.06547 -0.0554,10.5983 -0.0156,3.69161 -0.0424,7.38315 -0.068,11.0747 -0.0468,6.99098 -0.0836,13.98198 -0.11667,20.97304 -0.0382,7.95885 -0.0876,15.91763 -0.13799,23.87641 -0.10336,16.37229 -0.1926,32.74462 -0.27259,49.11703 0.66,0 1.32,0 2,0 0.495,2.475 0.495,2.475 1,5 -0.66,0 -1.32,0 -2,0 -2.25295,-3.37943 -2.25095,-4.50927 -2.25397,-8.4657 -0.006,-1.1357 -0.0113,-2.2714 -0.0171,-3.44151 0.004,-1.24685 0.008,-2.4937 0.0123,-3.77834 -0.004,-1.31235 -0.007,-2.6247 -0.0106,-3.97682 -0.009,-3.60118 -0.006,-7.20226 7.6e-4,-10.80344 0.005,-3.76625 3.7e-4,-7.53248 -0.003,-11.29872 -0.004,-6.32509 0.001,-12.65013 0.0107,-18.97522 0.0109,-7.31579 0.007,-14.63147 -0.004,-21.94726 -0.009,-6.27777 -0.0104,-12.55551 -0.005,-18.83329 0.003,-3.75094 0.004,-7.50182 -0.003,-11.25276 -0.007,-4.18053 0.003,-8.36087 0.0138,-12.5414 -0.004,-1.24685 -0.008,-2.4937 -0.0123,-3.77833 0.006,-1.1357 0.0113,-2.2714 0.0171,-3.44151 7.6e-4,-0.98888 0.002,-1.97775 0.002,-2.99659 0.25168,-2.46911 0.25168,-2.46911 2.25168,-5.46911 z" fill="#c6f0fe" id="path70"/>
  <path d="m 220.26006,122.27579 c 2.475,0.495 2.475,0.495 5,1 0,45.54 0,91.08 0,138 -0.33,0 -0.66,0 -1,0 -0.002,-0.69814 -0.005,-1.39628 -0.007,-2.11558 -0.0591,-16.9753 -0.13461,-33.95044 -0.22848,-50.92558 -0.045,-8.20901 -0.0844,-16.41797 -0.11072,-24.62706 -0.023,-7.15376 -0.0563,-14.30738 -0.10226,-21.46104 -0.024,-3.78899 -0.0427,-7.57784 -0.0489,-11.36691 -0.006,-3.5648 -0.026,-7.12924 -0.0567,-10.69391 -0.013,-1.93527 -0.0112,-3.87062 -0.009,-5.80592 -0.0125,-1.14845 -0.0251,-2.2969 -0.038,-3.48015 -0.005,-1.00015 -0.009,-2.00029 -0.014,-3.03075 -0.44055,-2.85457 -1.14644,-3.74085 -3.38476,-5.4931 z" fill="#6ab3e0" id="path72"/>
  <path d="m 231.26006,334.27579 c 2.5,1.3125 2.5,1.3125 5,3 0,0.99 0,1.98 0,3 0.66,0 1.32,0 2,0 2.26364,3.61105 2.26808,6.66983 2.25,10.875 0.005,1.19367 0.0103,2.38734 0.0156,3.61718 -0.26428,3.49012 -1.01199,6.25435 -2.26562,9.50782 -0.33,-1.32 -0.66,-2.64 -1,-4 -2.23409,0.884 -2.23409,0.884 -3.375,3.4375 -1.72737,2.72392 -2.57308,3.63767 -5.625,4.5625 -2.25,-0.375 -2.25,-0.375 -4,-1 1.36125,-0.58781 1.36125,-0.58781 2.75,-1.1875 3.61529,-2.01622 5.24574,-3.18942 7.25,-6.8125 0.68722,-5.70102 -0.0214,-11.37319 -1,-17 0.66,0 1.32,0 2,0 -1.11855,-3.72614 -1.11855,-3.72614 -4,-6 0,-0.66 0,-1.32 0,-2 z" fill="#c6ebfc" id="path74"/>
  <path d="m 307.26006,331.27579 c 1.98,0 3.96,0 6,0 0,0.99 0,1.98 0,3 0.99,-0.33 1.98,-0.66 3,-1 0.66,0.66 1.32,1.32 2,2 -0.41304,2.78799 -1.41043,4.99185 -2.5,7.625 -1.81792,4.69998 -2.20296,9.37642 -2.5,14.375 -0.66,0 -1.32,0 -2,0 0,-2.97 0,-5.94 0,-9 -1.32,0.33 -2.64,0.66 -4,1 -0.10313,0.7425 -0.20625,1.485 -0.3125,2.25 -0.73004,2.92014 -1.7554,4.48187 -3.6875,6.75 0.76064,-4.72349 2.33158,-9.07595 3.9375,-13.5625 0.2649,-0.75475 0.5298,-1.50949 0.80273,-2.28711 1.24528,-3.50718 2.54636,-6.84014 4.25977,-10.15039 -1.65,0 -3.3,0 -5,0 0,-0.33 0,-0.66 0,-1 z" fill="#4dade7" id="path76"/>
  <path d="m 296.76006,216.40079 c 4.50194,3.37645 8.05721,7.36617 9.5,12.875 0.30952,2.80782 0.23085,5.13745 0,8 -1.51953,1.74218 -1.51953,1.74218 -3,3 0.0348,-0.83145 0.0696,-1.66289 0.10547,-2.51953 0.0406,-1.63002 0.0406,-1.63002 0.082,-3.29297 0.0348,-1.07895 0.0696,-2.15789 0.10547,-3.26953 -0.33017,-3.28843 -0.84908,-3.87308 -3.29297,-5.91797 -0.6875,-2.6875 -0.6875,-2.6875 -1,-5 -0.66,0 -1.32,0 -2,0 0,-0.66 0,-1.32 0,-2 -7.74306,-1.58832 -14.30436,-2.10287 -21.33985,1.85547 -3.2519,2.2419 -4.43229,4.46093 -5.66015,8.14453 -0.66,0 -1.32,0 -2,0 0.66,3.96 1.32,7.92 2,12 -4,-4 -4,-4 -4.5,-7.8125 0.30885,-5.71915 2.78818,-9.56347 6.9375,-13.5 7.23057,-4.7616 15.87559,-5.19401 24.0625,-2.5625 z" fill="#61afdf" id="path78"/>
  <path d="m 248.26006,315.27579 c 1.65,0 3.3,0 5,0 0,18.81 0,37.62 0,57 -1.65,0 -3.3,0 -5,0 0,-18.81 0,-37.62 0,-57 z m 1,2 c 0,17.49 0,34.98 0,53 1.485,-0.495 1.485,-0.495 3,-1 0,-17.16 0,-34.32 0,-52 -0.99,0 -1.98,0 -3,0 z" fill="#c3effe" id="path80"/>
  <path d="m 69.260057,505.27579 c 0.33,0 0.66,0 1,0 0.01546,0.92961 0.01546,0.92961 0.03123,1.878 0.108032,6.43995 0.222633,12.87975 0.34108,19.31951 0.04336,2.40459 0.08503,4.80921 0.125,7.21386 0.05768,3.45282 0.12138,6.90547 0.186279,10.35816 0.01671,1.0782 0.03342,2.15641 0.05064,3.26729 0.01995,1.00081 0.03989,2.00162 0.06044,3.03276 0.01554,0.88158 0.03109,1.76316 0.0471,2.67146 0.07569,2.42667 0.07569,2.42667 1.158218,5.25896 2.475,-0.495 2.475,-0.495 5,-1 0.33,-0.99 0.66,-1.98 1,-3 2.0625,-0.6875 2.0625,-0.6875 4,-1 -0.491379,4.24639 -1.572724,6.05358 -4.8125,8.8125 -0.68707,0.60457 -1.37414,1.20914 -2.082031,1.83203 -2.105469,1.35547 -2.105469,1.35547 -6.105469,1.35547 0,-19.8 0,-39.6 0,-60 z" fill="#4ba4dc" id="path82"/>
  <path d="m 155.26006,315.27579 c 1.65,0 3.3,0 5,0 0.33,6.93 0.66,13.86 1,21 2.97,-2.475 2.97,-2.475 6,-5 2.375,0.1875 2.375,0.1875 4,1 -0.99,0 -1.98,0 -3,0 0,0.99 0,1.98 0,3 3.3,0 6.6,0 10,0 0,0.33 0,0.66 0,1 -0.66387,0.0142 -1.32774,0.0284 -2.01172,0.043 -5.93018,0.3187 -5.93018,0.3187 -10.98828,3.26953 -2.99425,4.02352 -4.22881,6.91907 -4.625,11.9375 -0.11215,1.33804 -0.11215,1.33804 -0.22657,2.70312 -0.049,0.67547 -0.098,1.35094 -0.14843,2.04688 -0.33,0 -0.66,0 -1,0 -0.33,-1.98 -0.66,-3.96 -1,-6 -0.99,0.495 -0.99,0.495 -2,1 0,-1.65 0,-3.3 0,-5 0.66,0 1.32,0 2,0 1.12516,-1.83285 1.12516,-1.83285 2,-4 -0.33,-0.99 -0.66,-1.98 -1,-3 -0.0821,-1.77314 -0.10747,-3.54921 -0.0977,-5.32422 0.005,-1.54204 0.005,-1.54204 0.01,-3.11524 0.008,-1.07185 0.0168,-2.14371 0.0254,-3.24804 0.005,-1.08346 0.009,-2.16692 0.0137,-3.28321 0.0118,-2.67648 0.0282,-5.35286 0.0488,-8.02929 -1.32,-0.33 -2.64,-0.66 -4,-1 z" fill="#ceebfa" id="path84"/>
  <path d="m 108.51006,331.96329 c 1.10795,-0.0435 1.10795,-0.0435 2.23828,-0.0879 5.64141,-0.0647 8.83026,1.26084 13.51172,4.40039 -0.99,0.495 -0.99,0.495 -2,1 -2.125,-0.9375 -2.125,-0.9375 -4,-2 0.33,1.32 0.66,2.64 1,4 -0.69739,-0.32485 -1.39477,-0.64969 -2.11328,-0.98438 -3.19839,-1.12527 -5.69312,-1.28242 -9.07422,-1.26562 -1.56815,-0.008 -1.56815,-0.008 -3.16797,-0.0156 -2.80035,-4.9e-4 -2.80035,-4.9e-4 -4.64453,2.26563 -1.320003,0 -2.640003,0 -4.000003,0 0.33,-1.98 0.66,-3.96 1,-6 3.765823,-1.25528 7.324443,-1.26218 11.250003,-1.3125 z" fill="#f0fcfe" id="path86"/>
  <path d="m 405.26006,343.27579 c 0.66,0 1.32,0 2,0 0.84843,6.56699 1.12561,12.9455 1.0625,19.5625 -0.005,0.9133 -0.009,1.8266 -0.0137,2.76758 -0.0117,2.22337 -0.028,4.44661 -0.0488,6.66992 -1.32,0 -2.64,0 -4,0 -0.0247,-3.96931 -0.0428,-7.93859 -0.0549,-11.90796 -0.005,-1.35125 -0.0119,-2.70249 -0.0205,-4.05371 -0.0121,-1.93854 -0.0173,-3.87711 -0.0222,-5.81568 -0.005,-1.16781 -0.0105,-2.33562 -0.0159,-3.53881 0.11353,-2.68384 0.11353,-2.68384 1.11353,-3.68384 z" fill="#f5fefe" id="path88"/>
  <path d="m 235.26006,360.27579 c 0.66,0 1.32,0 2,0 0.3125,2.1875 0.3125,2.1875 0,5 -3.14155,3.88073 -6.28433,6.37095 -11,8 -4.01368,0.2364 -7.98482,0.17542 -12,0 -0.33,-1.32 -0.66,-2.64 -1,-4 1.0248,-0.10957 2.04961,-0.21914 3.10547,-0.33203 1.36075,-0.15954 2.72142,-0.31973 4.08203,-0.48047 0.67353,-0.0703 1.34707,-0.14051 2.04101,-0.21289 4.26469,-0.52009 7.31712,-1.39673 10.77149,-3.97461 1.32793,-2.06701 1.32793,-2.06701 2,-4 z" fill="#ebfafe" id="path90"/>
  <path d="m 200.26006,337.27579 c 0.66,0.66 1.32,1.32 2,2 -0.27224,2.00923 -0.61891,4.00855 -1,6 -0.13858,2.5184 -0.21946,5.04047 -0.25,7.5625 -0.0258,1.28004 -0.0516,2.56008 -0.0781,3.8789 0.34601,3.75251 1.22837,5.50289 3.32813,8.5586 0,0.66 0,1.32 0,2 1.32,0.66 2.64,1.32 4,2 -1.98,0.495 -1.98,0.495 -4,1 -0.43313,-0.66 -0.86625,-1.32 -1.3125,-2 -0.83532,-0.99 -0.83532,-0.99 -1.6875,-2 -0.99,0 -1.98,0 -3,0 0,-6.93 0,-13.86 0,-21 -1.84839,3.69678 -1.87229,8.06218 -2.40235,12.1289 -0.19722,0.94746 -0.39445,1.89493 -0.59765,2.8711 -0.66,0.33 -1.32,0.66 -2,1 1.37357,-18.22552 1.37357,-18.22552 7,-24 z" fill="#4eace6" id="path92"/>
  <path d="m 300.82256,194.21329 c 1.20656,0.0309 1.20656,0.0309 2.4375,0.0625 3,6.5 3,6.5 3,11 -0.99,-0.33 -1.98,-0.66 -3,-1 0,-0.66 0,-1.32 0,-2 -0.71028,-0.20496 -1.42055,-0.40992 -2.15235,-0.6211 -0.9191,-0.26941 -1.8382,-0.53882 -2.78515,-0.8164 -0.91653,-0.26684 -1.83305,-0.53367 -2.77735,-0.8086 -2.28515,-0.7539 -2.28515,-0.7539 -3.28515,-1.7539 -2.69236,-0.23679 -5.36498,-0.42198 -8.0625,-0.5625 -0.75862,-0.0432 -1.51723,-0.0864 -2.29883,-0.13086 -1.87933,-0.10638 -3.75897,-0.20704 -5.63867,-0.30664 0,-0.33 0,-0.66 0,-1 0.63091,-0.0251 1.26183,-0.0501 1.91186,-0.0759 2.84211,-0.11561 5.68385,-0.2385 8.52564,-0.36157 0.99322,-0.0393 1.98644,-0.0786 3.00976,-0.11914 0.94424,-0.0419 1.88848,-0.0838 2.86133,-0.12696 0.87455,-0.0366 1.7491,-0.0733 2.65015,-0.11108 2.688,-0.27038 2.72,-1.19749 5.60376,-1.26782 z" fill="#3aa2ed" id="path94"/>
  <path d="m 125.26006,339.27579 c 2,2 2,2 2.22705,5.16455 -3.2e-4,1.34363 -0.0116,2.68728 -0.0317,4.03076 -0.003,0.70744 -0.006,1.41489 -0.009,2.14377 -0.0112,2.26214 -0.0363,4.52389 -0.0617,6.78592 -0.01,1.53254 -0.0192,3.0651 -0.0273,4.59765 -0.0221,3.75927 -0.0566,7.51824 -0.0977,11.27735 -1.65,-0.33 -3.3,-0.66 -5,-1 0,-1.32 0,-2.64 0,-4 -0.5775,0.35062 -1.155,0.70125 -1.75,1.0625 -2.73471,1.13946 -3.44925,0.65769 -6.25,-0.0625 -1.74887,-0.0662 -3.50003,-0.0855 -5.25,-0.0625 -1.33805,0.0135 -1.33805,0.0135 -2.70313,0.0273 -0.67547,0.0116 -1.35093,0.0232 -2.04687,0.0352 0,-0.33 0,-0.66 0,-1 0.89203,-0.0748 1.78406,-0.14953 2.70312,-0.22657 6.45011,-0.43647 6.45011,-0.43647 12.01563,-3.24218 1.17776,-1.80159 1.17776,-1.80159 2.28125,-4.53125 0.33,0 0.66,0 1,0 0.12117,0.71027 0.24234,1.42054 0.36718,2.15234 0.16758,0.9191 0.33516,1.8382 0.50782,2.78516 0.24363,1.37478 0.24363,1.37478 0.49218,2.77734 0.20883,0.7541 0.41766,1.5082 0.63282,2.28516 0.66,0.33 1.32,0.66 2,1 -0.33,-10.56 -0.66,-21.12 -1,-32 z" fill="#bae4fa" id="path96"/>
  <path d="m 103.26006,533.27579 c 1.32,0.33 2.64,0.66 4,1 -1.66667,1.66666 -3.33334,3.33333 -5,5 -0.72188,0.76312 -1.44375,1.52625 -2.1875,2.3125 -1.812503,1.6875 -1.812503,1.6875 -3.812503,1.6875 -0.33,0.99 -0.66,1.98 -1,3 -4.457143,4 -4.457143,4 -7,4 -0.33,0.99 -0.66,1.98 -1,3 -1.32,-0.33 -2.64,-0.66 -4,-1 1.618864,-1.67263 3.245273,-3.33796 4.875,-5 1.357383,-1.39219 1.357383,-1.39219 2.742187,-2.8125 2.382813,-2.1875 2.382813,-2.1875 4.382813,-2.1875 0.2475,-0.63938 0.495,-1.27875 0.75,-1.9375 1.25,-2.0625 1.25,-2.0625 3.375,-2.8125 0.618753,-0.0825 1.237503,-0.165 1.875003,-0.25 0,-0.66 0,-1.32 0,-2 0.66,0 1.32,0 2,0 0,-0.66 0,-1.32 0,-2 z" fill="#4ea8e3" id="path98"/>
  <path d="m 110.44756,348.21329 c 0.74959,0.005 1.49918,0.009 2.27148,0.0137 1.84704,0.0118 3.69404,0.0297 5.54102,0.0488 0,0.33 0,0.66 0,1 -4.62,0.33 -9.24,0.66 -14,1 3.18656,0.18562 3.18656,0.18562 6.4375,0.375 3.62109,0.21093 3.62109,0.21093 6.5625,0.625 0.33,0.66 0.66,1.32 1,2 -0.96422,-0.0116 -1.92844,-0.0232 -2.92188,-0.0352 -1.26328,-0.009 -2.52656,-0.0181 -3.82812,-0.0273 -1.87946,-0.0174 -1.87946,-0.0174 -3.79688,-0.0352 -3.8402,0.0546 -3.8402,0.0546 -7.45312,1.09766 -0.330003,0.99 -0.660003,1.98 -1.000003,3 -1.65,-0.33 -3.3,-0.66 -5,-1 0,2.97 0,5.94 0,9 -0.33,0 -0.66,0 -1,0 -0.91181,-8.544 -0.91181,-8.544 1.230469,-11.96485 4.883254,-4.93148 9.190104,-5.17448 15.957034,-5.09765 z" fill="#d9f5fe" id="path100"/>
  <path d="m 150.26006,207.27579 c 0.33,0 0.66,0 1,0 0.076,7.75954 0.12858,15.51898 0.16479,23.27881 0.0151,2.64033 0.0356,5.28064 0.0615,7.92089 0.0363,3.79287 0.0534,7.58541 0.0667,11.37842 0.0155,1.18242 0.031,2.36483 0.0469,3.58307 2.2e-4,1.10084 4.5e-4,2.20168 6.8e-4,3.33588 0.007,0.96818 0.0133,1.93637 0.0202,2.9339 -0.4239,3.01867 -1.26185,4.38726 -3.36076,6.56903 -2.26831,0.4541 -2.26831,0.4541 -4.88672,0.39062 -0.93779,-0.0129 -1.87559,-0.0258 -2.8418,-0.0391 -0.97646,-0.0335 -1.95293,-0.067 -2.95898,-0.10156 -0.98807,-0.018 -1.97614,-0.0361 -2.99414,-0.0547 -2.44043,-0.0472 -4.87891,-0.11295 -7.31836,-0.19531 0,-0.33 0,-0.66 0,-1 6.6,0 13.2,0 20,0 0,-0.99 0,-1.98 0,-3 0.99,-0.495 0.99,-0.495 2,-1 0.33,-17.82 0.66,-35.64 1,-54 z" fill="#dcf8fe" id="path102"/>
  <path d="m 222.82256,332.15079 c 1.15629,-0.003 2.31258,-0.005 3.5039,-0.008 2.9336,0.13282 2.9336,0.13282 4.9336,1.13282 0,0.99 0,1.98 0,3 1.32,0.66 2.64,1.32 4,2 0,1.32 0,2.64 0,4 -1.75,-0.1875 -1.75,-0.1875 -4,-1 -0.53625,-0.83532 -1.0725,-1.67063 -1.625,-2.53125 -2.26158,-2.86862 -2.26158,-2.86862 -6.26563,-2.95703 -1.45393,0.033 -2.90746,0.0924 -4.35937,0.17578 -1.11762,0.0338 -1.11762,0.0338 -2.25782,0.0684 -1.83159,0.0587 -3.66215,0.14838 -5.49218,0.24414 3.12996,-4.69494 6.26387,-4.13684 11.5625,-4.125 z" fill="#effbfe" id="path104"/>
  <path d="m 270.26006,317.27579 c -0.0326,2.01823 -0.0651,4.03646 -0.0977,6.05468 -0.0288,2.02717 -0.0288,2.02717 1.09766,3.94532 -1.32,-0.66 -2.64,-1.32 -4,-2 0,-0.66 0,-1.32 0,-2 -1.32,0 -2.64,0 -4,0 0,-1.98 0,-3.96 0,-6 2.66664,-1.33332 4.1668,-0.67102 7,0 z m -6,9 c 2,0.1875 2,0.1875 4,1 0.66,0.99 1.32,1.98 2,3 -0.66,0 -1.32,0 -2,0 0,0.66 0,1.32 0,2 -1.65,0 -3.3,0 -5,0 -0.625,-1.875 -0.625,-1.875 -1,-4 0.66,-0.66 1.32,-1.32 2,-2 z" fill="#52aeea" id="path106"/>
  <path d="m 375.26006,333.27579 c 0.66,0 1.32,0 2,0 0,1.98 0,3.96 0,6 0.99,0 1.98,0 3,0 -0.33,0.99 -0.66,1.98 -1,3 -0.66,0 -1.32,0 -2,0 0,9.24 0,18.48 0,28 -0.66,0 -1.32,0 -2,0 0,-12.21 0,-24.42 0,-37 z" fill="#f9fcfb" id="path108"/>
  <path d="m 306.26006,332.27579 c 1.98,0 3.96,0 6,0 -1.76463,6.10737 -3.69558,12.07433 -6,18 -0.66,-1.32 -1.32,-2.64 -2,-4 -0.66,0 -1.32,0 -2,0 -0.33,1.32 -0.66,2.64 -1,4 -0.33,-0.66 -0.66,-1.32 -1,-2 0.71301,-1.98832 1.52018,-3.9434 2.375,-5.875 2.17684,-4.94181 2.17684,-4.94181 3.625,-10.125 z" fill="#d4f3fd" id="path110"/>
  <path d="m 67.260057,505.27579 c 0.66,0 1.32,0 2,0 0,19.8 0,39.6 0,60 0.66,0 1.32,0 2,0 0.33,-0.66 0.66,-1.32 1,-2 0,0.99 0,1.98 0,3 -1.9375,0.5625 -1.9375,0.5625 -4,1 -1,-1 -1,-1 -1.120254,-3.43605 0.0022,-1.08144 0.0044,-2.16288 0.0067,-3.27709 7.5e-5,-1.22119 1.51e-4,-2.44238 2.29e-4,-3.70057 0.0051,-1.34257 0.01032,-2.68513 0.01564,-4.0277 0.0019,-1.3662 0.0033,-2.73241 0.0043,-4.09862 0.0038,-3.60199 0.01365,-7.20394 0.0247,-10.80592 0.01021,-3.67309 0.01479,-7.34619 0.01984,-11.01929 0.01074,-7.2116 0.02781,-14.42318 0.04883,-21.63476 z" fill="#4ab4f1" id="path112"/>
  <path d="m 391.13506,335.96329 c 0.86367,-0.0374 1.72734,-0.0748 2.61718,-0.11328 2.50782,0.42578 2.50782,0.42578 6.50782,4.42578 -7.425,-0.99 -7.425,-0.99 -15,-2 -0.66,1.32 -1.32,2.64 -2,4 -1,2 -1,2 -2,4 -0.66,0 -1.32,0 -2,0 0,8.58 0,17.16 0,26 -0.33,0 -0.66,0 -1,0 -0.11652,-4.37478 -0.18736,-8.74915 -0.25,-13.125 -0.0335,-1.2375 -0.067,-2.475 -0.10157,-3.75 -0.11053,-10.27978 -0.11053,-10.27978 2.24219,-13.99219 0.6961,-0.70383 1.39219,-1.40766 2.10938,-2.13281 0.66,0 1.32,0 2,0 0,-0.66 0,-1.32 0,-2 2.42961,-1.21481 4.16384,-1.23608 6.875,-1.3125 z" fill="#70b9e8" id="path114"/>
  <path d="m 219.94756,331.21329 c 1.76924,0.0135 1.76924,0.0135 3.57422,0.0273 0.90363,0.0116 1.80726,0.0232 2.73828,0.0352 0,0.33 0,0.66 0,1 -4.29,0.66 -8.58,1.32 -13,2 0,0.33 0,0.66 0,1 0.98742,-0.0348 1.97484,-0.0696 2.99218,-0.10547 1.28133,-0.0271 2.56266,-0.0541 3.88282,-0.082 1.91426,-0.0522 1.91426,-0.0522 3.86718,-0.10547 1.61262,0.14502 1.61262,0.14502 3.25782,0.29297 0.99,1.485 0.99,1.485 2,3 -0.99,-0.33 -1.98,-0.66 -3,-1 -1.97654,-0.11954 -3.95739,-0.17526 -5.9375,-0.1875 -1.04028,-0.0142 -2.08055,-0.0284 -3.15235,-0.043 -4.0507,0.32079 -6.06354,1.38385 -8.91015,4.23047 0,-1.32 0,-2.64 0,-4 -1.70841,1.63412 -2.93453,2.86906 -4,5 -0.66,0 -1.32,0 -2,0 1.43821,-5.03373 3.90245,-6.98956 8,-10 3.42233,-1.14078 6.08673,-1.09815 9.6875,-1.0625 z" fill="#cef0fd" id="path116"/>
  <path d="m 239.26006,358.27579 c 1.61149,4.02872 0.56619,7.08453 -1,11 -2.1875,1.75 -2.1875,1.75 -5,3 -0.99,0.55687 -1.98,1.11375 -3,1.6875 -5.32998,2.27918 -11.32906,1.54275 -17,1.3125 0,-0.66 0,-1.32 0,-2 -1.32,0 -2.64,0 -4,0 0.33,-0.66 0.66,-1.32 1,-2 0.54011,0.15855 1.08023,0.31711 1.63672,0.48047 6.07768,1.33608 13.01235,1.78203 18.48828,-1.48047 0.94875,-0.66 1.8975,-1.32 2.875,-2 0.66,0 1.32,0 2,0 1.73662,-3.22516 2.89059,-6.51329 4,-10 z" fill="#63b3e5" id="path118"/>
  <path d="m 124.26006,516.27579 c 0.99,0.66 1.98,1.32 3,2 -1.26572,1.15147 -2.53778,2.29599 -3.8125,3.4375 -0.7077,0.63808 -1.41539,1.27617 -2.14453,1.93359 -2.04297,1.62891 -2.04297,1.62891 -5.04297,2.62891 0,0.66 0,1.32 0,2 -4.35294,4 -4.35294,4 -8,4 1.50098,-3.11743 3.02432,-6.15502 5,-9 0.99,0 1.98,0 3,0 0,-0.66 0,-1.32 0,-2 0.94875,-0.45375 1.8975,-0.9075 2.875,-1.375 3.12813,-1.42739 3.12813,-1.42739 5.125,-3.625 z" fill="#4ca8e4" id="path120"/>
  <path d="m 400.26006,340.27579 c 1.48169,1.0852 1.48169,1.0852 3,3 0.34057,3.00268 0.34057,3.00268 0.29297,6.63672 -0.01,1.29873 -0.0193,2.59746 -0.0293,3.93554 -0.0251,1.37175 -0.0505,2.7435 -0.0762,4.11524 -0.0151,1.38345 -0.0287,2.76691 -0.041,4.15039 -0.0354,3.38776 -0.0848,6.77474 -0.14648,10.16211 -0.66,0 -1.32,0 -2,0 -1.07542,-12.42493 -1.07542,-12.42493 -1,-18.0625 0.16402,-3.65374 0.16402,-3.65374 -0.52735,-5.98047 -0.67688,-2.80263 -0.0433,-5.16697 0.52735,-7.95703 z" fill="#4fa8e2" id="path122"/>
  <path d="m 309.26006,338.27579 c 0.33,0 0.66,0 1,0 0,1.98 0,3.96 0,6 1.32,0 2.64,0 4,0 -0.33,4.29 -0.66,8.58 -1,13 -0.66,0 -1.32,0 -2,0 0,-2.97 0,-5.94 0,-9 -1.32,0.33 -2.64,0.66 -4,1 -0.10313,0.7425 -0.20625,1.485 -0.3125,2.25 -0.73004,2.92014 -1.7554,4.48187 -3.6875,6.75 0.74682,-4.42083 2.1171,-8.58157 3.5625,-12.8125 0.23396,-0.69287 0.46793,-1.38574 0.70898,-2.09961 0.57343,-1.69689 1.1506,-3.39252 1.72852,-5.08789 z" fill="#55ace2" id="path124"/>
  <path d="m 287.19756,212.96329 c 1.2259,-0.0374 2.45179,-0.0748 3.71484,-0.11328 3.87316,0.49261 4.97694,1.41337 7.34766,4.42578 -0.69223,-0.15985 -1.38446,-0.31969 -2.09766,-0.48438 -6.3988,-1.1368 -13.21971,-1.4258 -19.40234,0.67188 -2.80467,2.03338 -5.12016,4.30044 -7.5,6.8125 -0.99,0.495 -0.99,0.495 -2,1 0.33,-1.65 0.66,-3.3 1,-5 1.32,-0.33 2.64,-0.66 4,-1 0,-0.99 0,-1.98 0,-3 1.65,0 3.3,0 5,0 0,-0.66 0,-1.32 0,-2 3.45334,-1.15112 6.29894,-1.23996 9.9375,-1.3125 z" fill="#cff1fd" id="path126"/>
  <path d="m 191.26006,348.27579 c 2.38973,3.58459 2.14045,4.80772 1.75,9 -0.0877,1.05187 -0.17532,2.10375 -0.26563,3.1875 -0.48437,2.8125 -0.48437,2.8125 -2.48437,5.8125 -1.32,0 -2.64,0 -4,0 0,0.66 0,1.32 0,2 -0.66,0 -1.32,0 -2,0 0.33,-1.65 0.66,-3.3 1,-5 0.66,0 1.32,0 2,0 1.76892,-4.92772 2.93181,-9.88635 4,-15 z" fill="#f0fcfd" id="path128"/>
  <path d="m 287.26006,361.27579 c 0.99,0.33 1.98,0.66 3,1 0,0.66 0,1.32 0,2 0.66,0 1.32,0 2,0 0.66,1.65 1.32,3.3 2,5 0.33,0 0.66,0 1,0 0,2.31 0,4.62 0,7 -1.32,0.33 -2.64,0.66 -4,1 -1.92472,-5.33836 -3.39892,-10.3498 -4,-16 z" fill="#f3fbfc" id="path130"/>
  <path d="m 253.26006,207.27579 c 0.66,0.33 1.32,0.66 2,1 -0.33,0.66 -0.66,1.32 -1,2 -0.66,0 -1.32,0 -2,0 -0.11473,0.5775 -0.22946,1.155 -0.34766,1.75 -0.70614,2.43555 -1.69902,4.13694 -3.08984,6.25 -3.47237,5.30702 -4.8276,8.77167 -5.1875,15.25 -0.0748,1.26328 -0.14953,2.52656 -0.22657,3.82812 -0.049,0.96422 -0.098,1.92844 -0.14843,2.92188 -0.33,0 -0.66,0 -1,0 -0.65943,-11.81107 0.24784,-19.21121 7.1875,-29.125 0.59812,-0.61875 1.19625,-1.2375 1.8125,-1.875 0.66,0 1.32,0 2,0 0,-0.66 0,-1.32 0,-2 z" fill="#c9eefc" id="path132"/>
  <path d="m 185.26006,334.27579 c 0,0.99 0,1.98 0,3 -0.94875,-0.14438 -1.8975,-0.28875 -2.875,-0.4375 -4.69241,-0.67448 -9.40635,-1.11627 -14.125,-1.5625 0,-0.99 0,-1.98 0,-3 5.71081,-1.90361 11.52069,-0.0547 17,2 z" fill="#e9fafe" id="path134"/>
  <path d="m 271.26006,242.27579 c 3.46941,0.45822 6.67395,0.89131 10,2 6.0375,0.29621 12.07672,0.31628 18,-1 -1.6939,2.31316 -3.02006,3.83186 -5.92383,4.33008 -2.28646,0.0633 -4.54101,0.0185 -6.82617,-0.0801 -1.18916,-0.0271 -1.18916,-0.0271 -2.40235,-0.0547 -1.94974,-0.047 -3.89885,-0.11872 -5.84765,-0.19531 0,-0.66 0,-1.32 0,-2 -1.17563,-0.18563 -1.17563,-0.18563 -2.375,-0.375 -2.625,-0.625 -2.625,-0.625 -4.625,-2.625 z" fill="#6bb7e2" id="path136"/>
  <path d="m 129.26006,121.27579 c 3.27076,-0.058 6.54138,-0.0936 9.8125,-0.125 0.92877,-0.0168 1.85754,-0.0335 2.81445,-0.0508 0.89268,-0.006 1.78535,-0.0129 2.70508,-0.0195 0.82218,-0.0105 1.64436,-0.0209 2.49145,-0.0317 2.17652,0.22705 2.17652,0.22705 5.17652,2.22705 1.03947,3.11843 1.11495,5.27475 1.09765,8.54297 -0.003,1.07314 -0.006,2.14629 -0.01,3.25195 -0.008,1.11955 -0.0168,2.2391 -0.0254,3.39258 -0.005,1.13115 -0.009,2.2623 -0.0137,3.42773 -0.0118,2.79498 -0.0282,5.58985 -0.0488,8.38477 -0.33,0 -0.66,0 -1,0 -0.004,-0.67579 -0.008,-1.35158 -0.0125,-2.04785 -0.0329,-3.06827 -0.10359,-6.13455 -0.17505,-9.20215 -0.006,-1.06348 -0.0116,-2.12696 -0.0176,-3.22266 -0.09,-6.02285 -0.09,-6.02285 -2.79492,-11.21484 -3.99518,-1.74789 -7.49038,-1.9828 -11.8125,-2.0625 -0.78826,-0.0297 -1.57653,-0.0593 -2.38867,-0.0898 -1.93241,-0.0703 -3.86562,-0.11752 -5.79883,-0.16015 0,-0.33 0,-0.66 0,-1 z" fill="#54a7dc" id="path138"/>
  <path d="m 97.260057,330.27579 c 3.229143,-0.0292 6.458263,-0.0469 9.687503,-0.0625 0.91201,-0.008 1.82402,-0.0168 2.76367,-0.0254 0.88623,-0.003 1.77246,-0.006 2.68555,-0.01 0.8117,-0.005 1.62341,-0.0105 2.45971,-0.0159 2.55221,0.12055 4.91383,0.55358 7.40357,1.11353 0.33,1.32 0.66,2.64 1,4 -0.77602,-0.32742 -1.55203,-0.65485 -2.35157,-0.99219 -4.75232,-1.31274 -9.12232,-1.2237 -14.02343,-1.13281 -0.92684,0.009 -1.85367,0.018 -2.8086,0.0273 -2.2724,0.0234 -4.544264,0.0562 -6.816403,0.0977 -0.33,0.66 -0.66,1.32 -1,2 0.33,-1.65 0.66,-3.3 1,-5 z" fill="#55ace1" id="path140"/>
  <path d="m 284.57256,197.21329 c 0.74056,0.005 1.48113,0.009 2.24414,0.0137 1.81449,0.0117 3.62893,0.0296 5.44336,0.0488 0.33,0.66 0.66,1.32 1,2 -1.77504,0.0735 -1.77504,0.0735 -3.58594,0.14843 -11.42822,0.49986 -11.42822,0.49986 -22.66406,2.54688 -1.75,0.30469 -1.75,0.30469 -3.75,-0.69531 1.21687,-0.47438 2.43375,-0.94875 3.6875,-1.4375 0.68449,-0.26684 1.36898,-0.53367 2.07422,-0.8086 5.18674,-1.74702 10.11542,-1.87955 15.55078,-1.8164 z" fill="#c7ecfb" id="path142"/>
  <path d="m 285.26006,346.27579 c 2.4781,2.4781 2.99297,4.54847 4.0625,7.875 0.3416,1.04929 0.6832,2.09859 1.03515,3.17969 0.70693,2.30745 1.35211,4.59689 1.90235,6.94531 -0.61875,-0.18563 -1.2375,-0.37125 -1.875,-0.5625 -2.1666,-0.67436 -2.1666,-0.67436 -4.125,0.5625 -0.99,-3.3 -1.98,-6.6 -3,-10 0.99,0 1.98,0 3,0 -0.33,-2.64 -0.66,-5.28 -1,-8 z" fill="#d3f0fc" id="path144"/>
  <path d="m 118.38506,352.94766 c 1.625,0.82812 1.625,0.82812 3.875,2.32812 0,1.65 0,3.3 0,5 -0.23461,-0.6239 -0.46922,-1.24781 -0.71094,-1.89062 -1.65729,-2.71194 -2.90322,-2.99914 -5.91406,-3.85938 -0.81727,-0.24234 -1.63453,-0.48469 -2.47657,-0.73437 -0.62648,-0.17016 -1.25296,-0.34032 -1.89843,-0.51563 0,0.99 0,1.98 0,3 -5.41539,1.23077 -5.41539,1.23077 -8.375,0.0625 -0.53625,-0.35062 -1.0725,-0.70125 -1.625,-1.0625 0,0.66 0,1.32 0,2 -0.66,-0.33 -1.320003,-0.66 -2.000003,-1 4.975683,-5.20185 12.316833,-5.48071 19.125003,-3.32812 z" fill="#66b7ea" id="path146"/>
  <path d="m 118.26006,339.27579 c 3,2 3,2 3.51172,4.16406 0.058,0.81211 0.11601,1.62422 0.17578,2.46094 0.0986,1.2259 0.0986,1.2259 0.19922,2.47656 0.0374,0.62648 0.0748,1.25297 0.11328,1.89844 -0.51047,-0.1534 -1.02094,-0.3068 -1.54688,-0.46485 -3.22806,-0.70421 -6.4073,-0.88403 -9.70312,-1.09765 -1.26328,-0.0838 -2.52657,-0.16758 -3.82813,-0.25391 -0.96422,-0.0606 -1.92843,-0.12117 -2.92187,-0.18359 0,-0.33 0,-0.66 0,-1 0.99902,-0.049 1.99804,-0.098 3.02734,-0.14844 1.29035,-0.0748 2.5807,-0.14953 3.91016,-0.22656 1.28777,-0.0696 2.57554,-0.13922 3.90234,-0.21094 1.04285,-0.13664 2.0857,-0.27328 3.16016,-0.41406 0.33,-0.66 0.66,-1.32 1,-2 -0.99,0 -1.98,0 -3,0 0.66,-1.65 1.32,-3.3 2,-5 z" fill="#6cbaea" id="path148"/>
  <path d="m 52.260057,502.27579 c 5.28,0 10.56,0 16,0 0.33,0.99 0.66,1.98 1,3 -5.61,0 -11.22,0 -17,0 0,-0.99 0,-1.98 0,-3 z" fill="#49a7e2" id="path150"/>
  <path d="m 168.26006,326.27579 c 0.33,0.99 0.66,1.98 1,3 0.96422,0.049 1.92843,0.098 2.92187,0.14843 1.89492,0.11215 1.89492,0.11215 3.82813,0.22657 1.87945,0.10441 1.87945,0.10441 3.79687,0.21093 3.06311,0.3673 4.87287,0.81118 7.45313,2.41407 -0.33,0.66 -0.66,1.32 -1,2 -0.50403,-0.32614 -1.00805,-0.65227 -1.52735,-0.98828 -3.41371,-1.39677 -6.35949,-1.23875 -10.03515,-1.19922 -0.67225,6.4e-4 -1.34449,0.001 -2.03711,0.002 -3.06452,0.0274 -5.47311,0.20979 -8.40039,1.18555 0.60183,-2.02046 1.27306,-4.02111 2,-6 0.66,-0.33 1.32,-0.66 2,-1 z" fill="#57ade4" id="path152"/>
  <path d="m 298.26006,217.27579 c 2.8125,0.5625 2.8125,0.5625 6,2 1.8125,3.375 1.8125,3.375 3,7 0.34031,0.99 0.34031,0.99 0.6875,2 0.58126,3.72007 1.02244,7.58012 -0.6875,11 -0.66,0 -1.32,0 -2,0 0.0696,-0.9436 0.0696,-0.9436 0.14062,-1.90625 0.34753,-8.24143 -1.86954,-13.76846 -7.14062,-20.09375 z" fill="#daf5fd" id="path154"/>
  <path d="m 278.39287,165.17813 c 0.80566,0.003 1.61133,0.006 2.4414,0.01 1.26264,0.0126 1.26264,0.0126 2.55078,0.0254 0.8495,0.005 1.69899,0.009 2.57422,0.0137 2.10029,0.0118 4.20055,0.0297 6.30079,0.0488 0,0.66 0,1.32 0,2 -7.92001,0.33 -15.84001,0.66 -24.00001,1 6.25,-3.125 6.25,-3.125 10.13282,-3.09765 z" fill="#51a8df" id="path156"/>
  <path d="m 12.260057,16.275787 c 0.99,0.33 1.98,0.66 3,1 -0.470507,0.629063 -0.941015,1.258125 -1.425781,1.90625 -3.809552,5.237149 -6.6282729,9.912511 -8.5742186,16.09375 -0.33,0 -0.66,0 -1,0 -0.8158277,-6.254679 1.2281055,-9.768258 4.4921875,-15.058593 0.7463672,-0.960997 0.7463672,-0.960997 1.5078121,-1.941407 0.66,0 1.32,0 2,0 0,-0.66 0,-1.32 0,-2 z" fill="#61b2ea" id="path158"/>
  <path d="m 442.26006,479.27579 c 0.33,0 0.66,0 1,0 0.38613,2.62571 0.38494,4.38439 -1.04297,6.66797 -1.33203,1.64453 -1.33203,1.64453 -3.95703,4.33203 -0.66,0 -1.32,0 -2,0 -0.33,0.99 -0.66,1.98 -1,3 -1.32,0 -2.64,0 -4,0 1.09119,-3.27359 1.75639,-3.83094 4.375,-5.875 2.96645,-2.43152 4.81376,-4.70377 6.625,-8.125 z" fill="#52aae3" id="path160"/>
  <path d="m 183.26006,339.27579 c 2.30115,0.92046 3.71516,1.58065 5.125,3.65625 1.16441,3.11896 1.06638,5.77464 1,9.09375 -0.0181,1.17047 -0.0361,2.34094 -0.0547,3.54687 -0.0348,1.33805 -0.0348,1.33805 -0.0703,2.70313 -0.33,0 -0.66,0 -1,0 -0.33,-2.64 -0.66,-5.28 -1,-8 -2.475,-0.99 -2.475,-0.99 -5,-2 0.495,-0.45375 0.99,-0.9075 1.5,-1.375 1.72609,-1.50136 1.72609,-1.50136 1.5,-3.625 -0.66,-0.33 -1.32,-0.66 -2,-1 0,-0.99 0,-1.98 0,-3 z" fill="#5fb2e6" id="path162"/>
  <path d="m 319.26006,354.27579 c 10.23,0 20.46,0 31,0 0,0.33 0,0.66 0,1 -9.57,0 -19.14,0 -29,0 0.33,2.31 0.66,4.62 1,7 -1.5,-1.1875 -1.5,-1.1875 -3,-3 0,-1.65 0,-3.3 0,-5 z" fill="#58aadf" id="path164"/>
  <path d="m 236.26006,342.27579 c 0.66,0 1.32,0 2,0 0.88863,3.08155 1.1926,5.92043 1.25,9.125 0.0258,0.86883 0.0516,1.73765 0.0781,2.63281 -0.10828,0.73992 -0.21656,1.47984 -0.32812,2.24219 -0.99,0.66 -1.98,1.32 -3,2 -0.19389,-2.47882 -0.3804,-4.95781 -0.5625,-7.4375 -0.0561,-0.70705 -0.11215,-1.4141 -0.16992,-2.14258 -0.12949,-1.8042 -0.2028,-3.61224 -0.26758,-5.41992 0.33,-0.33 0.66,-0.66 1,-1 z" fill="#f1fdfc" id="path166"/>
  <path d="m 183.26006,368.27579 c -0.33,1.32 -0.66,2.64 -1,4 -1.95826,0.0269 -3.91662,0.0464 -5.875,0.0625 -1.09055,0.0116 -2.1811,0.0232 -3.30469,0.0352 -2.82031,-0.0977 -2.82031,-0.0977 -4.82031,-1.09765 0,-0.66 0,-1.32 0,-2 2.12492,-0.1676 4.24994,-0.33405 6.375,-0.5 1.18336,-0.0928 2.36672,-0.18563 3.58593,-0.28125 1.67694,-0.12071 3.3578,-0.21875 5.03907,-0.21875 z" fill="#f3fdfd" id="path168"/>
  <path d="m 199.26006,348.27579 c 0.33,0 0.66,0 1,0 0.0374,0.80824 0.0748,1.61648 0.11328,2.44922 0.0657,1.06863 0.13148,2.13726 0.19922,3.23828 0.058,1.05574 0.11601,2.11148 0.17578,3.19922 0.55165,3.35622 1.67045,5.2946 3.51172,8.11328 0,0.66 0,1.32 0,2 1.32,0.66 2.64,1.32 4,2 -1.32,0.33 -2.64,0.66 -4,1 -0.43313,-0.66 -0.86625,-1.32 -1.3125,-2 -0.83532,-0.99 -0.83532,-0.99 -1.6875,-2 -0.99,0 -1.98,0 -3,0 0.495,-8.91 0.495,-8.91 1,-18 z" fill="#61b4e9" id="path170"/>
  <path d="m 176.26006,331.27579 c 5.32683,-0.50732 7.82527,0.73282 12,4 1.36887,1.29682 2.71693,2.61823 4,4 -0.33,0.66 -0.66,1.32 -1,2 -1.32,-0.99 -2.64,-1.98 -4,-3 -0.33,0.99 -0.66,1.98 -1,3 -1.32,-1.32 -2.64,-2.64 -4,-4 0.99,0 1.98,0 3,0 0,-0.99 0,-1.98 0,-3 -4.455,-0.99 -4.455,-0.99 -9,-2 0,-0.33 0,-0.66 0,-1 z" fill="#ceeffe" id="path172"/>
  <path d="m 340.26006,330.27579 c 0,0.66 0,1.32 0,2 -0.94102,-0.0348 -1.88203,-0.0696 -2.85157,-0.10547 -1.24523,-0.0271 -2.49046,-0.0541 -3.77343,-0.082 -1.22977,-0.0348 -2.45953,-0.0696 -3.72657,-0.10547 -3.91251,0.31417 -6.28913,1.3239 -9.64843,3.29297 0,-1.32 0,-2.64 0,-4 6.2012,-2.6816 13.57134,-3.14289 20,-1 z" fill="#58abe0" id="path174"/>
  <path d="m 203.26006,345.27579 c 0.33,0 0.66,0 1,0 0.33,4.62 0.66,9.24 1,14 -0.99,0 -1.98,0 -3,0 -1.23888,-2.47775 -1.16742,-4.23654 -1.1875,-7 -0.0142,-0.88688 -0.0284,-1.77375 -0.043,-2.6875 0.23047,-2.3125 0.23047,-2.3125 2.23047,-4.3125 z" fill="#f2fefe" id="path176"/>
  <path d="m 303.26006,194.27579 c 0.66,0 1.32,0 2,0 1.7841,3.06246 2.2288,5.22079 2.125,8.75 -0.0181,0.79922 -0.0361,1.59843 -0.0547,2.42187 -0.0348,0.90492 -0.0348,0.90492 -0.0703,1.82813 -7.81637,-1.91722 -7.81637,-1.91722 -10,-5 0,-0.66 0,-1.32 0,-2 4.10802,1.18676 5.89448,1.89448 9,5 -0.99,-3.63 -1.98,-7.26 -3,-11 z" fill="#d2f0fc" id="path178"/>
  <path d="m 283.26006,184.96329 c 1.82531,-0.0251 1.82531,-0.0251 3.6875,-0.0508 3.3125,0.36328 3.3125,0.36328 7.3125,3.36328 -7.26,-0.33 -14.52,-0.66 -22,-1 4.22776,-2.11389 6.35768,-2.29775 11,-2.3125 z" fill="#6bb5e5" id="path180"/>
  <path d="m 438.26006,15.275787 c 3.69208,3.296507 5.86617,6.574277 8,11 -0.39453,2.21875 -0.39453,2.21875 -1,4 -1.12838,-1.580931 -2.25257,-3.164847 -3.375,-4.75 -0.62649,-0.881718 -1.25297,-1.763437 -1.89844,-2.671875 -1.44137,-2.152275 -2.64154,-4.23273 -3.72656,-6.578125 0.66,-0.33 1.32,-0.66 2,-1 z" fill="#5aafe9" id="path182"/>
  <path d="m 100.26006,350.27579 c 0.66,0.33 1.32,0.66 2,1 -0.99,1.98 -1.98,3.96 -3.000003,6 -1.65,-0.33 -3.3,-0.66 -5,-1 0,2.97 0,5.94 0,9 -0.33,0 -0.66,0 -1,0 -0.626199,-9.11469 -0.626199,-9.11469 1.8125,-12.5625 2.1875,-1.4375 2.1875,-1.4375 5.187503,-2.4375 z" fill="#ceeffc" id="path184"/>
  <path d="m 112.26006,332.27579 c 4.77576,0.46821 8.04476,1.24332 12,4 -0.99,0.495 -0.99,0.495 -2,1 -2.125,-0.9375 -2.125,-0.9375 -4,-2 0.33,1.32 0.66,2.64 1,4 -0.61875,-0.30938 -1.2375,-0.61875 -1.875,-0.9375 -4.31303,-1.46643 -8.601,-1.72869 -13.125,-2.0625 0,-0.33 0,-0.66 0,-1 3.96,0 7.92,0 12,0 0,-0.66 0,-1.32 0,-2 -1.32,-0.33 -2.64,-0.66 -4,-1 z" fill="#d3f1fd" id="path186"/>
  <path d="m 305.26006,263.27579 c 2.6875,0.3125 2.6875,0.3125 5,1 0.33,0.99 0.66,1.98 1,3 5.28,0 10.56,0 16,0 0,0.33 0,0.66 0,1 -2.79173,0.0269 -5.58321,0.0468 -8.375,0.0625 -1.1911,0.0126 -1.1911,0.0126 -2.40625,0.0254 -5.99219,0.0254 -5.99219,0.0254 -8.21875,-1.08789 0,-0.66 0,-1.32 0,-2 -1.98,0.33 -3.96,0.66 -6,1 1.1875,-1.5625 1.1875,-1.5625 3,-3 z" fill="#5aabdd" id="path188"/>
  <path d="m 292.26006,185.27579 c -3.74304,1.87152 -8.30861,1.00751 -12.42188,0.9375 -3.3103,0.0578 -6.33528,0.42587 -9.57812,1.0625 0.33,-0.99 0.66,-1.98 1,-3 7.57638,-1.51528 13.7471,-1.41763 21,1 z" fill="#e1fafe" id="path190"/>
  <path d="m 305.26006,345.27579 c 0,2.64 0,5.28 0,8 -0.99,0.33 -1.98,0.66 -3,1 0,0.66 0,1.32 0,2 -0.66,0 -1.32,0 -2,0 -0.17754,-3.90591 -0.20732,-6.68903 2,-10 2,-1 2,-1 3,-1 z" fill="#eefbfe" id="path192"/>
  <path d="m 108.57256,336.08829 c 1.60295,0.0406 1.60295,0.0406 3.23828,0.082 0.80824,0.0348 1.61648,0.0696 2.44922,0.10547 0,0.33 0,0.66 0,1 -2.31,0 -4.62,0 -7,0 0,0.66 0,1.32 0,2 -1.65,0.33 -3.3,0.66 -5,1 -0.33,0.99 -0.66,1.98 -1,3 -0.33,-0.99 -0.66,-1.98 -1,-3 -0.990003,-0.33 -1.980003,-0.66 -3.000003,-1 3.928263,-2.77675 6.531253,-3.34513 11.312503,-3.1875 z" fill="#5db2ec" id="path194"/>
  <path d="m 122.26006,368.27579 c 0,0.99 0,1.98 0,3 -6.23665,4.53574 -11.43801,4.44701 -19,4 0,-0.33 0,-0.66 0,-1 5.94,-0.495 5.94,-0.495 12,-1 0,-0.66 0,-1.32 0,-2 4.38461,-3 4.38461,-3 7,-3 z" fill="#52abe0" id="path196"/>
  <path d="m 346.26006,361.27579 c 1.65,0 3.3,0 5,0 0.43309,5.28378 0.43309,5.28378 0,8 -2.25,2.0625 -2.25,2.0625 -5,3 -2.3125,-0.3125 -2.3125,-0.3125 -4,-1 0.99,0 1.98,0 3,0 0,-0.66 0,-1.32 0,-2 0.47437,-0.45375 0.94875,-0.9075 1.4375,-1.375 1.78343,-1.85478 2.1317,-3.12636 2.5625,-5.625 -0.99,-0.33 -1.98,-0.66 -3,-1 z" fill="#61b1e5" id="path198"/>
  <path d="m 296.26006,361.27579 c 0.18562,0.95906 0.18562,0.95906 0.375,1.9375 0.30937,1.02093 0.30937,1.02093 0.625,2.0625 0.66,0.33 1.32,0.66 2,1 -0.99,3.3 -1.98,6.6 -3,10 -0.33,0 -0.66,0 -1,0 -0.14438,-0.94875 -0.28875,-1.8975 -0.4375,-2.875 -0.39186,-3.01845 -0.39186,-3.01845 -1.5625,-5.125 0.93579,-2.35982 1.93348,-4.69632 3,-7 z" fill="#d2f1fb" id="path200"/>
  <path d="m 276.26006,196.27579 c 2.87557,-0.0814 5.74882,-0.14068 8.625,-0.1875 0.80824,-0.0251 1.61648,-0.0503 2.44922,-0.0762 5.06969,-0.0618 8.54403,0.40931 12.92578,3.26367 0.33,0.66 0.66,1.32 1,2 -1.155,-0.47438 -2.31,-0.94875 -3.5,-1.4375 -6.9387,-2.36116 -14.23988,-2.30417 -21.5,-2.5625 0,-0.33 0,-0.66 0,-1 z" fill="#5face0" id="path202"/>
  <path d="m 160.26006,367.27579 c 2.64,1.65 5.28,3.3 8,5 -1.98,0.99 -1.98,0.99 -4,2 -0.33,-0.99 -0.66,-1.98 -1,-3 -0.66,0 -1.32,0 -2,0 -0.33,1.32 -0.66,2.64 -1,4 -1.65,0 -3.3,0 -5,0 0,-0.66 0,-1.32 0,-2 1.65,0 3.3,0 5,0 0,-1.98 0,-3.96 0,-6 z" fill="#54a9de" id="path204"/>
  <path d="m 163.26006,361.27579 c 4.6809,1.64464 4.6809,1.64464 6.375,3.53125 2.10626,1.90374 3.51307,1.95339 6.3125,2.15625 0.80824,0.0657 1.61648,0.13148 2.44922,0.19922 0.61488,0.0374 1.22976,0.0748 1.86328,0.11328 0,0.33 0,0.66 0,1 -10.60591,0.76119 -10.60591,0.76119 -13.91016,-1.04297 -1.33984,-1.33203 -1.33984,-1.33203 -3.08984,-3.95703 0,-0.66 0,-1.32 0,-2 z" fill="#5faee2" id="path206"/>
  <path d="m 97.260057,355.27579 c 1.350159,4.05047 0.62085,6.79201 0,11 -0.99,0 -1.98,0 -3,0 0,-3.3 0,-6.6 0,-10 0.99,-0.33 1.98,-0.66 3,-1 z" fill="#f2fcfd" id="path208"/>
  <path d="m 306.26006,171.27579 c 1.98,0 3.96,0 6,0 0,0.66 0,1.32 0,2 1.32,0 2.64,0 4,0 0.28875,0.61875 0.5775,1.2375 0.875,1.875 1.0622,2.25825 1.0622,2.25825 3.125,4.125 -3.58547,0 -4.65262,-0.87116 -7.5625,-2.875 -0.78504,-0.53367 -1.57008,-1.06735 -2.37891,-1.61719 -2.05859,-1.50781 -2.05859,-1.50781 -4.05859,-3.50781 z" fill="#66b4e4" id="path210"/>
  <path d="m 322.26006,333.27579 c 0.66,0.33 1.32,0.66 2,1 -0.68063,0.76312 -1.36125,1.52625 -2.0625,2.3125 -0.63938,0.88687 -1.27875,1.77375 -1.9375,2.6875 0.33,0.99 0.66,1.98 1,3 -0.66,0.66 -1.32,1.32 -2,2 -0.33,-0.66 -0.66,-1.32 -1,-2 -0.99,0.66 -1.98,1.32 -3,2 0.31767,-5.4005 3.19996,-7.52337 7,-11 z" fill="#ceeffb" id="path212"/>
  <path d="m 69.260057,550.27579 c 0.33,0 0.66,0 1,0 0.33,3.63 0.66,7.26 1,11 1.32,-0.33 2.64,-0.66 4,-1 0,0.99 0,1.98 0,3 -3.75,2 -3.75,2 -6,2 0,-4.95 0,-9.9 0,-15 z" fill="#54a7d9" id="path214"/>
  <path d="m 214.26006,336.27579 c 10.6843,-0.76682 10.6843,-0.76682 13.91015,1.11328 1.33985,1.38672 1.33985,1.38672 3.08985,3.88672 -3.73488,-0.49799 -5.81238,-0.87492 -9,-3 -2.04921,-0.4514 -2.04921,-0.4514 -4.1875,-0.625 -1.88719,-0.18563 -1.88719,-0.18563 -3.8125,-0.375 0,-0.33 0,-0.66 0,-1 z" fill="#61afe4" id="path216"/>
  <path d="m 197.26006,262.27579 c 4.875,0.875 4.875,0.875 6,2 2.85878,0.23701 5.69883,0.42219 8.5625,0.5625 0.80631,0.0432 1.61261,0.0864 2.44336,0.13086 1.99783,0.10639 3.99596,0.20705 5.99414,0.30664 0,0.33 0,0.66 0,1 -3.08302,0.11644 -6.16546,0.18732 -9.25,0.25 -1.30905,0.0503 -1.30905,0.0503 -2.64453,0.10156 -6.52146,0.0996 -6.52146,0.0996 -9.71485,-2.36719 -0.4589,-0.65484 -0.91781,-1.30969 -1.39062,-1.98437 z" fill="#c5ebfc" id="path218"/>
  <path d="m 448.26006,464.27579 c 0.33,0 0.66,0 1,0 0.34616,5.65394 -0.56575,9.03007 -3,14 -0.66,0 -1.32,0 -2,0 0.47628,-1.95904 0.95611,-3.91721 1.4375,-5.875 0.26683,-1.09055 0.53367,-2.1811 0.80859,-3.30469 0.75391,-2.82031 0.75391,-2.82031 1.75391,-4.82031 z" fill="#50afe7" id="path220"/>
  <path d="m 323.26006,338.27579 c 0.33,0.66 0.66,1.32 1,2 -0.33,0.99 -0.66,1.98 -1,3 -0.66,0 -1.32,0 -2,0 0,1.32 0,2.64 0,4 1.98,0 3.96,0 6,0 -2,2 -2,2 -5.125,2.125 -1.42313,-0.0619 -1.42313,-0.0619 -2.875,-0.125 0.43821,-4.55738 0.85041,-7.57654 4,-11 z" fill="#5aaee4" id="path222"/>
  <path d="m 393.26006,332.27579 c 0.33,0.99 0.66,1.98 1,3 -5.94,0.495 -5.94,0.495 -12,1 2,-3 2,-3 3.8125,-3.6875 2.42343,-0.34621 4.74259,-0.38042 7.1875,-0.3125 z" fill="#f7fefe" id="path224"/>
  <path d="m 261.26006,199.27579 c 1.98,0 3.96,0 6,0 -10.10527,8 -10.10527,8 -14,8 -0.33,-0.99 -0.66,-1.98 -1,-3 1.65,0 3.3,0 5,0 0,-0.66 0,-1.32 0,-2 1.32,-0.33 2.64,-0.66 4,-1 0,-0.66 0,-1.32 0,-2 z" fill="#50a6df" id="path226"/>
  <path d="m 68.260057,550.27579 c 0.33,0 0.66,0 1,0 0,4.95 0,9.9 0,15 0.66,0 1.32,0 2,0 0.33,-0.66 0.66,-1.32 1,-2 0,0.99 0,1.98 0,3 -1.9375,0.5625 -1.9375,0.5625 -4,1 -0.33,-0.33 -0.66,-0.66 -1,-1 0.09092,-2.70109 0.237408,-5.36931 0.4375,-8.0625 0.05221,-0.75862 0.104414,-1.51723 0.158204,-2.29883 0.130055,-1.87989 0.266577,-3.75933 0.404296,-5.63867 z" fill="#56b9eb" id="path228"/>
  <path d="m 225.26006,243.27579 c 0.33,0 0.66,0 1,0 0.029,3.10414 0.0468,6.20826 0.0625,9.3125 0.008,0.88107 0.0168,1.76215 0.0254,2.66992 0.003,0.84756 0.006,1.69512 0.01,2.56836 0.005,0.78028 0.0105,1.56057 0.0159,2.3645 -0.11353,2.08472 -0.11353,2.08472 -1.11353,5.08472 -1.32,-0.33 -2.64,-0.66 -4,-1 0.48444,-0.40775 0.96889,-0.8155 1.46802,-1.2356 1.86308,-2.14574 1.94427,-3.191 2.0437,-5.99487 0.0354,-0.80244 0.0709,-1.60488 0.10742,-2.43164 0.0226,-0.83338 0.0451,-1.66676 0.0684,-2.52539 0.0342,-0.84498 0.0683,-1.68996 0.10351,-2.56055 0.0824,-2.08352 0.14737,-4.16771 0.20899,-6.25195 z" fill="#47a4dc" id="path230"/>
  <path d="m 278.26006,342.27579 c 3.03952,4.55929 5,8.47162 5,14 -0.66,0 -1.32,0 -2,0 -1.79276,-3.11911 -2.34291,-5.67683 -2.625,-9.25 -0.0748,-0.89203 -0.14953,-1.78407 -0.22657,-2.70313 -0.049,-0.67547 -0.098,-1.35094 -0.14843,-2.04687 z" fill="#58ace3" id="path232"/>
  <path d="m 312.26006,336.27579 c 0.66,0 1.32,0 2,0 0,2.64 0,5.28 0,8 -1.32,0 -2.64,0 -4,0 0,-1.98 0,-3.96 0,-6 0.66,0 1.32,0 2,0 0,-0.66 0,-1.32 0,-2 z" fill="#38a3ea" id="path234"/>
  <path d="m 169.51006,331.58829 c 0.86625,0.34031 0.86625,0.34031 1.75,0.6875 -0.99,0 -1.98,0 -3,0 0,0.99 0,1.98 0,3 3.3,0 6.6,0 10,0 0,0.33 0,0.66 0,1 -1.04801,0.0909 -1.04801,0.0909 -2.11719,0.18359 -0.91008,0.0838 -1.82016,0.16758 -2.75781,0.25391 -0.90492,0.0812 -1.80985,0.16242 -2.74219,0.24609 -2.39392,0.1863 -2.39392,0.1863 -4.38281,1.31641 -0.33,-0.99 -0.66,-1.98 -1,-3 -0.66,-0.33 -1.32,-0.66 -2,-1 3.44615,-3.07693 3.44615,-3.07693 6.25,-2.6875 z" fill="#bce4f8" id="path236"/>
  <path d="m 358.26006,316.27579 c 1.65,0 3.3,0 5,0 0.33,1.65 0.66,3.3 1,5 -1.98,0 -3.96,0 -6,0 0,-1.65 0,-3.3 0,-5 z" fill="#bcebfb" id="path238"/>
  <path d="m 266.26006,189.27579 c -0.33,1.65 -0.66,3.3 -1,5 -2.97,0 -5.94,0 -9,0 6.36363,-5 6.36363,-5 10,-5 z" fill="#59afe3" id="path240"/>
  <path d="m 282.26006,346.27579 c 0.99,0 1.98,0 3,0 0.66,3.3 1.32,6.6 2,10 -1.32,-0.66 -2.64,-1.32 -4,-2 -0.83886,-2.67791 -0.81767,-5.1738 -1,-8 z" fill="#f4fefe" id="path242"/>
  <path d="m 303.26006,333.27579 c 0.99,0 1.98,0 3,0 -0.25662,1.4401 -0.53091,2.87707 -0.8125,4.3125 -0.15082,0.80051 -0.30164,1.60101 -0.45703,2.42578 -0.80619,2.49617 -1.75099,3.58594 -3.73047,5.26172 0,-1.65 0,-3.3 0,-5 0.66,0 1.32,0 2,0 -0.18563,-0.96938 -0.37125,-1.93875 -0.5625,-2.9375 -0.14438,-1.01063 -0.28875,-2.02125 -0.4375,-3.0625 0.33,-0.33 0.66,-0.66 1,-1 z" fill="#57ade1" id="path244"/>
  <path d="m 97.260057,330.27579 c 6.270003,0.33 12.540003,0.66 19.000003,1 0,0.33 0,0.66 0,1 -9.405,0.495 -9.405,0.495 -19.000003,1 -0.33,0.66 -0.66,1.32 -1,2 0.33,-1.65 0.66,-3.3 1,-5 z" fill="#6dbbea" id="path246"/>
  <path d="m 160.26006,316.27579 c 0.33,0 0.66,0 1,0 0,5.61 0,11.22 0,17 0.99,0.33 1.98,0.66 3,1 -1.32,0.99 -2.64,1.98 -4,3 0,-6.93 0,-13.86 0,-21 z" fill="#56a6d9" id="path248"/>
  <path d="m 269.26006,317.27579 c 0,1.32 0,2.64 0,4 -1.98,0 -3.96,0 -6,0 0,-1.32 0,-2.64 0,-4 2.49093,-1.24547 3.4108,-0.77676 6,0 z" fill="#c3eefd" id="path250"/>
  <path d="m 129.26006,121.27579 c 6.6,0 13.2,0 20,0 0.33,1.32 0.66,2.64 1,4 -0.47953,-0.31711 -0.95907,-0.63422 -1.45313,-0.96094 -3.70909,-1.51322 -7.32496,-1.50598 -11.29687,-1.66406 -0.79278,-0.0387 -1.58555,-0.0773 -2.40235,-0.11719 -1.94885,-0.0939 -3.89822,-0.17694 -5.84765,-0.25781 0,-0.33 0,-0.66 0,-1 z" fill="#69b4e2" id="path252"/>
  <path d="m 332.13506,335.90079 c 1.57394,-0.0425 1.57394,-0.0425 3.17968,-0.0859 3.56645,0.55814 4.69881,1.7152 6.94532,4.46094 -1.11375,-0.495 -1.11375,-0.495 -2.25,-1 -5.26216,-1.40324 -10.33579,-1.1577 -15.75,-1 2.67471,-2.67471 4.14805,-2.32944 7.875,-2.375 z" fill="#6fb6e6" id="path254"/>
  <path d="m 324.26006,333.27579 c 1.32,0.66 2.64,1.32 4,2 -0.78375,0.61875 -1.5675,1.2375 -2.375,1.875 -2.59338,2.02358 -2.59338,2.02358 -4.625,4.125 -0.66,-0.99 -1.32,-1.98 -2,-3 1.65,-1.65 3.3,-3.3 5,-5 z" fill="#e9fbfe" id="path256"/>
  <path d="m 302.26006,194.27579 c 2.03434,1.41519 2.9041,2.54982 3.42187,4.98047 0.24087,2.0013 0.41345,4.01052 0.57813,6.01953 -0.99,-0.33 -1.98,-0.66 -3,-1 0,-0.66 0,-1.32 0,-2 -0.66,-0.33 -1.32,-0.66 -2,-1 0.165,-0.78375 0.33,-1.5675 0.5,-2.375 0.56237,-2.50708 0.56237,-2.50708 0.5,-4.625 z" fill="#64b4e5" id="path258"/>
  <path d="m 185.26006,359.27579 c 0.99,0 1.98,0 3,0 -0.125,1.75 -0.125,1.75 -1,4 -3.0625,2.25 -3.0625,2.25 -6,4 0,-1.98 0,-3.96 0,-6 1.32,0.33 2.64,0.66 4,1 0,-0.99 0,-1.98 0,-3 z" fill="#61b2e6" id="path260"/>
  <path d="m 290.26006,372.27579 c 0.26812,0.63937 0.53625,1.27875 0.8125,1.9375 1.07417,2.39381 1.07417,2.39381 4.1875,3.0625 -0.66,1.65 -1.32,3.3 -2,5 -0.66,-0.99 -1.32,-1.98 -2,-3 -0.99,0 -1.98,0 -3,0 0.66,-2.31 1.32,-4.62 2,-7 z" fill="#c9ecfa" id="path262"/>
  <path d="m 287.26006,361.27579 c 0.99,0.33 1.98,0.66 3,1 0,0.66 0,1.32 0,2 0.66,0 1.32,0 2,0 -0.52269,2.76276 -1.1087,5.32608 -2,8 -3,-6.5 -3,-6.5 -3,-11 z" fill="#e0f9fe" id="path264"/>
  <path d="m 346.26006,337.27579 c 1.5,1.25 1.5,1.25 3,3 0,1.32 0,2.64 0,4 -0.66,0 -1.32,0 -2,0 -0.33,-2.31 -0.66,-4.62 -1,-7 z m -1,7 c 0.66,0 1.32,0 2,0 0,1.65 0,3.3 0,5 -0.99,0.495 -0.99,0.495 -2,1 0,-1.98 0,-3.96 0,-6 z" fill="#cef0fd" id="path266"/>
  <path d="m 418.26006,499.27579 c 0.66,0.99 1.32,1.98 2,3 -3.67411,1.17571 -7.16929,1.07366 -11,1 1,-2 1,-2 2.84765,-2.63282 1.09635,-0.24363 1.09635,-0.24363 2.21485,-0.49218 0.73347,-0.16758 1.46695,-0.33516 2.22265,-0.50782 0.5659,-0.12117 1.1318,-0.24234 1.71485,-0.36718 z" fill="#51a7e1" id="path268"/>
  <path d="m 10.260057,483.27579 c 5.875,3.75 5.875,3.75 7,6 -1.32,0.33 -2.64,0.66 -4,1 -1.32,-1.98 -2.64,-3.96 -3.9999996,-6 0.33,-0.33 0.66,-0.66 0.9999996,-1 z" fill="#56a4e1" id="path270"/>
  <path d="m 210.26006,364.27579 c 2.9375,0.375 2.9375,0.375 6,1 0.33,0.66 0.66,1.32 1,2 2.32156,0.40729 4.65688,0.74438 7,1 0,0.33 0,0.66 0,1 -8.63503,0.43907 -8.63503,0.43907 -13,-3 -0.33,-0.66 -0.66,-1.32 -1,-2 z" fill="#7bbfeb" id="path272"/>
  <path d="m 285.26006,361.27579 c 3.81927,4.51368 5.3472,9.09749 5,15 -3.15269,-4.72903 -5.52668,-9.20651 -5,-15 z" fill="#61b0e1" id="path274"/>
  <path d="m 129.26006,511.27579 c 1.32,0.66 2.64,1.32 4,2 -4.625,4 -4.625,4 -8,4 0.33,-0.99 0.66,-1.98 1,-3 0.66,0 1.32,0 2,0 0.33,-0.99 0.66,-1.98 1,-3 z" fill="#3fa2e0" id="path276"/>
  <path d="m 93.260057,365.27579 c 0.99,0.495 0.99,0.495 2,1 0.33,0.99 0.66,1.98 1,3 3.000073,1.70855 3.000073,1.70855 6.000003,3 0,0.33 0,0.66 0,1 -2.812503,0.25 -2.812503,0.25 -6.000003,0 -1.875,-1.75 -1.875,-1.75 -3,-4 0,-1.32 0,-2.64 0,-4 z" fill="#60b2e2" id="path278"/>
  <path d="m 319.26006,341.27579 c -0.33,2.64 -0.66,5.28 -1,8 -0.66,-0.66 -1.32,-1.32 -2,-2 -0.99,0.495 -0.99,0.495 -2,1 0,-1.32 0,-2.64 0,-4 3.32143,-3 3.32143,-3 5,-3 z" fill="#e9fafe" id="path280"/>
  <path d="m 104.26006,333.27579 c -1.98,0.33 -3.96,0.66 -6.000003,1 0,0.99 0,1.98 0,3 0.99,0.33 1.980003,0.66 3.000003,1 -1.650003,0.33 -3.300003,0.66 -5.000003,1 0.33,-1.98 0.66,-3.96 1,-6 3.133493,-1.0445 3.989683,-0.93424 7.000003,0 z" fill="#bce9fc" id="path282"/>
  <path d="m 292.26006,378.27579 c 0.0427,1.66612 0.0406,3.33383 0,5 -1,1 -1,1 -3.5625,1.0625 -1.20657,-0.0309 -1.20657,-0.0309 -2.4375,-0.0625 2.6,-6 2.6,-6 6,-6 z" fill="#f1fbfc" id="path284"/>
  <path d="m 161.26006,360.27579 c 0.66,0.33 1.32,0.66 2,1 0.73075,2.31406 1.40138,4.64829 2,7 -0.99,0.33 -1.98,0.66 -3,1 -0.33,-0.99 -0.66,-1.98 -1,-3 -0.66,-0.33 -1.32,-0.66 -2,-1 0.66,-0.33 1.32,-0.66 2,-1 0,-1.32 0,-2.64 0,-4 z" fill="#ddf4fc" id="path286"/>
  <path d="m 289.26006,356.27579 c 0.68836,0.70189 0.68836,0.70189 1.39062,1.41797 1.56848,1.61193 1.56848,1.61193 3.35938,2.89453 1.25,1.6875 1.25,1.6875 0.9375,4.875 -0.22688,0.92812 -0.45375,1.85625 -0.6875,2.8125 -2.34915,-2.34915 -2.73141,-3.9568 -3.625,-7.125 -0.26039,-0.91008 -0.52078,-1.82016 -0.78907,-2.75782 -0.19335,-0.69867 -0.38671,-1.39734 -0.58593,-2.11718 z" fill="#6bb1df" id="path288"/>
  <path d="m 216.26006,330.27579 c 4.62,0 9.24,0 14,0 0.33,0.99 0.66,1.98 1,3 -7.425,-0.99 -7.425,-0.99 -15,-2 0,-0.33 0,-0.66 0,-1 z" fill="#6db5e3" id="path290"/>
  <path d="m 188.26006,328.27579 c -0.33,1.32 -0.66,2.64 -1,4 -2.96175,-0.61278 -4.38059,-1.25373 -7,-3 2.70879,-1.3544 5.00933,-1.06502 8,-1 z" fill="#34a3ed" id="path292"/>
  <path d="m 342.26006,368.27579 c -1.98,0.99 -3.96,1.98 -6,3 0,-0.66 0,-1.32 0,-2 -2.31,0 -4.62,0 -7,0 0,-0.33 0,-0.66 0,-1 1.41543,-0.19659 2.83244,-0.38188 4.25,-0.5625 0.7889,-0.10442 1.57781,-0.20883 2.39062,-0.31641 2.36471,-0.12137 4.11048,0.18257 6.35938,0.87891 z" fill="#bde2f5" id="path294"/>
  <path d="m 232.26006,347.27579 c 0.66,0 1.32,0 2,0 1.47832,2.95664 1.06033,5.74229 1,9 -0.66,0 -1.32,0 -2,0 -0.33,-2.97 -0.66,-5.94 -1,-9 z" fill="#419fe0" id="path296"/>
  <path d="m 104.26006,348.27579 c -0.92813,0.45375 -1.85625,0.9075 -2.8125,1.375 -3.226716,1.56716 -3.226716,1.56716 -6.187503,3.625 0.33,-1.65 0.66,-3.3 1,-5 3.286963,-0.79953 4.710233,-1.09659 8.000003,0 z" fill="#56abe1" id="path298"/>
  <path d="m 165.26006,338.27579 c 0.66,0.33 1.32,0.66 2,1 -1.32,2.64 -2.64,5.28 -4,8 -0.66,-0.33 -1.32,-0.66 -2,-1 1.12451,-2.97194 2.22294,-5.33441 4,-8 z" fill="#54ace4" id="path300"/>
  <path d="m 426.26006,497.27579 c 0,0.66 0,1.32 0,2 -1.98,0.99 -3.96,1.98 -6,3 -0.33,-0.99 -0.66,-1.98 -1,-3 2.64739,-1.46063 3.89448,-2 7,-2 z" fill="#48b1eb" id="path302"/>
  <path d="m 232.26006,362.27579 c 0.66,0 1.32,0 2,0 -0.98094,2.45235 -1.68704,3.78092 -3.875,5.3125 -2.4751,0.80076 -3.70788,0.55076 -6.125,-0.3125 0.94875,-0.45375 1.8975,-0.9075 2.875,-1.375 3.12813,-1.42739 3.12813,-1.42739 5.125,-3.625 z" fill="#c7eafa" id="path304"/>
  <path d="m 340.26006,332.27579 c 2.97,0.495 2.97,0.495 6,1 0,0.66 0,1.32 0,2 0.66,0 1.32,0 2,0 -0.33,1.32 -0.66,2.64 -1,4 -2.33334,-2.33334 -4.66667,-4.66667 -7,-7 z" fill="#64b1e5" id="path306"/>
  <path d="m 408.26006,2.2757873 c 3.3,0 6.6,0 10,0 0,0.99 0,1.98 0,3 -3.3,-0.66 -6.6,-1.32 -10,-2 0,-0.33 0,-0.66 0,-1 z" fill="#67b5e4" id="path308"/>
  <path d="m 15.260057,489.27579 c 1.98,0.66 3.96,1.32 6,2 -0.33,0.99 -0.66,1.98 -1,3 -1.32,-0.33 -2.64,-0.66 -4,-1 -0.33,-1.32 -0.66,-2.64 -1,-4 z" fill="#48b3e4" id="path310"/>
  <path d="m 192.26006,361.27579 c 0.33,0.66 0.66,1.32 1,2 0.99,0.33 1.98,0.66 3,1 -1.32,0.99 -2.64,1.98 -4,3 -0.66,-0.33 -1.32,-0.66 -2,-1 0.66,-1.65 1.32,-3.3 2,-5 z" fill="#5fb6ed" id="path312"/>
  <path d="m 206.26006,337.27579 c 0.66,0 1.32,0 2,0 0,1.65 0,3.3 0,5 -0.99,0 -1.98,0 -3,0 0.33,-1.65 0.66,-3.3 1,-5 z" fill="#f4fbfe" id="path314"/>
  <path d="m 305.26006,330.27579 c 2.97,0 5.94,0 9,0 -0.33,1.32 -0.66,2.64 -1,4 0,-0.99 0,-1.98 0,-3 -2.97,0.66 -5.94,1.32 -9,2 0.33,-0.99 0.66,-1.98 1,-3 z" fill="#44a0dd" id="path316"/>
  <path d="m 304.26006,230.27579 c 2,3 2,3 1.75,6.125 -0.2475,0.94875 -0.495,1.8975 -0.75,2.875 -0.99,0.495 -0.99,0.495 -2,1 0.33,-3.3 0.66,-6.6 1,-10 z" fill="#51aadf" id="path318"/>
  <path d="m 292.26006,186.27579 c 2.64,0.33 5.28,0.66 8,1 -0.33,1.32 -0.66,2.64 -1,4 -3.465,-1.98 -3.465,-1.98 -7,-4 0,-0.33 0,-0.66 0,-1 z" fill="#c9ecfb" id="path320"/>
  <path d="m 247.26006,174.27579 c 1.32,0.66 2.64,1.32 4,2 -0.99,0.66 -1.98,1.32 -3,2 -0.66,0.99 -1.32,1.98 -2,3 -0.625,-2.375 -0.625,-2.375 -1,-5 0.66,-0.66 1.32,-1.32 2,-2 z" fill="#5cafe6" id="path322"/>
</svg>