<?xml version="1.0" encoding="utf-8"?>
<!DOCTYPE svg PUBLIC "-//W3C//DTD SVG 1.0//EN" "http://www.w3.org/TR/2001/REC-SVG-20010904/DTD/svg10.dtd">
<svg version="1.0" xmlns="http://www.w3.org/2000/svg"  viewBox="0 0 500 500" preserveAspectRatio="xMidYMid meet">
 <g fill="#001f2d">
  <path d="M260.4 332.6 c-0.3 -0.8 -0.4 -2.7 -0.2 -4.2 0.3 -3.2 -0.7 -2.8 18.1 -6.4 5.9 -1.1 14.9 -3.4 20 -5.1 21.1 -7 46.5 -21.9 59.2 -34.8 5.6 -5.7 7.5 -7.1 10 -7.1 6 0 5.9 1.2 -1.2 9.5 -8 9.4 -12 13.1 -22.1 20.7 -15 11.3 -36.3 21.4 -52.2 24.8 -18.7 4 -30.7 5 -31.6 2.6z"/>
  <path d="M200 322.3 c0 -0.6 -1.7 -1.7 -3.7 -2.3 -5.9 -1.9 -21.4 -10.9 -28.3 -16.5 -6 -4.9 -17 -16 -17 -17.2 0 -0.8 1.3 -1.3 3.9 -1.3 3.2 0 5.2 1 11.7 6.1 8.7 6.7 21.2 14.4 29.8 18.3 5.5 2.5 5.6 2.6 5.6 6.8 0 2.4 -0.5 5 -1 5.8 -0.6 0.9 -1 1 -1 0.3z"/>
  <path d="M145.1 280.3 c-4.1 -4.9 -4 -6.3 0.4 -6.3 l3.5 0 0 5 c0 2.8 -0.2 5 -0.4 5 -0.3 0 -1.8 -1.7 -3.5 -3.7z"/>
  <path d="M137 267.8 c-1.6 -2.9 -3 -5.6 -3 -6 0 -0.5 1.3 -0.8 2.8 -0.8 2.1 0 3.2 0.7 4 2.5 1.5 3.1 1.6 9.5 0.2 9.5 -0.5 0 -2.3 -2.4 -4 -5.2z"/>
  <path d="M250.8 254.4 c-2.3 -1.2 -2.8 -2.1 -2.8 -5.3 l0 -3.9 -4.7 -0.6 c-2.7 -0.3 -7.8 -0.5 -11.5 -0.5 -5.7 0 -6.9 -0.3 -8 -2 -1.2 -2 -1.2 -2 -3.6 0.2 -2.1 1.9 -3.4 2.2 -11.6 2.2 -8.4 0 -9.6 -0.2 -12.7 -2.6 l-3.4 -2.6 -2.8 2 c-3.2 2.4 -10.2 3.5 -23.8 3.6 -6.2 0.1 -10.1 -0.3 -11.1 -1.1 -1.4 -1.1 -1.7 -4.5 -2 -23.6 -0.3 -21 -0.2 -22.4 1.6 -23.7 1.5 -1.1 4.7 -1.3 15 -0.9 7.2 0.3 14.6 1 16.3 1.6 4.6 1.4 7.3 5.2 7.3 10.4 l0 4.3 4.3 -2.4 c5.5 -3.2 14.9 -3.4 20.9 -0.5 2.3 1.1 4.3 2 4.5 2 0.2 0 0.3 -3.4 0.3 -7.5 0 -6.1 0.3 -7.6 1.8 -8.4 0.9 -0.5 7.1 -0.9 13.6 -0.9 13.1 -0.1 14.6 0.5 14.6 5.7 0 2.6 -0.4 3.1 -2.5 3.1 -2.1 0 -2.3 0.3 -1.6 2.2 0.7 1.9 1.4 2.1 7.2 1.9 l6.4 -0.1 1.8 3.5 c0.9 2 1.8 4.6 1.8 5.8 0.1 1.7 0.2 1.8 0.6 0.5 0.3 -1.3 1.5 -1.8 4.1 -1.9 2 -0.1 2.9 -0.3 2 -0.6 -1.3 -0.3 -1.8 -1.5 -1.8 -3.9 l0 -3.4 6.5 0 c5.2 0 6.5 0.3 6.5 1.5 0 1.2 0.4 1.3 1.8 0.6 1 -0.5 5.2 -1.3 9.3 -1.7 6 -0.5 8.2 -0.3 10.7 1 1.8 0.9 3.2 2.1 3.2 2.6 0 0.6 0.6 1 1.4 1 1.2 0 1.3 -1.4 0.9 -7.4 -0.5 -6.6 -0.3 -7.6 1.6 -9.5 2.6 -2.6 9.5 -2.9 12.9 -0.5 1.8 1.2 2.2 2.5 2.2 6.8 l0 5.3 10.8 0.7 c5.9 0.4 12.6 0.9 15 1.2 4 0.6 4.2 0.8 4.2 4 0 2.1 -0.6 3.7 -1.7 4.3 -1.5 0.8 -1.1 1 2 1.1 3.6 0 3.7 0.1 3.7 3.8 0 2.2 0.3 7.3 0.6 11.4 0.6 6.8 0.5 7.7 -1.5 9.7 -2.7 2.7 -9.9 2.9 -13 0.4 -1.7 -1.5 -2.1 -3.1 -2.3 -9.8 l-0.3 -8 -4.6 0.3 c-4.1 0.3 -4.7 0.1 -5.2 -2 -0.4 -1.3 -0.7 -3.5 -0.7 -5 0 -1.6 -0.4 -2.8 -1 -2.8 -0.5 0 -1 1.1 -1 2.5 0 2.2 -0.4 2.5 -3.4 2.5 -2.9 0 -3.5 -0.4 -4.1 -2.7 -0.5 -2.6 -0.9 -2.8 -5.8 -2.9 -5.2 0 -5.3 0 -4.9 2.7 0.4 2.5 0.6 2.6 1.9 1.4 0.8 -0.8 3 -1.5 4.9 -1.5 2.7 0 3.4 0.4 3.4 2 0 1.6 0.7 2 3.5 2 2.8 0 3.5 0.4 3.5 2 0 1.1 0.9 2.9 2 4 1.6 1.6 2 3.3 2 9.5 l0 7.5 -3.1 0 c-1.7 0 -3.9 -0.5 -4.9 -1 -1.3 -0.7 -2.1 -0.7 -2.5 0 -0.3 0.5 -3.1 1 -6.1 1 -4.2 0 -5.6 -0.4 -6.6 -1.9 -1.1 -1.8 -1.2 -1.8 -5 0.1 -3.2 1.7 -5.2 2 -11.7 1.6 -8.6 -0.5 -12.6 -2.5 -15.7 -7.8 -2.2 -3.6 -3.8 -2.3 -5.5 4.4 -0.6 2.5 -1.5 4.6 -1.9 4.6 -0.5 0 -1.1 1.4 -1.5 3.1 -1 4.4 -5.6 6.9 -12.5 6.9 -3 -0.1 -6.7 -0.8 -8.2 -1.6z m5.6 -16.6 c-0.3 -1.2 -1.3 -3.5 -2 -5.2 l-1.3 -3.1 -0.1 5.3 c0 4.6 0.2 5.2 2.1 5.2 1.6 0 1.9 -0.4 1.3 -2.2z m-81.4 -9.8 c0 -0.5 -1.1 -1 -2.5 -1 -1.4 0 -2.5 0.5 -2.5 1 0 0.6 1.1 1 2.5 1 1.4 0 2.5 -0.4 2.5 -1z m35 -0.5 c1 -1.2 1 -1.8 0 -3.1 -1.1 -1.3 -1.5 -1.3 -2.7 -0.1 -1.3 1.3 -0.8 4.7 0.7 4.7 0.4 0 1.3 -0.7 2 -1.5z m-36.5 -15.5 c-0.3 -0.5 -1.3 -1 -2.1 -1 -0.8 0 -1.4 0.5 -1.4 1 0 0.6 0.9 1 2.1 1 1.1 0 1.7 -0.4 1.4 -1z"/>
  <path d="M223.3 191 c-2.1 -0.9 -2.3 -1.6 -2.3 -8.3 0 -4.1 -0.3 -10.8 -0.6 -15 l-0.7 -7.7 3.6 0 c1.9 0 3.8 0.6 4.1 1.3 0.3 0.6 0.4 -0.6 0.3 -2.8 -0.2 -3 -0.7 -4.1 -2.1 -4.3 -3.1 -0.6 -4.6 -2.8 -4.6 -6.7 0 -2.9 0.5 -3.7 2.6 -4.5 3.4 -1.3 8.7 -1.3 11.9 0.2 2.3 1 2.5 1.6 2.5 7.5 0 5.3 -0.3 6.3 -1.7 6.4 -1.3 0 -1.1 0.3 0.7 1 1.5 0.6 5.5 0.8 9.6 0.4 l7.2 -0.7 0.7 4 c0.3 2.2 0.3 5.5 0 7.4 -0.9 4.8 1 11.4 3.5 12.1 1.8 0.5 2 0 2 -3.9 0 -3 0.6 -5 2 -6.4 1.1 -1.1 1.5 -2.2 1 -2.5 -0.6 -0.4 -1 -2.8 -1 -5.5 0 -4.7 0.1 -4.9 4.3 -6.9 9.3 -4.5 23.5 -1.9 26.3 4.8 1.9 4.6 2 28.4 0.1 30 -1.1 0.9 -21.3 1 -30.7 0.1 -0.8 -0.1 -2.7 0.2 -4.2 0.5 -3.9 1 -9.8 -0.3 -9.8 -2 0 -0.8 -0.4 -1.5 -1 -1.5 -0.6 0 -1 -2.7 -1 -6 l0 -6 -3.9 0 -3.9 0 -0.4 6.6 c-0.3 5 -0.9 7 -2.3 8 -2.1 1.6 -8.8 1.8 -12.2 0.4z"/>
  <path d="M324.4 154.6 c-3 -3 -3.4 -4 -3.4 -8.5 0 -4.2 0.5 -5.7 2.5 -7.6 5.8 -5.9 17.5 -0.8 17.5 7.6 0 2.1 -0.4 3.9 -1 3.9 -0.5 0 -1 1.8 -1 4 l0 4 -5.6 0 c-5 0 -5.9 -0.3 -9 -3.4z"/>
  <path d="M254.3 150.3 c-0.7 -0.2 -1.3 -2 -1.3 -3.9 l0 -3.5 5.3 0.3 5.2 0.3 0.3 3.8 0.3 3.7 -4.3 -0.1 c-2.4 0 -4.9 -0.3 -5.5 -0.6z"/>
  <path d="M306.5 140.3 c-6.3 -3.3 -8.5 -6.3 -8.5 -11.6 0 -7.3 1.1 -8.7 7 -8.7 5.9 0 9 2.4 9 7 0 3.2 2.6 7 4.7 7 0.8 0 1.3 1.4 1.3 4 l0 4 -5.2 0 c-2.9 -0.1 -6.6 -0.8 -8.3 -1.7z"/>
  <path d="M284.1 127.1 c-1.5 -2.7 -1.4 -8.4 0.1 -9.9 1.7 -1.7 9.3 -1.5 10.7 0.2 0.7 0.8 1.1 3.6 0.9 6.3 l-0.3 4.8 -5.2 0.3 c-4.3 0.3 -5.4 0 -6.2 -1.7z"/>
 </g>
 <g fill="#002a39">
  <path d="M202.1 380.4 c-3.6 -3 -6.1 -7.8 -6.1 -11.9 0 -2 0.5 -2.5 2.4 -2.5 1.4 0 3.1 0.9 4 2.1 3.4 4.9 5 5.2 11.8 2 3.5 -1.6 8.1 -4.8 10.2 -7 2.2 -2.3 4.7 -4.1 5.7 -4.1 1 0 1.9 -1.1 2.3 -2.5 0.4 -1.4 4.6 -6.8 9.4 -11.9 4.8 -5.2 11.3 -12.3 14.4 -15.8 l5.7 -6.5 8.8 -0.7 c25.2 -1.9 59.4 -17.1 81.1 -35.9 7 -6.1 17.6 -18.8 21.3 -25.7 2.1 -4 2.9 -4.5 6.3 -4.8 3.5 -0.3 3.7 -0.2 3.1 2 -1.1 3.4 -7.1 15.4 -9.8 19.3 -1.6 2.4 -2.7 3.1 -3.7 2.5 -1 -0.6 -4 1.6 -10.7 8.1 -5.2 4.9 -9.8 8.9 -10.4 8.9 -0.6 0 -0.8 0.4 -0.5 0.8 0.3 0.5 0 0.9 -0.7 0.9 -0.7 0 -5 2.4 -9.7 5.3 -19.3 12.1 -38.4 19.2 -63.3 23.5 -12.5 2.2 -13.6 3.4 -4.4 5 4.4 0.7 5 2.5 0.7 2.5 -1.7 0 -3 -0.5 -3 -1.2 0 -0.9 -0.2 -1 -0.8 -0.2 -0.4 0.6 -1.6 1.4 -2.7 1.8 -1.1 0.4 -5.1 4.6 -9 9.3 -9.6 11.9 -30.1 33.1 -34.8 36 -2.3 1.4 -6.1 2.7 -9.1 3 -4.6 0.5 -5.5 0.2 -8.5 -2.3z"/>
  <path d="M200 322.5 c0 -0.8 -0.5 -1.5 -1.1 -1.5 -0.7 0 -0.8 -1.1 -0.4 -3 0.6 -2.8 0.4 -3.1 -5 -5.5 -8.7 -4 -21.1 -11.7 -29.9 -18.4 -8.1 -6.3 -9.6 -7 -9.6 -4.8 -0.1 2.2 -8 -7.5 -8 -9.8 0 -1.5 -0.6 -2.2 -1.6 -2.1 -1.6 0.1 -4.3 -4.1 -6.5 -10.1 -0.6 -1.8 -1.5 -3.1 -1.9 -2.8 -0.7 0.4 -3.3 -5 -7 -15 -1.2 -3.3 -2.6 -7 -3.1 -8.3 -1.5 -3.8 -1.1 -6.2 1.1 -6.2 2.2 0 3.2 1.6 5.6 8.6 0.9 2.7 2.8 6.9 4.3 9.4 1.6 2.5 4 6.6 5.5 9.2 4.1 7.3 13.9 19 19.3 23.1 2.6 2 7.5 5.7 10.8 8.3 5.8 4.4 17.5 11.3 26.2 15.5 2.3 1.1 4.5 2.4 4.9 3 1.2 1.9 -0.6 11.9 -2.2 11.9 -0.8 0 -1.4 -0.7 -1.4 -1.5z"/>
  <path d="M268.2 246.9 c0.8 -2.4 0.8 -3.3 -0.2 -3.9 -1.5 -1 -0.4 -5 1.5 -5 0.7 0 1.6 0.6 1.8 1.3 0.4 0.7 0.6 0.6 0.6 -0.5 0.1 -0.9 -0.7 -1.9 -1.6 -2.1 -1.4 -0.4 -1.2 -0.5 0.5 -0.6 2.1 -0.1 3.3 -3.1 1.2 -3.1 -0.5 0 -1 -0.4 -1 -1 0 -0.5 1.1 -1 2.5 -1 1.6 0 2.5 -0.6 2.5 -1.5 0 -0.8 -0.7 -1.5 -1.5 -1.5 -1.3 0 -1.4 -0.4 -0.5 -2 1.3 -2.4 -0.5 -7.1 -3 -7.8 -0.8 -0.3 -1.2 -0.1 -0.8 0.3 0.4 0.4 -0.2 2.3 -1.2 4.3 -1.1 1.9 -1.7 3.9 -1.4 4.4 0.3 0.4 0 0.8 -0.7 0.8 -0.9 0 -0.8 0.4 0.3 1.3 2.4 1.9 3 4.7 1.2 5.4 -0.8 0.3 -2 0.1 -2.7 -0.6 -0.8 -0.8 -0.8 -1.1 0.1 -1.1 0.7 0 1.2 -0.7 1.2 -1.5 0 -0.8 -0.6 -1.5 -1.4 -1.5 -0.8 0 -1.7 -0.7 -2 -1.6 -0.9 -2.4 -0.8 -2.7 1 -2 1 0.4 1.4 0.1 1.2 -0.6 -0.7 -2 -3.8 -2.2 -3.8 -0.3 0 0.9 -0.6 1.5 -1.2 1.2 -0.7 -0.2 -1.2 -1.1 -1.2 -2 0.1 -0.9 -0.2 -1.5 -0.6 -1.2 -1 0.6 -2.2 -2.1 -2.5 -6 -0.2 -1.6 -0.8 -3.1 -1.4 -3.3 -1.8 -0.6 -1.3 -2.3 0.7 -2.1 2.9 0.3 4.2 -0.1 4.2 -1 0 -1.5 -5.9 -1 -7.1 0.6 -1.4 1.6 -6 1.8 -5.6 0.2 0.3 -1.4 -4.3 -2.2 -6.1 -1.1 -1.6 1 -2.8 23.6 -1.4 27.2 1.5 3.9 -2.4 7 -8.9 7 -4.9 0 -4.9 0 -4.9 -3.2 0 -2.5 0.3 -2.9 1.2 -2 0.7 0.7 2.4 1.2 3.9 1.2 3 0 4.9 -1.8 3.1 -2.9 -0.7 -0.4 -1.2 -5.4 -1.3 -13.1 -0.2 -15.9 -0.2 -16 1.5 -16 0.8 0 1.7 0.8 1.9 1.8 0.4 1.6 0.5 1.6 0.6 -0.1 0 -1 -0.6 -2 -1.4 -2.3 -0.8 -0.4 -1.5 -1.2 -1.5 -2 0 -0.8 0.7 -1.4 1.5 -1.4 0.8 0 1.5 -0.5 1.5 -1.1 0 -1.6 -2.1 -5.3 -3.9 -6.6 -1.4 -1.1 -1.2 -1.2 1.2 -1.3 1.6 0 3.5 -0.7 4.3 -1.5 1.7 -1.7 10.4 -2.1 10.4 -0.5 0 0.6 0.6 1 1.3 1 2.1 0 4 4.5 3.5 8.4 -0.3 3.2 -0.1 3.6 1.8 3.6 1.2 0 3.6 0.3 5.3 0.6 2.6 0.6 3.1 1.1 3.1 3.5 0 1.6 0.5 2.9 1 2.9 0.6 0 1 0.8 1 1.7 0 2.5 1.6 0.4 3 -4 0.8 -2.6 1.9 -3.9 3.6 -4.3 3.7 -0.9 11.7 0.4 13 2.1 1.5 2.1 2.4 1.9 2.4 -0.5 0 -1.8 0.7 -2 7.5 -2 5.7 0 7.5 0.3 7.5 1.4 0 2.1 7.7 2.6 9.5 0.6 0.8 -0.9 1.5 -2.2 1.5 -2.9 0 -0.8 0.8 -0.6 2.5 0.5 2.6 1.7 15.4 2.1 30.1 0.8 5.7 -0.4 7.4 -0.2 8.7 1 0.8 0.9 2 1.6 2.6 1.6 2.1 0 4.1 4.6 4.1 9.2 0 3.6 -0.4 4.8 -1.5 4.8 -0.8 0 -1.5 -0.7 -1.5 -1.6 0 -0.9 -0.7 -1.4 -1.7 -1.2 -1.2 0.2 -1.8 1.5 -2 4.3 -0.6 6.6 -0.7 7.4 -1.2 7 -0.2 -0.3 -1.3 0.3 -2.4 1.2 -1.9 1.8 -1.9 1.6 -1.6 -10.2 l0.4 -12 -3 -0.3 c-4.6 -0.6 -9.5 2.5 -9.5 6 0 1.5 0.5 2.8 1.1 2.8 0.6 0 0.8 0.7 0.5 1.7 -0.6 1.4 -0.3 1.4 1.5 -0.3 l2.2 -1.9 -0.6 4 c-0.4 2.2 -0.7 7.2 -0.7 11.2 0 8.7 -1.2 10.3 -7.6 10.3 -2.4 0 -4.4 -0.4 -4.4 -1 0 -0.5 -0.9 -1 -2 -1 -1.1 0 -2 -0.4 -2 -1 0 -0.5 -0.7 -1 -1.6 -1 -1.3 0 -1.4 -0.3 -0.5 -1.4 0.9 -1.1 0.8 -1.7 -0.4 -2.9 -1.1 -1.1 -1.5 -3.6 -1.5 -8.6 0 -7.7 -1.1 -8.5 -4.2 -3 -1 1.6 -1.4 2.8 -0.9 2.5 0.4 -0.3 0.1 1 -0.8 2.9 -2.3 4.9 -4.1 4.5 -4.1 -1 0 -3.3 -0.4 -4.5 -1.5 -4.5 -2 0 -1.9 -3.6 0.1 -4.4 2.2 -0.9 0.6 -2.8 -2.1 -2.4 -2.2 0.3 -5.5 -1.7 -5.5 -3.2 0 -0.5 0.8 -1 1.8 -1.2 3.4 -0.8 -4 -3.6 -8.3 -3.2 -6.7 0.7 -8.4 1.3 -11.5 4.5 -3.5 3.7 -4.4 7.7 -3.2 14.1 0.9 4.6 0.8 4.7 -1.6 5 -1.8 0.2 -2.8 1.2 -3.5 3.3 -0.6 1.7 -1.3 3.2 -1.6 3.5 -0.4 0.3 -1.3 2.4 -1.9 4.8 -1.1 3.4 -1.7 4.2 -3.7 4.2 -2.2 0 -2.3 -0.2 -1.3 -3.1z m64.6 -9.8 c-0.2 -2.7 -0.6 -4.7 -1 -4.5 -0.4 0.2 -0.9 -0.5 -1.3 -1.6 -1 -3.2 -2 -2.3 -1.9 1.8 0.2 5.5 0.3 5.9 2 7.6 2.3 2.4 2.5 2.1 2.2 -3.3z m-70.9 -22.2 c-1.3 -2.4 -3.9 -2.5 -3.9 -0.1 0 2.5 0.7 3.1 3 2.5 1.6 -0.4 1.8 -0.9 0.9 -2.4z m69.5 -2.1 c0.6 -0.4 2.4 -0.8 3.9 -0.8 1.6 0 2.6 -0.4 2.2 -1 -0.3 -0.5 -2.2 -1 -4 -1 -4 0 -5.8 2.3 -4.7 6.1 l0.7 2.4 0.3 -2.5 c0.2 -1.4 0.9 -2.8 1.6 -3.2z m-48.9 2.4 c0.2 -0.7 -0.2 -1.5 -1.1 -1.9 -0.8 -0.3 -1.3 -1.2 -1 -1.9 0.3 -0.8 -0.1 -1.4 -1.1 -1.4 -0.9 0 -1.4 0.3 -1.1 0.6 0.4 0.3 0.3 1.8 -0.1 3.2 -0.7 2.4 -0.5 2.7 1.5 2.7 1.3 0 2.6 -0.6 2.9 -1.3z m39.3 -4.3 c-0.7 -0.5 -2.2 -0.9 -3.2 -0.9 -1.9 0 -1.9 0 -0.1 1.4 1.1 0.8 2.5 1.1 3.3 0.8 1.1 -0.4 1.1 -0.6 0 -1.3z m-76.5 -4.9 c-0.3 -1.1 -0.8 -1.8 -1.2 -1.6 -0.4 0.3 -1.3 0.1 -2.1 -0.5 -1 -0.6 -1.1 -0.9 -0.2 -0.9 0.6 0 1.2 -0.8 1.2 -1.8 0 -1 1.2 -2.3 2.8 -2.9 l2.7 -1.1 -3 -0.1 c-4.1 -0.1 -5.2 0.8 -5.6 4.9 -0.3 2.8 0 3.5 1.4 3.4 0.9 -0.1 1.7 0.4 1.7 1.2 0 0.8 0.6 1.4 1.4 1.4 0.9 0 1.2 -0.7 0.9 -2z"/>
  <path d="M347 229.9 c0 -5.1 0.4 -7.8 1 -7.4 0.6 0.3 1 4 1 8.1 0 4.3 -0.4 7.4 -1 7.4 -0.6 0 -1 -3.4 -1 -8.1z"/>
  <path d="M204.6 231.5 c-1 -1.4 -2.4 -2.5 -3.1 -2.5 -0.6 0 -2.2 -1.2 -3.6 -2.6 l-2.4 -2.6 3.2 0.6 c2.6 0.6 3.4 0.4 4.3 -1.3 1.6 -3 3 -2.6 3 1 0 3 1.9 5.9 3.9 5.9 0.6 0 1.1 0.7 1.1 1.5 0 0.8 -0.4 1.5 -0.9 1.5 -0.5 0 -1.5 0.2 -2.3 0.5 -0.7 0.3 -2.2 -0.6 -3.2 -2z"/>
  <path d="M242.4 230.5 c-0.8 -1.9 -1.4 -6.6 -1.4 -10.5 0 -6.7 0.1 -7 2.4 -7 2.7 0 3.7 1.8 2.9 4.8 -0.4 1.7 -0.1 2 1.6 1.5 1.2 -0.3 2.1 -1.3 2.1 -2.5 0 -3.8 2.3 -1.2 4.6 5.2 2.8 7.7 2.9 8.5 0.6 4.5 l-1.7 -3 -0.3 2.8 c-0.3 2.8 -3.2 3.9 -3.2 1.1 0 -2.7 -3.5 -1.1 -3.6 1.6 -0.2 4.4 -0.4 5 -1.5 5 -0.5 0 -1.7 -1.6 -2.5 -3.5z"/>
  <path d="M297.8 232.3 c-2.9 -0.4 -4 -3.3 -1.3 -3.3 0.8 0 1.5 -0.4 1.5 -1 0 -0.5 0.7 -1 1.5 -1 0.8 0 1.5 0.5 1.5 1 0 0.6 1.4 1 3 1 3.2 0 4.4 2.5 1.3 2.6 -1 0.1 -2.5 0.3 -3.3 0.6 -0.8 0.3 -2.7 0.3 -4.2 0.1z"/>
  <path d="M165 230.9 c-1.2 -0.9 -1.2 -1 0.3 -0.5 1.4 0.5 1.8 0.1 1.7 -1.7 -0.3 -3.8 -0.1 -4.7 1.5 -4.7 1.1 0 1.5 1.1 1.5 4 0 4.2 -1.7 5.2 -5 2.9z"/>
  <path d="M190.9 229.5 c-0.2 -2.9 -0.3 -3.3 -1.4 -5.8 -0.5 -1.2 -1.1 -1.5 -1.9 -0.7 -0.9 0.7 -1.9 0.5 -3.2 -0.4 -1.8 -1.4 -1.8 -1.5 1.1 -4 1.7 -1.4 3.2 -2.1 3.3 -1.6 0.2 0.6 1.4 1 2.8 1 2 0 2.2 0.3 1.5 2.3 -0.4 1.2 -0.6 4.3 -0.4 7 0.2 2.8 0 4.7 -0.7 4.7 -0.5 0 -1.1 -1.1 -1.1 -2.5z"/>
  <path d="M298 222 c-0.8 -0.5 -2.6 -1 -3.9 -1 -1.9 0 -2.2 -0.3 -1.4 -1.1 0.6 -0.6 0.9 -1.7 0.6 -2.5 -0.3 -0.9 0.5 -1.2 2.6 -1.2 1.7 0.1 3.1 0.5 3.1 1 0 0.5 0.7 1.6 1.5 2.5 2.5 2.4 0.5 4.2 -2.5 2.3z"/>
  <path d="M166.5 211.4 c-0.3 -2.5 -0.4 -4.8 -0.1 -5.2 0.3 -0.3 0.6 0 0.6 0.6 0 0.7 0.7 1.2 1.5 1.2 1.6 0 2 3.5 0.9 6.4 -1.1 2.8 -2.2 1.7 -2.9 -3z"/>
  <path d="M162 211.6 c0 -0.9 0.7 -1.2 2 -0.9 1.1 0.3 2 0.9 2 1.4 0 0.5 -0.9 0.9 -2 0.9 -1.1 0 -2 -0.6 -2 -1.4z"/>
  <path d="M228 190.5 c0 -0.8 0.6 -1.5 1.3 -1.5 0.7 0 2.2 -0.7 3.3 -1.5 1.6 -1.3 1.7 -1.6 0.4 -2.5 -1.3 -0.8 -1.3 -1 0.3 -1 0.9 0 1.7 -0.7 1.7 -1.5 0 -0.8 0.7 -1.5 1.5 -1.5 1.1 0 1.5 1.1 1.5 4 0 2.9 -0.4 4 -1.5 4 -0.8 0 -1.5 0.7 -1.5 1.5 0 1 -1.1 1.5 -3.5 1.5 -2.4 0 -3.5 -0.5 -3.5 -1.5z"/>
  <path d="M255 190.1 c0 -0.5 1 -1.5 2.3 -2.4 2.5 -1.7 2.2 -2.5 -1.4 -3 -1.6 -0.3 -2.7 -1.4 -3.4 -3.3 -0.5 -1.6 -1.6 -3.5 -2.3 -4.3 -1.1 -1.1 -1.2 -0.5 -1 3.3 0.2 2.5 0.6 4.6 1.1 4.6 0.4 0 0.7 0.7 0.7 1.5 0 0.8 0.7 1.5 1.5 1.5 0.8 0 1.5 0.5 1.5 1.1 0 0.6 -1.6 0.9 -3.7 0.7 l-3.8 -0.3 -0.3 -6.7 c-0.2 -5.2 -0.6 -6.8 -1.7 -6.8 -0.8 0 -1.5 -0.7 -1.5 -1.5 0 -1.5 1.6 -2 5.8 -1.6 2.6 0.2 2.7 0.1 0.5 -4.3 -1.6 -3.4 -1.6 -3.7 0.3 -5.8 1.1 -1.3 1.3 -1.8 0.4 -1.2 -2 1.1 -14.3 1.2 -15.1 0 -1.1 -1.5 -3.9 0.2 -3.9 2.3 0 1.1 -1.2 3.3 -2.6 4.8 -1.4 1.5 -2.2 2.2 -1.9 1.4 0.4 -0.7 0.3 -1.6 -0.1 -2 -0.5 -0.3 -1.5 -1.7 -2.1 -3.1 -1 -2.1 -1.1 -1.6 -0.7 3.5 l0.5 6 -2.1 -5 c-2.9 -6.8 -2.6 -21.9 0.4 -24.1 2.3 -1.6 7.5 -1.8 9.6 -0.3 1.2 0.8 1.1 0.9 -0.6 0.4 -2.5 -0.7 -7.4 1 -7.4 2.5 0 0.7 0.7 0.7 2.1 -0.1 1.7 -0.9 2 -0.8 1.4 0.2 -0.6 0.9 -0.3 1.1 0.8 0.6 1.1 -0.4 1.4 -0.2 1.1 0.7 -0.3 0.8 -0.1 1.7 0.5 2.1 0.6 0.3 1.1 1.6 1.2 2.8 0 1.2 0.3 1.6 0.6 1 0.2 -0.7 1.1 -1.3 1.9 -1.3 0.8 0 1.4 -0.7 1.4 -1.5 0 -0.8 0.7 -1.5 1.5 -1.5 1.1 0 1.5 1.1 1.5 4 l0 4 4 0 4 0 0 -6.9 c0 -9 1 -10.1 9.6 -10.1 5 0 6.4 0.3 6.4 1.5 0 0.8 0.5 1.5 1.1 1.5 1.3 0 1 41.6 -0.3 44.3 -0.9 1.8 -7.8 2.5 -7.8 0.8z m5.5 -43.1 c-0.3 -0.5 -1.6 -1 -2.8 -1 -1.8 0 -1.9 0.2 -0.7 1 2 1.3 4.3 1.3 3.5 0z"/>
  <path d="M290.6 166.6 c-0.3 -1.4 -1.6 -2.6 -3.1 -3 -1.4 -0.4 -2.5 -1.1 -2.5 -1.7 0 -0.6 0.9 -0.9 2 -0.6 3.3 0.9 2.3 -0.2 -2.5 -2.4 -5.4 -2.5 -5.7 -3.9 -1 -3.9 2.3 0 3.5 0.5 3.5 1.4 0 0.7 1.3 1.6 2.9 1.9 3 0.6 4.1 2.7 4.1 8 0 3.4 -2.5 3.7 -3.4 0.3z"/>
  <path d="M332.6 156.5 c-0.3 -1 0.1 -1.5 1.3 -1.5 1.4 0 1.8 -0.8 1.9 -3.7 0.1 -2 0.7 -4 1.4 -4.4 0.9 -0.6 0.9 -1.1 -0.1 -2.3 -1.2 -1.4 -1 -1.6 1.7 -1.6 3.4 0 4.2 1.3 4.2 6.9 0 5.2 -2.3 8.1 -6.4 8.1 -2.1 0 -3.6 -0.6 -4 -1.5z"/>
  <path d="M312.3 140 c-3.4 -1.4 -2.8 -2 1.2 -1.3 2.3 0.4 3.5 0.2 3.5 -0.6 0 -0.6 -0.6 -1.1 -1.2 -1.1 -0.7 0 -2.4 -1.2 -3.7 -2.5 -1.7 -1.8 -2.1 -3.2 -1.7 -5 0.4 -1.5 0.2 -2.5 -0.4 -2.5 -0.6 0 -0.8 -0.5 -0.5 -1 0.3 -0.6 -0.1 -1.3 -0.9 -1.6 -2.7 -1.1 -1.7 -2.4 1.7 -2.4 1.9 0 4.4 0.9 5.6 1.9 1.3 1.1 2.7 2.1 3.1 2.3 0.5 0.2 1.2 3.6 1.6 7.6 l0.7 7.2 -3.4 -0.1 c-1.9 0 -4.4 -0.4 -5.6 -0.9z"/>
 </g>
 <g fill="#003746">
  <path d="M200.6 372.4 c-3 -3 -3.5 -3.3 -4 -1.7 -0.7 2.6 0 -7 1.7 -24.2 0.9 -8.2 1.7 -18.8 1.8 -23.4 l0.2 -8.5 -6.9 -3.8 c-3.8 -2.1 -9.2 -5 -12.1 -6.4 -2.9 -1.5 -8.1 -5 -11.7 -7.8 -3.6 -2.8 -8.6 -6.6 -11.1 -8.5 -5.1 -3.8 -15.1 -15.7 -19.1 -22.9 -1.5 -2.6 -3.9 -6.7 -5.5 -9.2 -1.5 -2.5 -3.5 -6.7 -4.4 -9.5 -0.9 -2.7 -2.2 -5.9 -3 -7.1 -1.9 -3 -3.5 -12.5 -3.5 -21.4 0 -8.9 1.5 -11 8 -11 3.6 0 4 0.3 4 2.5 0 2.2 0.4 2.5 3.5 2.5 l3.5 0 0 4.9 c0 2.8 0.4 5.2 0.9 5.5 0.4 0.3 1.1 2.5 1.3 4.9 0.3 2.5 1.3 5.9 2.2 7.7 0.9 1.8 1.6 4.1 1.6 5.2 0 1 0.4 1.8 0.8 1.8 0.4 0 1.4 1.7 2.1 3.8 0.8 2 1.7 3.9 2 4.2 1.6 1.3 3.1 5.3 3.1 8 0 2.4 0.4 3 2.1 3 1.7 0 2 0.5 1.7 3.7 -0.2 3 -0.8 3.8 -2.8 4.4 -2.8 0.7 -2.9 0.6 6.5 4 3.3 1.1 6.8 3 7.7 4.1 2.6 3 8.7 6.8 10.8 6.8 1 0 2 0.4 2.2 0.8 0.2 0.4 2.4 2 5.1 3.5 2.6 1.5 4.7 3.2 4.7 3.7 0 0.6 0.4 1 1 1 0.5 0 3.9 1.3 7.4 3 3.6 1.6 8.7 3.7 11.5 4.6 3.2 1 5.1 2.2 5.1 3.2 0 0.8 0.7 2 1.6 2.7 1.4 1 1.5 2.7 0.9 13.3 -0.6 9.4 -1 12.2 -2.1 12.2 -0.8 0 -1.4 1 -1.4 2.5 0 1.4 0.4 2.5 0.9 2.5 0.4 0 1.3 1.5 1.8 3.3 l1 3.2 3.4 -3.9 c1.9 -2.1 9 -9.9 15.7 -17.2 l12.4 -13.4 8.6 0 c4.8 0 11.6 -0.5 15.2 -1 5.9 -1 9.4 -1.9 26 -6.7 5.4 -1.6 16 -7.1 16 -8.4 0 -0.3 3.3 -0.9 7.3 -1.3 3.9 -0.4 7.4 -1.1 7.5 -1.6 0.2 -0.6 1.6 -1.1 3 -1.1 2.4 -0.2 2.4 -0.2 0.5 -0.6 -1.9 -0.4 -2.3 -1.1 -2.3 -3.9 0 -3.2 0.2 -3.4 3.3 -3.4 2.4 0 4.3 -1.1 7.7 -4.4 2.5 -2.4 5.4 -5.6 6.4 -7.1 1.8 -2.6 2.2 -2.7 7.7 -2.2 4.7 0.4 6.1 0.2 7.4 -1.3 1.5 -1.7 8.5 -12.9 8.5 -13.6 0 -0.2 -0.9 -0.4 -1.9 -0.4 -2.6 0 -6.1 -5.1 -6.1 -8.8 0 -1.6 0.9 -5 2 -7.6 2 -4.5 2.2 -4.6 6.5 -4.6 2.5 0 4.5 0.5 4.5 1 0 0.6 0.7 1 1.5 1 1.1 0 1.5 1.3 1.5 5.4 0 3.8 0.4 5.5 1.4 5.8 2.4 0.5 -1.9 12.7 -4.9 13.8 -1.3 0.5 -3.4 2.9 -4.6 5.2 -3.2 6.3 -14 19.3 -21.1 25.5 -18 15.6 -47.8 30.3 -69.8 34.3 -3.6 0.7 -8.1 1.5 -10.1 1.9 -1.9 0.5 -5 0.7 -6.9 0.7 -2.9 -0.1 -4 0.7 -8.9 6.3 -3.1 3.5 -9.2 10.2 -13.7 15 -4.4 4.7 -8.6 9.5 -9.2 10.7 -1 1.9 -0.9 2.1 1.3 1.6 1.4 -0.2 2.5 0 2.5 0.6 0 1.7 -2.2 2.6 -5.5 2.3 -2.4 -0.2 -3.8 0.6 -7 3.9 -4.6 4.9 -14.9 10 -19.9 10 -2.7 0 -4.3 -0.8 -7 -3.6z"/>
  <path d="M376 228.5 c0 -0.9 -0.9 -1.5 -2.5 -1.5 -2.8 0 -2.9 -0.7 -1.9 -8.4 0.6 -4 1 -4.6 3 -4.6 1.8 0 2.5 -0.7 3 -2.7 1.1 -4.8 3.2 -6.3 8.6 -6.3 l4.8 0 0 8.2 c0 8.6 -1.5 14.8 -3.7 14.8 -0.7 0 -1.3 0.5 -1.3 1 0 0.6 -2.2 1 -5 1 -3.8 0 -5 -0.4 -5 -1.5z"/>
  <path d="M365 171 l0 -5 3.4 0 c3.6 0 4.6 1.5 4.6 7.3 0 2.5 -0.3 2.7 -4 2.7 l-4 0 0 -5z"/>
  <path d="M356.4 159 c-0.4 -1.6 -1.3 -3 -2 -3 -0.9 0 -1.4 -1.2 -1.4 -3.5 0 -3.3 0.2 -3.5 3.5 -3.5 1.9 0 3.5 0.5 3.5 1 0 0.6 0.6 1 1.4 1 1.3 0 2.6 4.1 2.6 8.6 0 2.1 -0.5 2.4 -3.5 2.4 -3.1 0 -3.6 -0.3 -4.1 -3z"/>
  <path d="M147.4 155.8 c0.4 -2.9 0.6 -7.8 0.6 -10.8 -0.1 -5.2 0.2 -5.8 5 -11.2 10.1 -11.3 26 -22.7 31.8 -22.8 1.2 0 3.5 -1.3 5.1 -2.8 1.7 -1.5 4.2 -3.4 5.8 -4.1 1.5 -0.7 3.5 -1.7 4.5 -2.2 0.9 -0.4 3.9 -1.1 6.7 -1.5 4.4 -0.6 5.4 -0.4 6.9 1.4 1.2 1.4 3.6 2.3 7 2.8 5.1 0.6 5.2 0.7 5.2 3.9 0 2.8 -0.4 3.3 -3.1 3.9 -1.7 0.3 -4.4 0.6 -6 0.6 -1.9 0 -2.9 0.5 -2.9 1.5 0 1 -1.1 1.5 -3.5 1.5 -3.1 0 -3.5 -0.3 -3.5 -2.5 0 -1.4 -0.3 -2.5 -0.6 -2.5 -1.6 0 -5.4 5.8 -5.4 8.3 0 2.4 -0.3 2.7 -3.5 2.7 -3 0 -3.5 -0.4 -3.5 -2.2 -0.1 -2.1 -0.2 -2.1 -1.1 -0.5 -0.6 1 -2.4 3.1 -4 4.8 -1.6 1.6 -2.9 3.7 -2.9 4.5 0 1.4 -4.7 6.3 -6.2 6.4 -0.3 0 -2.7 2 -5.2 4.5 -2.6 2.5 -5 4.5 -5.4 4.5 -0.4 0 -1.3 1.4 -2 3 -0.8 1.8 -2.1 3 -3.3 3 -1.2 0 -1.9 0.7 -1.9 1.8 0 1.1 -0.9 2.9 -2 4.2 -1.1 1.3 -2 2.9 -2 3.7 0 0.9 -1.6 1.3 -5.6 1.3 l-5.6 0 0.6 -5.2z"/>
  <path d="M340.6 141 c-3.3 -3.3 -9.7 -8.8 -14.3 -12.2 -4.5 -3.4 -8.3 -6.7 -8.3 -7.3 0 -1.6 -2.3 -2.5 -6.6 -2.5 -2.2 0 -3.4 -0.5 -3.4 -1.4 0 -0.8 -1.4 -1.6 -3.2 -1.9 -5.6 -0.9 -13.3 -2.9 -13.8 -3.6 -0.6 -0.8 -11.7 -2.8 -23 -4.2 -4.1 -0.6 -12.1 -0.7 -17.7 -0.3 l-10.3 0.6 0 -3.6 c0 -2.4 0.5 -3.6 1.4 -3.6 0.8 0 1.6 -0.7 2 -1.5 0.4 -1.2 2.7 -1.5 11.5 -1.5 9.4 0 11.1 0.3 12 1.7 0.8 1.5 1.2 1.6 3.5 0.4 3.2 -1.7 13.6 -0.9 15.1 1.3 0.7 0.9 3.8 1.7 8.3 2.1 4 0.4 7.2 1.2 7.2 1.6 0 0.5 1.1 0.9 2.4 0.9 2.9 0 8.6 1.9 8.6 3 0 0.4 2 1.3 4.4 1.9 2.5 0.6 5.1 1.8 6 2.6 0.8 0.8 2.1 1.5 2.9 1.5 0.9 0 1.7 0.4 1.9 0.8 0.2 0.5 3.5 2.3 7.3 4.1 4.7 2.2 8.7 5.1 12.2 8.7 6.3 6.5 8.5 10.5 8.1 14.7 -0.3 3 -0.6 3.2 -4.3 3.4 -3.7 0.2 -4.5 -0.2 -9.9 -5.7z"/>
  <path d="M316.5 138.6 c1.8 -1.3 1.8 -1.5 0.2 -3 -1.4 -1.4 -1.5 -2.2 -0.6 -3.9 0.8 -1.4 0.9 -2.2 0.1 -2.5 -0.5 -0.1 -2.3 -1.4 -3.9 -2.8 l-2.8 -2.4 3.8 0 c2.5 0 3.7 0.4 3.7 1.4 0 0.8 1 1.6 2.3 1.8 2 0.3 2.2 0.9 2.5 6.6 l0.3 6.2 -3.7 0 c-3.5 0 -3.6 -0.1 -1.9 -1.4z"/>
  <path d="M227.4 108.7 c-0.3 -0.9 -0.4 -3 -0.2 -4.9 0.3 -3.1 0.5 -3.3 4.6 -3.6 l4.3 -0.3 -0.3 4.8 c-0.3 4.8 -0.3 4.8 -4.1 5.1 -2.6 0.2 -3.9 -0.1 -4.3 -1.1z"/>
 </g>
 <g fill="#003f51">
  <path d="M215.8 352.3 c-1 -0.3 -1.8 -0.9 -1.8 -1.5 0 -0.5 0.8 -0.7 1.8 -0.4 1.6 0.6 1.6 0.5 0 -0.8 -2.2 -1.6 -2.3 -2.6 -0.4 -2.6 0.8 0 1.6 -0.6 1.9 -1.4 0.7 -1.8 -0.3 -5.6 -1.4 -5.6 -0.5 0 -0.9 -2.5 -0.9 -5.5 0 -4.2 0.3 -5.5 1.5 -5.5 0.8 0 1.5 -0.7 1.5 -1.5 0 -0.8 0.7 -1.5 1.5 -1.5 2.4 0 2.2 22 -0.2 24.7 -1 1.1 -2.6 1.8 -3.5 1.6z"/>
  <path d="M223 344.2 c0 -3.6 1.6 -5.2 5.2 -5.2 2.8 0 2.8 0.1 1.3 2.4 -0.9 1.4 -2.7 3.2 -4.1 4.1 -2.3 1.5 -2.4 1.5 -2.4 -1.3z"/>
  <path d="M218.9 315.3 c-0.1 -1 0 -2.6 0 -3.6 0.1 -0.9 -0.5 -2 -1.3 -2.3 -0.9 -0.3 -1.6 -1.5 -1.6 -2.5 0 -1.2 -0.9 -2.1 -2.5 -2.5 -1.4 -0.3 -2.5 -1.2 -2.5 -2 0 -1.7 4.9 -1.9 8.5 -0.2 2.3 1 2.5 1.6 2.5 8 0 5.4 -0.3 6.8 -1.5 6.8 -0.8 0 -1.6 -0.8 -1.6 -1.7z"/>
  <path d="M259.8 312.3 c-1 -0.2 -1.8 -1.1 -1.8 -1.9 0 -1 1.4 -1.4 5.5 -1.4 4 0 5.5 0.4 5.5 1.4 0 2.1 -4.8 3.1 -9.2 1.9z"/>
  <path d="M298 304.1 c0 -1.2 0.9 -2.2 2.3 -2.6 4.9 -1.5 19.6 -9.1 26.7 -13.9 8.8 -5.9 23 -19.8 28.2 -27.7 8.7 -13.1 14.5 -27.6 16.9 -41.6 1.4 -8.5 0.2 -20.4 -3.3 -31.8 -2.1 -6.6 -10.6 -25.2 -12.8 -27.8 -6.1 -7.3 -9 -11.9 -9 -14.2 0 -2.3 0.2 -2.5 1.5 -1.5 2.4 2 3.7 0.2 2 -3.1 -3.8 -7.2 -18.6 -19.2 -21.6 -17.3 -0.4 0.2 -0.9 -0.3 -1.3 -1.1 -0.6 -1.6 -3.6 -2.1 -3.6 -0.6 0 0.5 1.2 1.9 2.6 3 l2.7 2.1 -3.5 0 c-3.5 0 -14.8 -5.4 -14.8 -7.1 0 -0.5 -0.8 -0.9 -1.7 -0.9 -2.2 0 -12.4 -3.8 -13.8 -5.1 -0.5 -0.5 -1.9 -0.9 -3.2 -0.9 -1.2 0 -4.6 -0.6 -7.6 -1.4 -2.9 -0.8 -9.2 -1.7 -14 -2.1 -7.1 -0.6 -9 -1.1 -9.8 -2.6 -0.8 -1.6 -0.6 -1.9 1.1 -1.9 1.3 0 2 -0.5 1.8 -1.2 -0.3 -0.9 -3 -1.3 -8.9 -1.3 -7 0 -8.4 0.3 -8.7 1.7 -0.2 1.2 0.2 1.5 1.7 1.1 1.6 -0.4 1.9 -0.1 1.4 1.5 -0.4 1.6 -1.6 2.1 -7.1 2.7 -3.7 0.3 -10.5 1.8 -15.2 3.2 -4.7 1.3 -9.4 2.7 -10.5 3 -1.1 0.3 -4.8 1.8 -8.3 3.4 -3.5 1.6 -6.5 2.9 -6.7 2.9 -0.2 0 -3.8 2 -7.8 4.5 -5 3 -8.6 4.5 -10.8 4.5 -3.1 -0.1 -3.3 -0.2 -1.5 -1.5 1 -0.7 1.6 -1.9 1.4 -2.7 -0.3 -0.7 1.3 -3 3.4 -5.1 4.4 -4.4 4.6 -5.3 1.7 -6 -3.4 -0.9 -11.3 2.6 -17.1 7.6 -2.9 2.5 -7.5 6.5 -10.3 8.8 -8 6.7 -8.9 8.4 -9 15.8 -0.1 3.6 -0.5 7.6 -0.9 8.9 -0.7 1.9 -0.5 2.2 1.7 2.2 1.7 0 2.6 -0.7 3.1 -2.3 0.3 -1.2 0.1 -2.3 -0.4 -2.5 -1.6 -0.6 -1.2 -2.2 0.5 -2.2 0.8 0 1.5 0.6 1.5 1.3 0 0.6 0.6 0.3 1.2 -0.7 0.8 -1.5 0.8 -2.1 0 -2.4 -2.3 -0.7 -1.2 -2.2 1.6 -2.2 3.3 0 6.3 -3.7 4 -5.1 -0.9 -0.6 -0.7 -0.9 0.8 -0.9 1.2 0 4.1 -1.8 6.5 -4 3.6 -3.3 4.1 -4.2 2.9 -5 -1.1 -0.7 -0.6 -0.9 1.7 -0.7 2.7 0.2 3.3 0.6 3.3 2.5 0 1.3 -0.6 2.2 -1.5 2.2 -0.8 0 -1.5 0.7 -1.5 1.5 0 0.8 -0.9 1.5 -2 1.5 -1.3 0 -2 0.7 -2 1.8 0 2.3 -3 5.2 -5.3 5.2 -1.1 0 -1.7 0.8 -1.7 2.3 0 1.2 -1.1 3.4 -2.5 4.9 -1.4 1.5 -2.5 3.2 -2.5 3.7 0 0.6 -0.6 1.4 -1.3 1.8 -1.9 1.2 -10.2 18.9 -12.5 26.8 -4.6 15.5 -5 30.1 -1.1 43.6 1 3.6 1.9 7.6 1.9 8.8 0 1.1 0.5 2.1 1 2.1 0.6 0 1 1.8 1 4 0 3 0.4 4 1.6 4 0.9 0 1.8 0.9 2.1 2 0.3 1.1 0.9 2 1.4 2 0.5 0 0.9 0.9 0.9 2 0 1.1 0.4 2 0.9 2 0.5 0 3.2 3.1 6 6.8 6 8.2 21.8 23.2 24.3 23.2 0.4 0 0.8 1.2 0.8 2.6 0 2.1 -0.3 2.5 -1.7 1.9 -1 -0.4 -2.9 -1 -4.1 -1.3 -1.8 -0.3 -2 -0.7 -1 -1.3 0.9 -0.6 0.7 -0.9 -0.9 -0.9 -2.5 0 -9 -4.1 -10.9 -6.8 -0.7 -1 -4.5 -2.9 -8.5 -4.3 -5.5 -1.8 -7.6 -3.1 -8.8 -5.1 -0.9 -1.6 -1.9 -2.8 -2.3 -2.8 -0.5 0 -0.8 -1.4 -0.8 -3 0 -2.6 -0.5 -3.1 -3 -3.6 -2.6 -0.6 -3 -1.1 -3 -3.9 0 -1.7 0.3 -3.5 0.7 -3.8 1 -1 3.3 1.3 3.3 3.3 0 1.1 1.2 2.2 3 2.9 1.7 0.5 2.8 0.6 2.5 0.1 -0.3 -0.4 -0.1 -1 0.5 -1.2 1.7 -0.5 -1.3 -5.8 -3.2 -5.8 -1 0 -1.8 -0.4 -1.8 -1 0 -0.5 0.4 -1 0.9 -1 0.5 0 0.4 -1.3 -0.2 -3 -0.7 -1.8 -1.9 -3 -2.9 -3 -1 0 -1.8 -0.4 -1.8 -1 0 -0.5 0.5 -1 1 -1 1.9 0 1 -3.2 -1 -3.7 -2.3 -0.6 -2.6 -1.9 -0.7 -2.6 0.7 -0.3 0.5 -0.6 -0.5 -0.6 -2.1 -0.1 -2.4 -1.7 -0.5 -2.4 0.7 -0.3 0.5 -0.6 -0.5 -0.6 -1.9 -0.1 -2.6 -2.1 -0.8 -2.1 0.6 0 1 -0.4 1 -1 0 -0.5 -0.7 -1 -1.5 -1 -0.8 0 -1.5 -0.7 -1.5 -1.6 0 -1 0.5 -1.4 1.6 -1 0.8 0.3 1.2 0.2 0.9 -0.4 -0.3 -0.6 -1.3 -1 -2.1 -1 -0.8 0 -1.4 -0.5 -1.4 -1.1 0 -0.6 -0.6 -0.9 -1.4 -0.6 -1.9 0.7 -3.6 -3.5 -3.6 -8.8 0 -4.9 -0.9 -5.5 -4 -2.8 -1.5 1.3 -2 3 -2 6.8 -0.1 4.8 -0.1 4.9 -1.5 2.5 -2.6 -4.6 -1.7 -24.4 1.6 -36.5 4.4 -15.6 12.8 -32.7 21.6 -44.3 13.3 -17.4 36.6 -33.8 60 -42.2 41.9 -15 90.7 -10.1 127.1 12.7 5.1 3.2 19.7 15.1 23.2 18.9 12.7 13.8 24.5 34.6 29.5 51.9 4.1 14.1 5.2 29.5 3.2 43.6 -2.2 14.9 -4.2 21.9 -6.5 21.9 -1.5 0 -1.5 0.2 -0.2 1 1.3 0.8 1.3 1 -0.1 1 -0.9 0 -2 0.8 -2.4 1.7 -2.9 7.6 -15.5 24.8 -15.5 21.2 0 -0.7 -1.1 -0.8 -3 -0.4 -1.9 0.4 -3 0.3 -3 -0.4 0 -2.1 -2.9 -1.1 -4.7 1.5 -1 1.5 -3.8 4.5 -6.2 6.8 -5.4 5.1 -7.3 8.8 -6.9 13.3 0.2 2.8 -0.2 3.9 -2 5.1 -1.9 1.3 -2.2 1.3 -1.7 0 1.1 -2.7 -3.6 -4.1 -9.5 -2.9 -2.8 0.6 -5.6 0.9 -6.1 0.5 -0.5 -0.3 -0.9 -0.2 -0.9 0.3 0 2.3 -17.3 10.3 -22.2 10.3 -1.1 0 -1.8 -0.7 -1.8 -1.9z m42 -10.6 c0 -0.8 -0.7 -1.5 -1.5 -1.5 -0.8 0 -1.5 0.7 -1.5 1.5 0 0.8 0.7 1.5 1.5 1.5 0.8 0 1.5 -0.7 1.5 -1.5z m39.3 -47.4 c2.2 -3.7 2.3 -10.1 0.2 -10.1 -0.8 0 -1.5 -0.4 -1.5 -1 0 -2.7 -3.1 -0.5 -4.9 3.6 l-2.1 4.6 2.1 2.9 c2.6 3.7 4 3.7 6.2 0z m3.7 -20.1 c0 -0.5 0.6 -1 1.3 -1 1.9 0 3.7 -5.8 3.7 -11.8 0 -4.4 -0.3 -5.2 -1.8 -5.2 -3 0 -4.9 3 -6.1 9.4 -1.5 8.4 -1.4 9.6 0.9 9.6 1.1 0 2 -0.4 2 -1z m-244 -8.1 c0 -1.9 -0.5 -2.9 -1.5 -2.9 -1 0 -1.5 1.1 -1.5 3.5 0 2.6 0.3 3.3 1.5 2.9 0.9 -0.4 1.5 -1.9 1.5 -3.5z m183.9 -99.8 c-1.5 -0.5 -2.2 0.6 -1.4 1.9 0.6 0.9 1 0.9 1.6 -0.1 0.5 -0.8 0.4 -1.5 -0.2 -1.8z m-7.5 -3 c0.3 -0.5 -0.5 -1.1 -1.9 -1.3 -1.7 -0.4 -2.5 -0.1 -2.5 0.8 0 1.5 3.6 1.9 4.4 0.5z m-115.8 -3.4 c1.3 -1.4 2.4 -3.1 2.4 -3.7 0 -1.2 1.3 -1.2 6.1 -0.1 3 0.7 3.6 0.6 3.5 -0.8 -0.2 -2.5 -1.8 -3.8 -4.1 -3.4 -6.8 1.5 -16.5 7.4 -16.5 10.2 0 2 6.1 0.5 8.6 -2.2z m108.8 0.4 c0.3 -0.5 -0.8 -1.4 -2.4 -2 -2.4 -0.8 -3 -0.7 -3 0.4 0 2.1 4.3 3.4 5.4 1.6z m-10.1 -3.1 c-0.3 -1.1 -1.4 -2 -2.4 -2 -2.7 0 -2.4 2.8 0.4 3.3 1.2 0.2 2.3 0.5 2.4 0.6 0 0 -0.1 -0.8 -0.4 -1.9z m-79.3 0.1 c0 -1 -3 -2.4 -3.7 -1.7 -0.3 0.3 -0.2 0.9 0.2 1.5 0.8 1.3 3.5 1.5 3.5 0.2z m14 -4.7 c0 -1.6 -1.6 -1.9 -2.5 -0.4 -0.8 1.3 0.4 3.2 1.6 2.5 0.5 -0.4 0.9 -1.3 0.9 -2.1z m49.3 -0.5 c-1.6 -1.6 -8.5 -1.6 -9.1 0 -0.3 1 0.1 1.2 1.7 0.8 1.1 -0.3 2.1 -0.1 2.1 0.3 0 1.1 5.4 1.7 5.9 0.7 0.2 -0.5 -0.1 -1.3 -0.6 -1.8z"/>
  <path d="M195.6 297.3 c-3.6 -1.5 -7.6 -4.6 -7.6 -5.8 0 -0.3 1.3 -0.5 2.9 -0.5 4.3 0 9.1 3 9.1 5.8 0 1.2 -0.1 2.2 -0.2 2.1 -0.2 0 -2.1 -0.7 -4.2 -1.6z"/>
  <path d="M361.9 278.3 c1.2 -1.8 2.4 -3.3 2.7 -3.3 0.9 0 -1.5 3.7 -3.3 5.1 -1.2 1 -1.1 0.5 0.6 -1.8z"/>
 </g>
 <g fill="#9ac1c6">
  <path d="M236.5 314.3 c-1.6 -0.3 -3.5 -1.2 -4.2 -2.1 -1.8 -2.4 -1.6 -7.9 0.3 -8.6 2.6 -1 15.4 -0.7 17.5 0.4 2.3 1.3 2.6 7.4 0.5 9.6 -1.4 1.4 -7.3 1.7 -14.1 0.7z"/>
  <path d="M207.8 302.7 c-4.6 -1.8 -3.5 -3.7 2.2 -3.7 4.7 0 5 0.2 5 2.5 0 2.8 -2.3 3.2 -7.2 1.2z"/>
 </g>
 <g fill="#adcecf">
  <path d="M244.5 315.6 c-3.8 -0.5 -7.2 -1.3 -7.5 -1.7 -0.3 -0.5 -4.5 -1.2 -9.3 -1.5 -8.7 -0.7 -8.7 -0.7 -8.7 -3.5 0 -2.3 -0.6 -3 -3.5 -4 -1.9 -0.7 -3.5 -1.5 -3.5 -1.9 0 -0.3 -1.4 -0.6 -3.1 -0.7 -3.8 -0.3 -13.1 -4.9 -23.4 -11.8 -27.2 -18.1 -44 -45.4 -46.1 -74.9 -0.8 -10.7 0 -16.6 2.1 -16.6 1.2 0 1.5 1.8 1.5 9 0 5.3 0.4 9 1 9 0.6 0 1 1.4 1 3 0 2.5 0.4 3 2.4 3 2 0 2.5 0.7 3.1 4.3 0.6 3 0.9 3.6 1.2 2 0.3 -1.5 1.2 -2.3 2.4 -2.3 1.7 0 1.9 0.7 1.9 6.5 0 7.9 0.8 8.6 11.4 8.2 5.8 -0.2 7.6 0 7.6 1 0 0.8 0.7 1.6 1.5 1.9 0.8 0.4 1.5 1.1 1.5 1.6 0 1.1 5 6.7 12 13.5 16.4 15.9 45.6 27.5 69.5 27.5 12.3 0.1 23.5 -2 38.4 -7.2 13.2 -4.6 17.1 -5 17.1 -2 0 1.1 0.5 2 1 2 0.6 0 1 1.4 1 3.1 0 4.9 1.6 6.9 5.5 6.9 14.3 0 -18.2 16.5 -40.5 20.6 -4.1 0.7 -11.5 1.3 -16.4 1.4 -7.9 0 -9.3 0.3 -11.5 2.3 -2.4 2.1 -3 2.2 -9.6 1.3z m3.3 -5.2 c1.5 -1.5 1.4 -1.8 -0.3 -3 -1.9 -1.4 -9.1 -1.9 -11.9 -0.8 -1.2 0.5 -1.3 0.9 -0.3 2.5 1.3 2.1 4.3 2.5 5 0.7 0.3 -0.9 0.7 -0.7 1.2 0.5 0.9 2.1 4.1 2.2 6.3 0.1z"/>
 </g>
 <g fill="#c3dbd7">
  <path d="M233.3 334.3 c-1.9 -0.7 -1.7 -8.3 0.2 -8.3 0.8 0 1.5 -0.4 1.5 -1 0 -0.5 0.8 -1 1.8 -1 1 0 2.3 -0.5 2.9 -1.1 0.6 -0.6 2.3 -0.9 3.9 -0.7 l2.8 0.3 -5.9 6.2 c-3.3 3.4 -6.6 5.9 -7.2 5.6z"/>
  <path d="M323 293.9 c0 -0.7 -1 -0.9 -3 -0.6 -3.6 0.8 -6 -2 -6 -7.1 0 -2 -0.4 -3.1 -1 -2.7 -0.6 0.3 -1 -0.5 -1 -1.9 0 -2.5 0 -2.5 -4 -1.1 -3.9 1.4 -4 1.3 -4 -0.8 0 -1.7 1.2 -2.7 5.3 -4.5 2.8 -1.2 6.9 -2.2 8.9 -2.2 3.3 0 4.1 0.5 6.3 4 3.8 5.9 5.7 8 7.7 8 3.1 0 1.9 2.8 -2.4 5.8 -6.3 4.2 -6.8 4.4 -6.8 3.1z"/>
  <path d="M184.1 259.9 l-3.5 -3.4 2.8 -0.3 c3.6 -0.4 4.8 0.8 4.4 4.4 l-0.3 2.8 -3.4 -3.5z"/>
  <path d="M172 245.5 c0 -0.8 -0.7 -1.5 -1.5 -1.5 -0.8 0 -1.5 -0.6 -1.5 -1.4 0 -0.9 0.7 -1.2 2 -0.9 1.3 0.3 2 1.4 2 2.9 0 1.3 -0.2 2.4 -0.5 2.4 -0.3 0 -0.5 -0.7 -0.5 -1.5z"/>
  <path d="M151.4 236.5 c0.5 -1.8 0.2 -2.5 -0.9 -2.5 -0.8 0 -1.6 0.6 -1.6 1.3 -0.1 0.6 -0.4 -0.1 -0.8 -1.8 -0.5 -2.3 -1.2 -3.1 -3.4 -3.3 -2.7 -0.3 -3.1 -1.3 -3 -8.4 0 -1 -0.5 -1.8 -1 -1.8 -1.1 0 -0.3 -29.1 0.8 -32.7 1.3 -4.1 3.5 -2.7 3.5 2.2 0 3.8 0.6 5.1 3.5 8.2 1.9 2 3.5 3.2 3.5 2.5 0 -0.7 1.2 -1.2 2.6 -1.2 1.4 0 2.3 0.4 2 0.9 -0.3 0.5 -0.7 9.1 -0.8 19.1 -0.3 18.2 -0.3 18.3 -2.7 19.1 -2.1 0.8 -2.3 0.7 -1.7 -1.6z"/>
 </g>
 <g fill="#d1e1da">
  <path d="M226.5 337.3 c0.8 -8.4 2.5 -11.2 10.1 -16.8 4.8 -3.7 6.7 -4.5 10.2 -4.5 2.3 0 4.2 0.3 4.2 0.7 0 0.3 -2.2 2.9 -4.8 5.7 -3.1 3.2 -5.5 5 -6.6 4.8 -1.1 -0.3 -1.6 0 -1.2 0.7 0.4 0.7 -0.1 1.1 -1.3 1.1 -2.3 0 -2.9 1.6 -0.9 2.2 0.8 0.3 -0.8 2.8 -4.1 6.6 -2.9 3.4 -5.5 6.2 -5.8 6.2 -0.3 0 -0.2 -3 0.2 -6.7z"/>
  <path d="M219 311.1 c0 -2.6 1.3 -3.3 4.5 -2.5 3.1 0.8 3.3 3 0.3 3.8 -3.8 1 -4.8 0.7 -4.8 -1.3z"/>
  <path d="M250.8 290.3 c-2 -0.3 -2.8 -1 -2.8 -2.4 0 -1.5 0.7 -1.9 3.5 -1.9 3.1 0 3.5 0.3 3.5 2.5 0 1.4 -0.3 2.4 -0.7 2.4 -0.5 -0.1 -2 -0.4 -3.5 -0.6z"/>
  <path d="M262 288.5 c0 -2.3 0.4 -2.5 4.3 -2.5 10.2 0 30.5 -6.1 48.1 -14.5 10 -4.8 13.5 -4.7 17 0.4 4 5.7 6.5 7.8 7.5 6.2 0.5 -0.7 2.2 -1.1 4.1 -0.9 l3.4 0.3 -7.5 6.3 c-4 3.4 -7.5 5.8 -7.7 5.2 -0.2 -0.5 -1.1 -1 -2.1 -1 -1.9 0 -3.9 -2.1 -7.6 -8 -1.4 -2.2 -2.9 -4 -3.4 -4 -0.4 0 -3.8 1.3 -7.4 3 -13.6 6.1 -27.3 9.8 -42.9 11.4 -5.7 0.6 -5.8 0.6 -5.8 -1.9z"/>
  <path d="M239.3 288.7 c-4.1 -0.8 -5.3 -1.4 -5.3 -2.8 0 -2.1 1.8 -2.3 8.3 -1.3 3.1 0.6 3.7 1.1 3.7 3 0 1.3 -0.3 2.3 -0.7 2.3 -0.5 -0.1 -3.2 -0.6 -6 -1.2z"/>
  <path d="M225 284.7 c-14.8 -5.1 -21.5 -9.7 -14.3 -9.7 3.2 0 13.3 4 13.3 5.2 0 0.4 1 0.8 2.3 0.8 4.6 0 6.7 1.2 6.7 3.6 0 2.9 0.1 2.9 -8 0.1z"/>
  <path d="M198.9 272.1 c-4.2 -2.8 -8.2 -5.7 -8.9 -6.5 -1.1 -1.4 -0.8 -1.6 2.4 -1.6 2 0 3.6 0.5 3.6 1 0 0.6 0.7 1 1.5 1 0.8 0 1.5 0.3 1.5 0.8 0 0.4 1.8 1.6 4 2.6 3.3 1.6 4 2.4 4 4.8 0 1.5 -0.1 2.8 -0.3 2.8 -0.2 0 -3.7 -2.2 -7.8 -4.9z"/>
  <path d="M177.3 252.6 c-1.3 -1.3 -2.3 -2.9 -2.3 -3.5 0 -0.6 -0.5 -1.1 -1 -1.1 -0.6 0 -1.4 -0.8 -1.7 -1.7 -0.4 -1 -1.4 -2.3 -2.2 -3 -2.3 -1.6 -1.1 -2.1 2.7 -1.1 1.8 0.5 3.6 1.7 3.9 2.6 0.4 0.9 1.3 2.2 2.1 2.7 0.8 0.7 1.2 2.4 1 4.3 l-0.3 3.1 -2.2 -2.3z"/>
  <path d="M292.8 231.8 l-2.3 -2.3 5.4 -0.3 c6.2 -0.4 8.7 1.1 5.7 3.4 -2.9 2 -6.3 1.7 -8.8 -0.8z"/>
  <path d="M148.6 203.5 c-1.4 -1.3 -2.6 -2.1 -2.6 -1.7 0 0.4 -1.2 -1.1 -2.5 -3.3 -2.9 -4.7 -2.7 -9.5 0.8 -19.6 2.6 -7.3 4.7 -8.9 4.7 -3.5 0 2.4 0.5 3.6 1.4 3.6 0.7 0 3.4 1.9 6 4.3 4.3 4 4.6 4.7 4.6 9.3 0 4.4 -0.3 5.1 -3 6.6 -2.1 1.2 -3 2.5 -3 4.3 0 3.3 -2.8 3.3 -6.4 0z"/>
 </g>
 <g fill="#f4f6e8">
  <path d="M217.7 336.3 c0.3 -9.2 0.8 -19 1.2 -21.8 l0.6 -5 5.5 -0.3 c3 -0.2 8 0.3 11 1.2 3 0.8 8.3 1.8 11.8 2.1 3.4 0.4 6.2 1 6.2 1.4 0 1.5 -5.1 5.5 -7 5.6 -3 0 -13.5 8.2 -15.6 12.1 -1.6 2.9 -1.7 3.6 -0.5 4.3 1.1 0.7 0.8 1.7 -1.7 4.8 -1.7 2.1 -5 5.7 -7.5 8.1 l-4.4 4.3 0.4 -16.8z"/>
  <path d="M336.7 282.3 c-1.9 -0.3 -4.1 -2.1 -6.9 -5.6 -4.1 -5.2 -4.8 -5.5 -8 -4.2 -3.4 1.4 -2.1 -3.8 1.7 -7.2 3.8 -3.4 4.3 -5.6 1.9 -8 -1.2 -1.2 -1.4 -2.8 -1 -6.2 0.3 -2.5 0.5 -6.5 0.5 -8.8 0 -4.9 1.7 -5.7 5.1 -2.3 2.4 2.4 5.3 2.6 7.5 0.3 1.6 -1.6 2.2 -1.6 9.7 0 8.9 1.9 11.4 1.3 12.4 -2.8 0.5 -1.9 1.3 -2.5 3.5 -2.5 4.7 0 8 2 7.3 4.4 -1.2 3.8 -8.4 17.8 -12.2 23.5 -3.4 5.1 -17.3 20.3 -18.3 20 -0.2 -0.1 -1.7 -0.4 -3.2 -0.6z"/>
  <path d="M366.4 198.5 c-0.5 -1.9 -1.3 -2.5 -3.5 -2.5 -2.2 0 -2.9 -0.5 -2.9 -2 0 -1.1 -0.7 -2 -1.5 -2 -0.8 0 -1.5 -0.7 -1.5 -1.5 0 -0.9 -0.7 -1.8 -1.5 -2.1 -0.8 -0.4 -1.5 -1.8 -1.5 -3.3 0 -1.5 -0.4 -3.1 -0.9 -3.6 -0.5 -0.6 -1.1 -2.3 -1.4 -4 -0.2 -1.7 -0.5 -0.5 -0.6 2.8 l-0.1 5.7 -3.4 0 c-3.2 0 -3.4 -0.2 -4 -4.4 l-0.7 -4.3 -7 -0.5 c-7.9 -0.6 -9.1 -1.5 -10.8 -8.5 -0.6 -2.4 -1.6 -4.3 -2.1 -4.3 -0.6 0 -1 -2.5 -1 -5.6 l0 -5.6 3.8 0.5 c8.4 1.3 10.1 1.9 10.4 3.9 0.2 1.3 1.7 2.5 4.2 3.3 2.2 0.8 5.1 2.6 6.5 4.1 1.4 1.6 2.6 2.3 2.9 1.6 0.2 -0.7 2.5 -1.2 5.8 -1.2 3 0 5.4 -0.4 5.4 -1 0 -0.5 0.5 -1 1 -1 2.3 0 10.7 21 12.4 31.1 0.9 5.3 0 6.9 -4 6.9 -2.8 0 -3.5 -0.5 -4 -2.5z"/>
  <path d="M158 197.5 c0 -1.8 -2.6 -2 -3.3 -0.2 -0.4 0.8 -0.6 0.8 -0.6 -0.2 -0.1 -0.8 0.9 -2.5 2.1 -3.8 l2.2 -2.3 -4.9 -4.5 c-2.6 -2.5 -5.2 -4.5 -5.8 -4.5 -0.5 0 -1.5 -0.8 -2.2 -1.7 -1.5 -2.1 1.7 -10.6 7.8 -20.5 3.5 -5.7 4.6 -6.8 6.9 -6.8 2 0 3.1 0.8 4.3 3 0.9 1.7 2.2 3 3 3 1.7 0 2.1 6 0.5 7.6 -0.5 0.5 -1.7 6.6 -2.6 13.4 -0.8 6.9 -1.8 13.6 -2.2 14.9 -0.8 2.8 -5.2 5 -5.2 2.6z"/>
  <path d="M202 191 l0 -5.1 4.8 0.3 4.7 0.3 0 4.5 0 4.5 -4.7 0.3 -4.8 0.3 0 -5.1z"/>
  <path d="M312 145.5 c0 -1.2 -1.3 -1.5 -5.9 -1.5 -5 0 -5.9 -0.3 -6.4 -2 -0.3 -1.4 -1.4 -2 -3.1 -2 -1.4 0 -2.6 -0.5 -2.6 -1.1 0 -0.7 -2.1 -0.8 -6.5 -0.4 l-6.5 0.7 0 -3.6 c0 -2 0.5 -3.6 1 -3.6 0.6 0 1 -0.7 1 -1.5 0 -0.9 0.7 -1.8 1.5 -2.1 0.8 -0.4 1.5 -1.8 1.5 -3.3 0.1 -2.2 0.2 -2.4 1.1 -0.8 1.2 2.1 4.8 2.3 5.5 0.2 0.9 -2.2 2.4 -1.8 2.4 0.5 0 1.3 0.7 2 2 2 1.1 0 2 0.5 2 1 0 1.5 6 6.8 10.3 9.1 4.7 2.5 7.9 2.2 9.2 -0.8 1.5 -3.5 3.5 -2.8 3.5 1.2 0 1.9 -0.4 3.5 -0.9 3.5 -0.5 0 -1.1 1.4 -1.4 3 -0.6 2.7 -1.1 3 -4.2 3 -2.4 0 -3.5 -0.5 -3.5 -1.5z"/>
  <path d="M195 136.2 c0 -5.8 5.8 -10.2 13.5 -10.2 l4.5 0 0 4.3 c0 3.9 -0.3 4.4 -4.5 7 -3.2 1.9 -5.9 2.7 -9 2.7 l-4.5 0 0 -3.8z"/>
  <path d="M217 124.5 c0 -3.3 0.2 -3.5 3.5 -3.5 3.3 0 3.5 0.2 3.5 3.5 0 3.3 -0.2 3.5 -3.5 3.5 -3.3 0 -3.5 -0.2 -3.5 -3.5z"/>
  <path d="M270 122 c0 -4 0 -4 3.9 -4 5.9 0 7.1 0.8 7.1 4.6 l0 3.4 -5.5 0 -5.5 0 0 -4z"/>
 </g>
 <g fill="#f8faf2">
  <path d="M221 335 c0 -0.5 0.4 -1 0.9 -1 0.5 0 1.7 -2.2 2.7 -4.9 1.7 -5 5.3 -10.5 5.4 -8.4 0 0.6 -0.4 1.5 -1 1.8 -0.5 0.3 -1 1 -1 1.5 0 0.4 1.3 -0.4 3 -2 2.1 -2 3 -3.8 3.2 -6.6 0.3 -3.5 0.6 -3.9 3.1 -4 1.6 -0.1 2.5 0.2 2 0.5 -1.4 1 -1.5 9.4 -0.1 10.3 0.9 0.6 0.5 0.7 -0.9 0.3 -1.7 -0.5 -2.3 -0.2 -2.3 1 0 0.9 -0.4 1.3 -1 1 -0.5 -0.3 -1 -0.1 -1 0.4 0 1.7 -4.2 6.1 -5.7 6.1 -0.8 0 -1.1 0.5 -0.8 1 0.3 0.6 -0.3 1 -1.5 1 -1.1 0 -2.3 0.7 -2.6 1.5 -0.7 1.7 -2.4 2 -2.4 0.5z"/>
  <path d="M251 315 c-0.8 -0.5 -2.8 -1 -4.5 -1 -1.6 0 -3.7 -0.5 -4.5 -1.1 -1.1 -0.8 0.3 -0.9 5 -0.4 7 0.7 7.9 1 6.4 2.5 -0.6 0.6 -1.5 0.6 -2.4 0z"/>
  <path d="M252.6 290.3 c-0.4 -0.4 -2.4 -0.6 -4.5 -0.4 -2.2 0.1 -4.2 -0.2 -4.5 -0.7 -0.3 -0.6 -1.5 -0.8 -2.5 -0.5 -1 0.3 -2.2 0 -2.5 -0.6 -0.4 -0.5 -1.2 -0.8 -2 -0.5 -0.7 0.3 -2.6 -0.1 -4.2 -0.7 -1.6 -0.7 -3.5 -1.1 -4.1 -1 -0.7 0.1 -1.3 -0.2 -1.3 -0.6 0 -0.5 -1.2 -1 -2.7 -1.1 -1.6 -0.1 -3 -0.7 -3.1 -1.2 -0.2 -0.6 -0.8 -0.8 -1.3 -0.4 -0.5 0.3 -0.9 0 -0.9 -0.6 0 -0.6 -0.5 -0.8 -1 -0.5 -0.6 0.3 -1.7 -0.1 -2.6 -0.9 -0.9 -0.9 -2 -1.4 -2.5 -1.1 -0.5 0.4 -0.9 0.1 -0.9 -0.4 0 -0.6 -0.3 -1 -0.7 -0.9 -1.1 0.4 -7.3 -2.3 -7.3 -3.1 0 -0.4 -1.7 -1.5 -3.7 -2.6 -7.3 -3.9 -17.5 -13.3 -24.9 -23 -5.1 -6.7 -5.2 -7 -3.1 -7.7 1.2 -0.3 3.9 -0.6 6 -0.7 7.8 -0.2 12.7 -4.8 12.7 -11.7 0 -3.4 -0.6 -4.8 -2.9 -7 l-3 -2.8 2.5 -2.9 c2.9 -3.4 3.2 -9.1 0.8 -12.6 -2.6 -3.7 -7.1 -4.9 -18.9 -5.2 -8.9 -0.2 -11.1 -0.5 -11.6 -1.8 -0.3 -0.9 0.1 -2.1 0.9 -2.7 1 -0.7 1.6 -3 1.7 -6.2 0.1 -2.9 0.4 -5.4 0.8 -5.8 0.3 -0.3 0.2 -1.6 -0.2 -2.8 -0.9 -2.4 -0.3 -4.9 1 -4 0.5 0.3 0.9 -0.2 0.9 -1 0 -0.8 -0.4 -1.8 -1 -2.1 -0.5 -0.3 -1 -1.1 -1 -1.6 0 -0.6 0.4 -0.7 1 -0.4 0.5 0.3 1.1 -0.2 1.1 -1.2 0.2 -2.4 0.2 -2.5 -0.6 -4.6 -0.5 -1.3 -0.3 -1.6 0.8 -1.1 0.8 0.3 1.8 0.1 2.2 -0.5 0.3 -0.6 0 -1.1 -0.7 -1.2 -0.7 0 -2.2 -0.2 -3.3 -0.5 -3.6 -0.7 -6 -0.7 -8 0.2 -1.9 0.7 -1.8 0.6 0.2 -2.7 19.6 -30.8 51.3 -49.7 90.9 -54 21.9 -2.4 50.8 2.7 69.9 12.3 21.9 11 39.7 28.5 50.1 49.1 1.9 3.7 3.4 7 3.4 7.3 0 1 -3.6 0.2 -5.4 -1.1 -3.4 -2.6 -6.3 -1.9 -7 1.7 -0.3 1.7 -0.2 3.6 0.4 4.2 0.5 0.5 1 2.2 1 3.6 0 1.5 0.8 3 2 3.8 1.2 0.7 1.8 1.7 1.5 2.2 -0.3 0.5 1.2 1 3.2 1.2 3.5 0.3 3.9 0.6 5.2 4.7 0.7 2.3 1.6 3.9 2 3.4 0.3 -0.6 1.3 -1.3 2.1 -1.6 1.2 -0.4 1.1 -0.6 -0.2 -0.6 -2.1 -0.1 -2.5 -2.1 -0.4 -2.1 0.8 0 1.6 0.7 2 1.5 1.4 3.8 1.8 17.9 0.6 25.7 -1.3 9.3 -5 22.3 -5.9 21.1 -0.3 -0.5 -1.9 -1.4 -3.5 -2.1 -2.4 -1.1 -3.2 -1 -5.3 0.5 -1.4 1 -4.4 2.8 -6.6 4 -3.7 2 -4.3 2 -6.8 0.7 -1.5 -0.7 -3.5 -1.1 -4.3 -0.8 -0.9 0.3 -1.6 0.2 -1.6 -0.4 0 -1.1 -5.5 -1 -6.6 0.1 -0.4 0.4 -0.1 0.7 0.6 0.7 0.9 0 0.8 0.6 -0.5 2 -1 1.1 -2.6 2 -3.6 2 -1 0 -2.3 0.9 -2.9 1.9 -1 2.1 -0.4 5.1 1.1 5.1 0.5 0 0.9 0.5 0.9 1.2 0 0.6 0.7 1.9 1.5 2.8 1.3 1.5 1.2 2 -0.8 4.7 -4.9 6.6 -12.8 11.4 -29.7 17.9 -4.1 1.6 -7.6 3.2 -7.8 3.5 -0.2 0.4 -1.2 0.5 -2.2 0.2 -1.1 -0.3 -2 -0.1 -2 0.5 0 0.6 -0.9 0.8 -2 0.5 -1.1 -0.3 -2 0 -2 0.6 0 0.7 -0.9 0.9 -2.5 0.5 -1.6 -0.4 -2.5 -0.2 -2.5 0.5 0 0.7 -0.9 0.9 -2.5 0.5 -1.7 -0.4 -2.5 -0.2 -2.5 0.6 0 0.9 -1.3 1.1 -5 0.6 -3.2 -0.4 -5 -0.3 -5 0.4 0 1.1 -11.2 1.4 -12.4 0.3z m11.5 -38.9 c3.1 -1.6 3.7 -2.6 11.1 -19.9 1.7 -3.8 4.2 -9.5 5.5 -12.5 3 -6.6 2.3 -8.5 -3.2 -8.5 -3.7 0 -3.9 0.2 -5.8 5 -1 2.8 -2.6 6.7 -3.5 8.9 l-1.6 3.9 -0.9 -2.9 c-0.5 -1.6 -1.1 -3.6 -1.4 -4.4 -0.4 -0.8 -1.4 -3.5 -2.3 -6 -1.4 -3.8 -2.1 -4.5 -4.6 -4.8 -1.6 -0.2 -3.8 0.3 -4.8 1.1 -1.7 1.2 -2.3 1.2 -4.7 -0.2 -2.1 -1.2 -3.4 -1.3 -5.6 -0.5 l-2.8 0.9 -0.3 13.2 c-0.2 12.2 -0.1 13.4 1.8 15.3 2.4 2.4 5.3 2.6 7.4 0.4 1.3 -1.2 1.6 -4 1.6 -13.5 0 -6.5 0.4 -11.9 0.8 -11.9 0.5 0 3.1 5.7 5.9 12.8 5.5 13.8 5.5 15.2 -0.2 15.2 -2.4 0 -3.4 0.6 -4.3 2.5 -1.7 3.7 -1.5 4.3 1.6 5.9 3.5 2 6.6 2 10.3 0z m74.1 -11.6 c0.4 -0.7 0.8 -4.6 0.8 -8.7 0 -10 3.3 -13.8 8.2 -9.4 1.4 1.3 1.8 3.1 1.8 9.4 0 6.9 0.2 8 2.2 9.3 2.9 2.1 4.4 2 6.7 -0.3 1.6 -1.6 1.8 -3 1.3 -12.2 -0.5 -11.7 -1 -13.2 -5.5 -15.9 -4.1 -2.5 -8.3 -2.5 -12.4 -0.1 -3.1 1.9 -3.1 1.9 -3.6 0 -0.5 -1.9 -4.7 -2.6 -8.1 -1.3 -2.4 0.9 -2.3 25.4 0 29.4 1.5 2.5 2 2.7 4.7 1.9 1.7 -0.5 3.4 -1.4 3.9 -2.1z m-120.1 -1.4 c6.3 -6 7.7 -13.5 3.7 -20.5 -2.4 -4.3 -8.8 -7.9 -14 -7.9 -4.4 0 -10.7 3.7 -13.6 8 -3.1 4.5 -2.6 11.2 1.1 16.8 3.4 5.3 7.9 7.4 14.5 6.9 4.1 -0.3 5.9 -1 8.3 -3.3z m16.9 1.6 c1.9 -1.9 2 -3.3 2 -20.5 -0.1 -17.1 -0.3 -18.8 -2 -20.5 -2.2 -2.2 -4.2 -2.5 -7.1 -1 -1.8 1 -1.9 2.3 -1.9 20.7 0 16.9 0.2 19.9 1.7 21.5 2.1 2.4 4.8 2.3 7.3 -0.2z m72.6 -1.5 l3.7 -2.8 -2.7 -2.4 c-2.8 -2.4 -5.1 -2.9 -6 -1.4 -0.9 1.4 -8.2 0.7 -10.2 -0.9 -1.5 -1.3 -0.6 -1.6 8.7 -2 l10.4 -0.5 0.3 -4.3 c0.8 -10.8 -13.7 -18.1 -23.7 -11.8 -9.3 5.9 -9.5 19.9 -0.3 26.5 5.8 4 14.2 3.9 19.8 -0.4z m15.6 1.8 c1.6 -1.4 1.8 -3.3 1.8 -14.8 0 -13.2 0 -13.2 -2.5 -14.3 -3.4 -1.6 -5.1 -1.5 -6.8 0.3 -1.3 1.2 -1.4 3.8 -1 14.7 0.3 7.3 1 13.9 1.5 14.6 1.4 1.7 4.8 1.5 7 -0.5z m-74.3 -34.9 c2.7 -3.4 2.6 -4 -0.4 -6.9 -2.9 -3 -4.9 -3.1 -7.5 -0.5 -2.7 2.7 -2.6 6.5 0.2 8.4 3.2 2.3 5.4 2 7.7 -1z m74.3 0.9 c2.5 -2.3 2.3 -6.8 -0.4 -8.7 -3 -2.1 -4.4 -2 -6.8 0.4 -5.3 5.3 1.6 13.4 7.2 8.3z m-114.7 -15.3 c0 -0.8 -0.8 -1.6 -1.7 -1.8 -1.3 -0.2 -1.8 0.3 -1.8 1.8 0 1.5 0.5 2 1.8 1.8 0.9 -0.2 1.7 -1 1.7 -1.8z m157.5 0.5 c0 -0.8 -0.7 -1.5 -1.5 -1.5 -0.8 0 -1.5 0.7 -1.5 1.5 0 0.8 0.7 1.5 1.5 1.5 0.8 0 1.5 -0.7 1.5 -1.5z m-132.8 -4.2 c1.4 -1.2 1.8 -3.1 1.8 -8 l0 -6.3 7 0 6.9 0 0.3 6.7 c0.3 6.3 0.5 6.9 3.1 8.1 2.2 1.1 3.2 1.1 5.5 0 l2.7 -1.3 0.3 -19.4 c0.2 -13.4 -0.1 -19.8 -0.9 -20.7 -1.6 -1.9 -7.4 -1.8 -9.3 0.2 -1.2 1.1 -1.6 3.6 -1.6 9.1 0 6.4 -0.2 7.4 -1.6 6.9 -0.9 -0.3 -4 -0.6 -7 -0.6 l-5.4 0 0 -7.4 c0 -7.1 -0.1 -7.4 -2.8 -8.5 -1.9 -0.8 -3.6 -0.9 -5.4 -0.2 -3.5 1.3 -4 5.6 -3.2 25.3 0.7 15 0.8 16 2.8 16.8 3.2 1.3 4.8 1.2 6.8 -0.7z m46.6 -0.6 c1.6 -1.5 1.9 -1.5 3 0.3 1.4 2.2 5.2 2.6 7 0.8 1.5 -1.5 1.7 -20.5 0.2 -24.2 -1.2 -3.2 -7.8 -6.6 -12.6 -6.6 -4.9 0 -12.4 3.6 -12.4 5.9 0 1 0.9 2.6 1.9 3.5 1.7 1.5 2.4 1.6 5.4 0.5 1.9 -0.6 4.6 -0.9 6 -0.5 3.6 0.9 3.5 3.6 0 3.6 -9.5 0 -15.3 3.5 -15.3 9 0 3.5 2.3 8.5 4.2 9.4 2.4 1 10.8 -0.1 12.6 -1.7z m62.6 -14.3 c0.9 -0.8 1.6 -2.4 1.6 -3.4 0 -2.3 -4.4 -5.5 -6.1 -4.4 -0.7 0.4 -0.9 0.3 -0.6 -0.4 0.5 -0.6 -0.8 -1.3 -3.2 -1.7 -2.6 -0.4 -4.2 -1.4 -5.1 -3 -0.7 -1.3 -1.9 -2.6 -2.6 -2.9 -2.2 -0.8 -1.7 3.7 0.5 5.3 1.1 0.8 1.7 2 1.4 2.7 -0.8 2.1 2.7 8.3 5 8.7 4.7 0.9 7.6 0.6 9.1 -0.9z m12.1 -1.4 c0.3 -0.5 2.3 -1 4.3 -1.1 3 0 3.3 -0.2 1.7 -0.9 -2.1 -0.9 -7.5 -1.3 -7.5 -0.6 0 0.2 -0.3 1.1 -0.6 2 -0.7 1.7 1.1 2.2 2.1 0.6z m-193.5 -13 c-1 -1.8 -1.4 -2 -2.1 -0.9 -1.3 2 -1.1 2.7 0.9 3.1 2.4 0.6 2.5 0.3 1.2 -2.2z m177.6 -5.6 c0.9 -1.3 1.3 -3.2 0.9 -4.3 -0.7 -2.2 -7.9 -9.1 -9.5 -9.1 -1.9 0 -6 4.9 -6 7.1 0 1.3 1.7 3.8 3.9 5.9 4.5 4.3 8.1 4.4 10.7 0.4z m-21.6 -12.6 c0 -1 0.5 -1.8 1.1 -1.8 0.6 0 0.9 -1.6 0.7 -3.7 -0.3 -3.1 -1 -4.1 -5.2 -7 -6.4 -4.4 -9.5 -5.1 -11.3 -2.8 -1.8 2.5 -1.6 5.5 0.4 7.7 0.9 1 1.2 1.8 0.6 1.8 -0.6 0 -0.9 1 -0.8 2.3 0.1 1.2 0.3 2.8 0.4 3.5 0.1 1.7 3.1 1.5 3.1 -0.2 0 -0.8 -0.6 -1.6 -1.2 -1.9 -0.7 -0.2 -0.9 -0.8 -0.5 -1.3 0.4 -0.5 1.1 -0.4 1.5 0.2 1.1 1.6 7 3.7 8.6 3.1 1.1 -0.4 1.3 0.1 1 2.1 -0.3 2.1 -0.2 2.3 0.6 1.2 0.5 -0.8 1 -2.3 1 -3.2z m-111.5 -5.5 c2.5 -1.6 4.5 -3.4 4.5 -4 0 -2.1 -1.7 -1.5 -2.3 0.7 -0.3 1.1 -1.3 2 -2.4 2 -1.7 -0.1 -1.7 -0.1 0 -1.1 0.9 -0.5 1.7 -1.4 1.7 -2 0 -1.1 -3.5 0.7 -6.7 3.5 -5 4.3 -1.5 4.9 5.2 0.9z m95.3 1 c-0.5 -2.6 -3.8 -2.9 -3.8 -0.4 0 1.5 0.6 2.1 2.1 2.1 1.4 0 1.9 -0.5 1.7 -1.7z m-6.2 -1.9 c-0.3 -0.9 -0.6 -2 -0.6 -2.5 0 -0.6 -0.6 -0.7 -1.2 -0.2 -0.7 0.4 -2.4 0.8 -3.8 0.8 -1.5 0 -2.6 0.6 -2.8 1.8 -0.3 1.4 0.4 1.7 4.3 1.7 3.9 0 4.6 -0.3 4.1 -1.6z m-2 -9.1 c1.1 -4.2 -3 -6.9 -5.6 -3.8 -1 1.2 -0.9 1.9 0.3 3.8 2 3 4.6 3 5.3 0z m-15.6 -2.3 c-2 -1.3 -4 -1.3 -4 0 0 0.6 1.2 1 2.8 1 2.1 0 2.4 -0.2 1.2 -1z"/>
  <path d="M204.5 231 c-2.1 -2.4 -2.4 -7.2 -0.5 -9.4 1.9 -2.4 7.6 -2 9.4 0.6 2.1 3 2 5 -0.5 8.2 -2.4 3.1 -5.9 3.4 -8.4 0.6z"/>
  <path d="M295.2 222.3 c-4.3 -0.4 -4.4 -0.5 -2.6 -2.4 2.2 -2.4 5.6 -2.4 7.7 -0.1 1.5 1.7 1.4 3.5 -0.2 3 -0.3 -0.1 -2.6 -0.3 -4.9 -0.5z"/>
  <path d="M273.7 181.3 c-1.3 -1.2 -0.7 -4.1 0.9 -4.7 4.6 -1.8 8.4 0.6 5.7 3.6 -1.6 1.8 -5.3 2.4 -6.6 1.1z"/>
  <path d="M333.4 167.5 c-0.3 -0.8 -0.4 -2 -0.1 -2.7 0.3 -0.7 0.6 -0.3 0.6 0.9 0.1 1.7 0.8 2.3 3.4 2.6 l3.2 0.4 -3.3 0.1 c-2.1 0.1 -3.5 -0.3 -3.8 -1.3z"/>
  <path d="M329 165.5 c0 -0.8 0.7 -1.5 1.5 -1.5 0.8 0 1.5 0.7 1.5 1.5 0 0.8 -0.7 1.5 -1.5 1.5 -0.8 0 -1.5 -0.7 -1.5 -1.5z"/>
  <path d="M329.7 253.3 c-1.2 -1.1 -0.7 -3.3 0.7 -3.3 0.7 0 1.6 0.9 1.9 2 0.5 1.9 -1.2 2.8 -2.6 1.3z"/>
  <path d="M362.3 253.2 c-0.6 -0.4 -1.4 -2.1 -1.7 -3.7 -0.5 -2.4 -0.4 -2.6 0.3 -1 0.5 1.1 1 1.4 1 0.8 0.1 -0.7 1.1 -1.3 2.4 -1.3 1.5 0 1.8 -0.3 0.9 -0.8 -1.6 -1 -0.5 -4.2 1.4 -4.2 0.8 0 1.4 0.5 1.4 1 0 0.9 -4 10 -4.4 10 0 0 -0.6 -0.4 -1.3 -0.8z"/>
  <path d="M167 228 l0 -4 5.4 0 c4.5 0 5.8 0.4 7 2.2 1.4 2 1.4 2.4 -0.1 4 -1.2 1.3 -3.1 1.8 -7 1.8 l-5.3 0 0 -4z"/>
  <path d="M167 212 l0 -4 4.3 0 c4.1 0 8.7 2.1 8.7 4 0 2.3 -3.4 4 -8.1 4 l-4.9 0 0 -4z"/>
  <path d="M369.4 190 c0.1 -0.8 1 -1.6 2.1 -1.7 1.5 -0.1 1.5 0 0.3 0.3 -0.9 0.3 -1.9 1.1 -2.1 1.7 -0.2 0.7 -0.3 0.5 -0.3 -0.3z"/>
  <path d="M367 178.5 c0 -0.8 0.7 -1.5 1.5 -1.5 0.8 0 1.5 0.7 1.5 1.5 0 0.8 -0.7 1.5 -1.5 1.5 -0.8 0 -1.5 -0.7 -1.5 -1.5z"/>
 </g>
</svg>